<svg width="152" height="168" viewBox="0 0 152 168" fill="none" xmlns="http://www.w3.org/2000/svg">
<path d="M145.123 167.692H-213.439C-214.526 167.692 -215.408 166.811 -215.408 165.723C-215.408 164.636 -214.527 163.754 -213.439 163.754H145.124C146.211 163.754 147.093 164.635 147.093 165.723C147.092 166.811 146.211 167.692 145.123 167.692Z" fill="#C5D2D3"/>
<path d="M65.4249 151.692C57.6749 132.775 72.9899 116.355 86.9249 113.859C103.472 110.895 125.675 126.776 119.008 151.026L65.4249 151.692Z" fill="#190C13"/>
<path d="M151.042 135.462C151.152 139.622 149.672 143.672 146.912 146.792L146.342 147.442L129.472 150.512L124.342 151.442L118.362 151.462C119.272 148.512 119.702 145.352 119.562 142.082C118.962 127.642 106.952 115.952 92.5018 115.692C77.0418 115.422 64.4218 127.882 64.4218 143.272C64.4218 146.192 64.8818 149.012 65.7218 151.662L57.7818 151.692H56.3418L53.6818 151.622L-115.548 146.892L-126.278 146.592C-126.148 145.492 -126.078 144.372 -126.078 143.232C-126.088 136.412 -128.648 130.042 -132.898 125.152C-137.198 120.212 -143.208 116.782 -150.058 115.922C-159.508 114.722 -168.178 118.322 -173.968 124.612C-178.478 129.522 -181.238 136.072 -181.238 143.272C-181.238 143.872 -181.218 144.462 -181.168 145.052L-185.158 144.942L-192.648 143.042L-205.608 139.752L-216.438 137.012L-219.658 136.192L-221.908 117.312L-220.658 114.442C-220.668 114.372 -220.668 114.312 -220.678 114.242C-221.048 109.722 -221.348 104.312 -221.408 98.1919C-221.438 95.3819 -221.448 88.4919 -220.818 79.9419C-220.768 79.2819 -220.718 78.6219 -220.658 77.9419C-220.368 74.4319 -218.888 57.9219 -213.158 36.1919C-212.458 33.5319 -211.728 30.9319 -210.968 28.3919C-209.668 24.0019 -208.298 19.8019 -206.888 15.8019C-206.228 13.9019 -205.558 12.0519 -204.878 10.2519C-203.958 7.82187 -202.188 5.88187 -199.978 4.73187C-199.368 4.40187 -198.728 4.14187 -198.058 3.95187C-197.318 3.74187 -196.548 3.60187 -195.758 3.56187C-190.188 3.25187 -184.578 2.96188 -178.938 2.68188C-173.918 2.44188 -168.878 2.21188 -163.798 2.00188H-163.788C-156.808 1.71188 -149.778 1.45188 -142.678 1.22188C-137.238 1.04188 -131.768 0.881881 -126.258 0.741881C-119.528 0.571881 -112.738 0.421873 -105.908 0.311873C-104.818 0.291873 -103.738 0.281885 -102.648 0.261885H-102.638C-101.538 0.241885 -100.438 0.231882 -99.3382 0.211882C-95.5082 0.161882 -91.7082 0.121871 -87.9082 0.0918715C-80.8982 0.0218715 -73.9382 -0.00812484 -67.0282 0.00187516C-61.0782 0.00187516 -55.1682 0.031877 -49.2882 0.081877C-41.7382 0.141877 -34.2382 0.23187 -26.8182 0.37187C-21.9982 0.45187 -17.1982 0.551873 -12.4382 0.671873C-11.3882 0.691873 -10.3482 0.761876 -9.3082 0.861876C-3.67819 1.40188 1.81178 3.03187 6.83179 5.67187L39.7118 22.9419L94.7118 74.0719L98.5918 74.1919C106.242 76.3919 115.222 79.6119 124.842 84.4419C132.302 88.1819 138.712 92.1719 144.092 95.9419L146.872 117.252L147.092 118.942C148.272 120.352 149.182 121.952 149.822 123.652C150.452 125.342 150.812 127.152 150.862 128.982L151.042 135.462Z" fill="#FCFCFC"/>
<path d="M59.2616 127.692L57.7816 151.692H56.3416L53.6816 151.622L-115.548 146.892L-126.278 146.592C-126.148 145.492 -126.078 144.372 -126.078 143.232C-126.088 136.412 -128.648 130.042 -132.898 125.152L59.2616 127.692Z" fill="#DB4A47"/>
<path d="M8.28473 100.314H2.76074V105.838H8.28473V100.314Z" fill="#DB4A47"/>
<path d="M20.3404 100.32H14.8164V105.844H20.3404V100.32Z" fill="#DB4A47"/>
<path d="M32.397 100.326H26.873V105.85H32.397V100.326Z" fill="#DB4A47"/>
<path d="M44.4527 100.33H38.9287V105.854H44.4527V100.33Z" fill="#DB4A47"/>
<path d="M56.5074 100.336H50.9834V105.86H56.5074V100.336Z" fill="#DB4A47"/>
<path d="M68.564 100.34H63.04V105.864H68.564V100.34Z" fill="#DB4A47"/>
<path d="M2.25739 100.312H-3.2666V105.836H2.25739V100.312Z" fill="#EFEFEF"/>
<path d="M14.3131 100.318H8.78906V105.842H14.3131V100.318Z" fill="#EFEFEF"/>
<path d="M26.3687 100.322H20.8447V105.846H26.3687V100.322Z" fill="#EFEFEF"/>
<path d="M38.4244 100.328H32.9004V105.852H38.4244V100.328Z" fill="#EFEFEF"/>
<path d="M50.481 100.332H44.957V105.856H50.481V100.332Z" fill="#EFEFEF"/>
<path d="M62.5357 100.338H57.0117V105.862H62.5357V100.338Z" fill="#EFEFEF"/>
<path d="M74.5914 100.344H69.0674V105.868H74.5914V100.344Z" fill="#EFEFEF"/>
<path d="M8.28473 112.189H2.76074V117.713H8.28473V112.189Z" fill="#DB4A47"/>
<path d="M20.3404 112.195H14.8164V117.719H20.3404V112.195Z" fill="#DB4A47"/>
<path d="M32.397 112.201H26.873V117.725H32.397V112.201Z" fill="#DB4A47"/>
<path d="M44.4527 112.205H38.9287V117.729H44.4527V112.205Z" fill="#DB4A47"/>
<path d="M56.5074 112.211H50.9834V117.735H56.5074V112.211Z" fill="#DB4A47"/>
<path d="M68.564 112.215H63.04V117.739H68.564V112.215Z" fill="#DB4A47"/>
<path d="M2.25739 112.188H-3.2666V117.711H2.25739V112.188Z" fill="#EFEFEF"/>
<path d="M14.3131 112.193H8.78906V117.717H14.3131V112.193Z" fill="#EFEFEF"/>
<path d="M26.3687 112.197H20.8447V117.721H26.3687V112.197Z" fill="#EFEFEF"/>
<path d="M38.4244 112.203H32.9004V117.727H38.4244V112.203Z" fill="#EFEFEF"/>
<path d="M50.481 112.207H44.957V117.731H50.481V112.207Z" fill="#EFEFEF"/>
<path d="M62.5357 112.213H57.0117V117.737H62.5357V112.213Z" fill="#EFEFEF"/>
<path d="M74.5914 112.219H69.0674V117.743H74.5914V112.219Z" fill="#EFEFEF"/>
<path d="M2.23004 106.227H-3.29395V111.751H2.23004V106.227Z" fill="#DB4A47"/>
<path d="M14.2847 106.232H8.76074V111.756H14.2847V106.232Z" fill="#DB4A47"/>
<path d="M26.3404 106.236H20.8164V111.76H26.3404V106.236Z" fill="#DB4A47"/>
<path d="M38.397 106.242H32.873V111.766H38.397V106.242Z" fill="#DB4A47"/>
<path d="M50.4527 106.248H44.9287V111.772H50.4527V106.248Z" fill="#DB4A47"/>
<path d="M62.5074 106.252H56.9834V111.776H62.5074V106.252Z" fill="#DB4A47"/>
<path d="M74.564 106.258H69.04V111.782H74.564V106.258Z" fill="#DB4A47"/>
<path d="M8.25739 106.23H2.7334V111.754H8.25739V106.23Z" fill="#EFEFEF"/>
<path d="M20.3131 106.234H14.7891V111.758H20.3131V106.234Z" fill="#EFEFEF"/>
<path d="M32.3687 106.24H26.8447V111.764H32.3687V106.24Z" fill="#EFEFEF"/>
<path d="M44.4244 106.246H38.9004V111.77H44.4244V106.246Z" fill="#EFEFEF"/>
<path d="M56.481 106.25H50.957V111.774H56.481V106.25Z" fill="#EFEFEF"/>
<path d="M68.5357 106.256H63.0117V111.78H68.5357V106.256Z" fill="#EFEFEF"/>
<path d="M80.5914 106.262H75.0674V111.786H80.5914V106.262Z" fill="#EFEFEF"/>
<path d="M30.7168 100.191L74.5638 106.257L77.5918 98.5664L30.7168 100.191Z" fill="#FCFCFC"/>
<path d="M-217.075 89.6914L-216.908 100.441L30.0918 100.274C14.3708 98.4304 -9.29617 95.9394 -38.2412 94.0244C-70.7472 91.8744 -95.8542 91.3954 -144.741 90.5244C-162.65 90.2054 -187.388 89.8494 -217.075 89.6914Z" fill="#DB4A47"/>
<path d="M87.7615 85.5214C87.7615 85.5214 71.5215 82.3514 54.5015 79.0714H54.4915C45.7815 77.3814 36.8615 75.6614 29.8115 74.3214C23.1015 73.0414 18.0915 72.1014 16.5915 71.8614C15.7715 71.7314 15.0115 71.5114 14.3215 71.2414C10.7115 69.8414 8.78152 66.9314 8.15152 65.8114V65.8014C8.00152 65.5214 7.92151 65.3614 7.92151 65.3614L4.53152 42.9914V42.9814L3.50153 36.2314L3.09152 33.5214C2.92152 29.9414 7.51154 29.6914 7.51154 29.6914C7.51154 29.6914 9.27153 29.8414 11.9415 30.0814H11.9515C16.1315 30.4414 22.5715 31.0414 28.1215 31.6614C30.4615 31.9214 32.6415 32.1814 34.4215 32.4414C35.5015 32.6014 36.4815 32.7914 37.3815 33.0114C43.7115 34.5614 45.5115 37.4414 45.5115 37.4414C45.5115 37.4414 47.1915 39.0114 49.8815 41.6014C53.9115 45.4914 60.2315 51.6914 66.5115 58.2714C77.2615 69.5514 87.9515 81.9614 88.8415 83.4414C90.5915 86.3614 87.7615 85.5214 87.7615 85.5214Z" fill="#44BDE2"/>
<path d="M63.0919 71.4424L62.0919 78.1924L54.502 79.0724H54.4919C37.4719 75.7724 19.6719 72.3624 16.5919 71.8624C10.4219 70.8624 7.92194 65.3624 7.92194 65.3624L3.50195 36.2324C12.142 37.0024 34.5219 39.1324 39.3419 40.9424C45.3419 43.1924 63.0919 71.4424 63.0919 71.4424Z" fill="#98D3EA"/>
<path d="M130.092 143.561C130.092 145.931 129.882 148.261 129.472 150.511L124.342 151.441L118.362 151.461C119.272 148.511 119.702 145.351 119.562 142.081C118.962 127.641 106.952 115.951 92.5018 115.691C77.0418 115.421 64.4218 127.881 64.4218 143.271C64.4218 146.191 64.8818 149.011 65.7218 151.661L56.3418 151.691L53.6818 151.621C53.1318 149.021 52.8418 146.321 52.8418 143.561C52.8418 122.231 70.1318 104.941 91.4618 104.941C112.802 104.941 130.092 122.231 130.092 143.561Z" fill="#EFEFEF"/>
<path d="M-213.658 89.6914L-61.4082 93.1914C-40.1242 94.0604 -17.8412 95.5104 5.3418 97.6914C31.4888 100.151 56.3548 103.313 79.8418 106.941" stroke="#494949" stroke-width="0.25" stroke-miterlimit="10"/>
<path d="M-2.4082 2.02539H27.2588C28.6628 2.17439 31.7308 2.70239 34.5918 5.02539C39.3988 8.92739 39.7208 14.7274 39.7588 15.6924L39.7118 22.9424L-2.4082 2.02539Z" fill="#DB4A47"/>
<path d="M-141.075 118.859L-126.908 116.525L61.2588 120.359L73.5918 122.692" stroke="#494949" stroke-width="0.25" stroke-miterlimit="10"/>
<path d="M111.092 123.358L122.425 121.191H135.925L142.259 114.691" stroke="#494949" stroke-width="0.25" stroke-miterlimit="10"/>
<path d="M-1.4082 24.9414L0.341797 96.9414L2.8418 101.691C2.8858 108.473 3.2408 115.93 4.0918 123.941C4.9528 132.045 6.1898 139.488 7.5918 146.191C22.6748 147.024 37.7588 147.858 52.8418 148.691C52.4438 146.136 50.4868 131.958 60.0918 120.191C65.0448 114.123 70.9918 111.245 74.3418 109.941C74.5088 100.941 74.6748 91.9414 74.8418 82.9414V66.6914L69.8418 62.1914L69.5918 56.1914L45.8418 33.6914C45.8418 33.6914 38.8418 27.6914 30.0918 27.1914C30.0918 27.1914 22.6848 25.2544 -1.4082 24.9414Z" stroke="#494949" stroke-width="0.25" stroke-miterlimit="10"/>
<path d="M89.0918 84.8164L127.259 96.3584" stroke="#494949" stroke-width="0.25" stroke-miterlimit="10"/>
<path d="M67.7168 56.1914L64.8418 78.3164L68.9668 78.8164C68.9668 78.8164 72.0918 78.6914 72.9668 76.3164C73.8418 73.9414 72.5918 56.1914 72.5918 56.1914H67.7168Z" fill="#190C13"/>
<path d="M39.9668 32.5664L44.5918 77.8164L47.4668 78.3164L41.9668 33.4414L39.9668 32.5664Z" fill="#FCFCFC"/>
<path d="M17.2168 19.0254H1.4668C0.292797 19.0254 -0.658203 18.0744 -0.658203 16.9004C-0.658203 15.7264 0.292797 14.7754 1.4668 14.7754H17.2168C18.3908 14.7754 19.3418 15.7264 19.3418 16.9004C19.3418 18.0744 18.3908 19.0254 17.2168 19.0254Z" fill="#DB4A47"/>
<path d="M-202.408 14.942C-169.458 13.052 -135.088 11.822 -99.4082 11.442C-87.3782 11.312 -75.4982 11.292 -63.7682 11.362C-57.8082 11.392 -51.8982 11.452 -46.0182 11.532C-38.8182 11.632 -31.6682 11.762 -24.5882 11.932C-19.1382 12.062 -13.7282 12.202 -8.34821 12.372C1.33179 12.672 10.8918 13.032 20.3418 13.442" stroke="#494949" stroke-width="0.25" stroke-miterlimit="10"/>
<path d="M95.9668 100.691H89.0918C88.2638 100.691 87.5918 100.019 87.5918 99.1914V98.1914C87.5918 97.3634 88.2638 96.6914 89.0918 96.6914H95.9668C96.7948 96.6914 97.4668 97.3634 97.4668 98.1914V99.1914C97.4668 100.019 96.7948 100.691 95.9668 100.691Z" fill="#FFC708"/>
<path d="M13.5088 91.1504C15.787 91.1504 17.6338 89.3036 17.6338 87.0254C17.6338 84.7472 15.787 82.9004 13.5088 82.9004C11.2306 82.9004 9.38379 84.7472 9.38379 87.0254C9.38379 89.3036 11.2306 91.1504 13.5088 91.1504Z" fill="#EFEFEF"/>
<path d="M91.9248 167.441C105.111 167.441 115.8 156.752 115.8 143.566C115.8 130.381 105.111 119.691 91.9248 119.691C78.739 119.691 68.0498 130.381 68.0498 143.566C68.0498 156.752 78.739 167.441 91.9248 167.441Z" fill="#262626"/>
<path d="M91.9248 165.941C104.282 165.941 114.3 155.924 114.3 143.566C114.3 131.209 104.282 121.191 91.9248 121.191C79.5674 121.191 69.5498 131.209 69.5498 143.566C69.5498 155.924 79.5674 165.941 91.9248 165.941Z" fill="#3D3D3D"/>
<path d="M91.9248 159.316C100.623 159.316 107.675 152.265 107.675 143.566C107.675 134.868 100.623 127.816 91.9248 127.816C83.2263 127.816 76.1748 134.868 76.1748 143.566C76.1748 152.265 83.2263 159.316 91.9248 159.316Z" fill="#FCFCFC"/>
<path d="M91.9248 158.066C99.9329 158.066 106.425 151.575 106.425 143.566C106.425 135.558 99.9329 129.066 91.9248 129.066C83.9167 129.066 77.4248 135.558 77.4248 143.566C77.4248 151.575 83.9167 158.066 91.9248 158.066Z" fill="#C6C6C6"/>
<path d="M91.9248 152.066C96.6192 152.066 100.425 148.261 100.425 143.566C100.425 138.872 96.6192 135.066 91.9248 135.066C87.2304 135.066 83.4248 138.872 83.4248 143.566C83.4248 148.261 87.2304 152.066 91.9248 152.066Z" fill="#FCFCFC"/>
<path d="M94.7168 143.567C94.7168 145.109 93.4668 146.359 91.9248 146.359C90.3828 146.359 89.1328 145.109 89.1328 143.567C89.1328 142.025 90.3828 140.775 91.9248 140.775C93.4668 140.775 94.7168 142.025 94.7168 143.567Z" fill="#3D3D3D"/>
<path d="M101.247 151.049C100.494 150.412 100.356 149.398 100.759 148.666C101.176 147.944 102.162 147.577 103.062 147.899C103.982 148.227 104.376 149.392 103.788 150.419C103.206 151.451 101.966 151.664 101.247 151.049Z" fill="#190C13"/>
<path d="M94.2582 155.294C94.1672 154.826 94.2742 154.35 94.4832 153.967C94.6962 153.586 95.0163 153.315 95.4133 153.15C95.8223 153.019 96.2452 153.028 96.6512 153.179C97.0572 153.336 97.4462 153.635 97.6772 154.052C97.9142 154.481 97.9353 154.956 97.7453 155.399C97.5603 155.846 97.1623 156.256 96.6113 156.439C96.0723 156.656 95.5012 156.59 95.0732 156.371C94.6422 156.156 94.3522 155.775 94.2582 155.294Z" fill="#190C13"/>
<path d="M86.1742 154.052C86.4052 153.635 86.7942 153.336 87.2002 153.179C87.6062 153.028 88.0292 153.019 88.4382 153.15C88.8342 153.315 89.1552 153.586 89.3682 153.967C89.5772 154.351 89.6842 154.827 89.5932 155.294C89.4992 155.775 89.2092 156.155 88.7792 156.37C88.3512 156.589 87.7802 156.655 87.2412 156.438C86.6892 156.255 86.2922 155.844 86.1072 155.398C85.9162 154.956 85.9372 154.48 86.1742 154.052Z" fill="#190C13"/>
<path d="M80.7881 147.899C81.6881 147.577 82.6741 147.944 83.0911 148.666C83.4941 149.398 83.3561 150.412 82.6031 151.049C81.8831 151.664 80.6431 151.451 80.0611 150.418C79.4741 149.392 79.8691 148.227 80.7881 147.899Z" fill="#190C13"/>
<path d="M80.609 139.726C81.506 140.058 82.027 140.974 81.883 141.794C81.721 142.614 80.965 143.303 79.981 143.307C79.033 143.314 78.218 142.356 78.436 141.19C78.645 140.025 79.694 139.385 80.609 139.726Z" fill="#190C13"/>
<path d="M85.7278 133.355C85.9778 133.769 86.0368 134.245 85.9598 134.66C85.8978 135.1 85.7008 135.483 85.3658 135.75C84.7278 136.292 83.6868 136.309 82.9418 135.691C82.1998 135.075 82.2138 133.839 83.1148 133.07C83.5638 132.706 84.1108 132.555 84.5808 132.605C85.0698 132.677 85.4788 132.941 85.7278 133.355Z" fill="#190C13"/>
<path d="M93.7434 131.761C93.6684 132.238 93.4074 132.642 93.0824 132.911C92.7524 133.199 92.3544 133.387 91.9254 133.359C91.4964 133.388 91.0994 133.2 90.7684 132.911C90.4434 132.642 90.1824 132.239 90.1074 131.761C90.0324 131.283 90.1754 130.819 90.5044 130.45C90.8314 130.101 91.3474 129.887 91.9254 129.859C92.5034 129.887 93.0194 130.102 93.3464 130.45C93.6744 130.819 93.8174 131.284 93.7434 131.761Z" fill="#190C13"/>
<path d="M100.907 135.691C100.162 136.309 99.1214 136.292 98.4834 135.75C98.1484 135.482 97.9524 135.1 97.8894 134.66C97.8134 134.245 97.8724 133.768 98.1214 133.355C98.3714 132.941 98.7794 132.677 99.2684 132.605C99.7374 132.555 100.284 132.706 100.733 133.07C101.635 133.839 101.65 135.076 100.907 135.691Z" fill="#190C13"/>
<path d="M103.871 143.307C102.887 143.303 102.131 142.614 101.969 141.794C101.824 140.974 102.346 140.058 103.243 139.726C104.158 139.385 105.207 140.025 105.417 141.19C105.634 142.356 104.818 143.314 103.871 143.307Z" fill="#190C13"/>
<path d="M4.86304 88.3179C3.35504 87.9589 3.31405 85.7169 4.83405 85.4159C4.95505 85.3919 5.08204 85.3789 5.21704 85.3789C6.65504 85.3789 10.03 85.3789 10.03 85.3789L10.592 85.9409L17.53 86.1289C17.53 86.1289 21.004 85.6719 21.0931 87.3579C21.156 88.5459 17.468 88.3159 17.468 88.3159L5.65503 88.4409C5.65503 88.4409 5.30304 88.4229 4.86304 88.3179Z" fill="#190C13"/>
<path opacity="0.55" d="M49.8823 41.6017L29.8123 74.3217C23.1023 73.0417 18.0923 72.1017 16.5923 71.8617C15.7723 71.7317 15.0123 71.5117 14.3223 71.2417L37.3823 33.0117C43.7123 34.5617 45.5123 37.4417 45.5123 37.4417C45.5123 37.4417 47.1923 39.0117 49.8823 41.6017Z" fill="#FCFCFC"/>
<path opacity="0.55" d="M28.1222 31.662L8.15222 65.802C8.00222 65.522 7.92221 65.362 7.92221 65.362L4.53223 42.992V42.982L11.9422 30.082H11.9522C16.1322 30.442 22.5722 31.042 28.1222 31.662Z" fill="#FCFCFC"/>
<path d="M146.872 117.252C146.782 117.342 146.682 117.432 146.592 117.522C143.532 115.982 139.282 113.392 135.092 109.192C130.192 104.282 127.432 99.2222 125.922 95.8622C128.622 95.3422 132.012 94.9322 135.922 95.0222C139.042 95.1022 141.802 95.4822 144.092 95.9422C145.006 98.4942 145.904 101.648 146.467 105.317C147.183 109.983 147.14 114.069 146.872 117.252Z" fill="#D6D7D8"/>
<path d="M141.009 105.608C141.009 108.83 141.438 111.441 141.967 111.441C142.496 111.441 142.925 108.829 142.925 105.608C142.925 102.386 142.496 99.7754 141.967 99.7754C141.438 99.7754 141.009 102.386 141.009 105.608Z" fill="#FCFCFC"/>
<path d="M137.009 103.442C137.009 106.664 137.438 109.275 137.967 109.275C138.496 109.275 138.925 106.663 138.925 103.442C138.925 100.221 138.496 97.6094 137.967 97.6094C137.438 97.6094 137.009 100.22 137.009 103.442Z" fill="#FCFCFC"/>
<path d="M133.342 146.316L141.717 133.816H149.092C147.595 134.431 145.992 135.207 144.342 136.191C139.063 139.339 135.546 143.282 133.342 146.316Z" fill="#EFEFEF"/>
<path d="M32.2168 16.7754C33.2982 16.7754 34.1748 14.313 34.1748 11.2754C34.1748 8.23782 33.2982 5.77539 32.2168 5.77539C31.1354 5.77539 30.2588 8.23782 30.2588 11.2754C30.2588 14.313 31.1354 16.7754 32.2168 16.7754Z" fill="white"/>
<path d="M24.4749 7.60938C24.4749 9.81838 23.837 11.6094 23.051 11.6094C22.264 11.6094 21.627 9.81838 21.627 7.60938C21.627 5.40037 22.265 3.60938 23.051 3.60938C23.837 3.60938 24.4749 5.40037 24.4749 7.60938Z" fill="white"/>
</svg>
