<svg width="550" height="112" viewBox="0 0 550 112" fill="none" xmlns="http://www.w3.org/2000/svg">
<g clip-path="url(#clip0_22409_34813)">
<rect width="550" height="112" fill="#1DD8DD"/>
<g opacity="0.3">
<mask id="mask0_22409_34813" style="mask-type:luminance" maskUnits="userSpaceOnUse" x="-23" y="-6" width="595" height="225">
<path d="M571.609 -5.73438H-22.1992V218.209H571.609V-5.73438Z" fill="white"/>
</mask>
<g mask="url(#mask0_22409_34813)">
<path d="M581.678 -11.5059H-32.3574V183.275H581.678V-11.5059Z" fill="url(#paint0_linear_22409_34813)"/>
<path d="M542.059 -2.99607L542.384 160.433L531.529 155.257L531.343 44.0818H475.21L474.328 15.9645L427.38 17.756L423.576 119.874L403.628 121.516V152.819H396.298L397.875 83.6949L335.201 80.9578L332.417 153.117L325.922 151.823L326.665 30.3466L266.542 32.7851L260.743 119.128L253.181 115.097V90.3634L238.011 88.6216V53.8855L182.898 44.3804L166.197 50.2029L156.919 98.7737L147.919 97.4301L148.801 8.59922L113.033 -9.11719L83.7599 2.03022L73.4147 126.543L63.6725 121.516V14.3222L11.2504 -6.03174L-23.775 9.24617L-32.3574 184.917V192.382H581.631V-5.53409L542.059 -2.99607Z" fill="url(#paint1_linear_22409_34813)"/>
<path d="M517.935 53.0391H524.105V65.2315H517.935V53.0391ZM507.683 65.2315H513.853V53.0391H507.683V65.2315ZM497.384 65.2315H503.554V53.0391H497.384V65.2315ZM487.131 65.2315H493.302V53.0391H487.131V65.2315ZM476.461 65.2315H482.632V53.0391H476.461V65.2315ZM517.935 80.9076H524.105V68.7151H517.935V80.9076ZM507.636 80.9076H513.806V68.7151H507.636V80.9076ZM497.384 80.9076H503.554V68.7151H497.384V80.9076ZM487.085 80.9076H493.255V68.7151H487.085V80.9076ZM476.461 80.9076H482.632V68.7151H476.461V80.9076ZM517.889 96.5836H524.059V84.3911H517.889V96.5836ZM507.636 96.5836H513.806V84.3911H507.636V96.5836ZM497.338 96.5836H503.508V84.3911H497.338V96.5836ZM487.085 96.5836H493.255V84.3911H487.085V96.5836ZM476.461 96.5836H482.632V84.3911H476.461V96.5836ZM517.889 112.309H524.059V100.117H517.889V112.309ZM507.636 112.309H513.806V100.117H507.636V112.309ZM497.338 112.309H503.508V100.117H497.338V112.309ZM487.085 112.309H493.255V100.117H487.085V112.309ZM476.415 112.309H482.585V100.117H476.415V112.309ZM517.842 128.334H524.013V116.141H517.842V128.334ZM507.544 128.334H513.714V116.141H507.544V128.334ZM497.291 128.334H503.461V116.141H497.291V128.334ZM486.992 128.334H493.162V116.141H486.992V128.334ZM476.369 128.334H482.539V116.141H476.369V128.334ZM517.796 144.01H523.966V131.817H517.796V144.01ZM507.544 144.01H513.714V131.817H507.544V144.01ZM497.245 144.01H503.415V131.817H497.245V144.01ZM486.992 144.01H493.162V131.817H486.992V144.01ZM476.322 144.01H482.492V131.817H476.322V144.01ZM517.796 159.686H523.966V147.493H517.796V159.686ZM507.497 159.686H513.667V147.493H507.497V159.686ZM497.245 159.686H503.415V147.493H497.245V159.686ZM486.946 159.686H493.116V147.493H486.946V159.686ZM476.322 159.686H482.492V147.493H476.322V159.686Z" fill="#27E0E3"/>
<path d="M234.02 59.21L185.588 49.4062V57.4682L234.02 63.7884V59.21Z" fill="#27E0E3"/>
<path d="M234.02 69.4596L185.588 60.4023V68.4643L234.02 74.038V69.4596Z" fill="#27E0E3"/>
<path d="M234.02 79.8147L185.588 71.5039V79.5659L234.02 84.3433V79.8147Z" fill="#27E0E3"/>
<path d="M234.02 90.1142L185.588 82.5996V90.6616L234.02 94.6428V90.1142Z" fill="#27E0E3"/>
<path d="M234.02 100.367L185.588 93.6484V101.71L234.02 104.945V100.367Z" fill="#27E0E3"/>
<path d="M234.02 110.665L185.588 104.693V112.755L234.02 115.244V110.665Z" fill="#27E0E3"/>
<path d="M438.003 23.0781L435.034 174.414H431.555L432.251 23.0781H438.003ZM442.549 23.0781L441.854 174.414H445.333L448.302 23.0781H442.549ZM452.848 23.0781L452.152 174.414H455.632L458.601 23.0781H452.848ZM463.147 23.0781L462.451 174.414H465.931L468.9 23.0781H463.147Z" fill="#27E0E3"/>
<path d="M383.309 93.4951H389.015L388.273 109.121H382.567L383.309 93.4951ZM373.057 109.072H378.763L379.505 93.4453H373.799L373.057 109.072ZM363.547 109.072H369.253L369.995 93.4453H364.289L363.547 109.072ZM354.036 109.072H359.743L360.485 93.4453H354.779L354.036 109.072ZM344.155 109.072H349.861L350.603 93.4453H344.897L344.155 109.072ZM381.593 129.177H387.299L388.041 113.55H382.335L381.593 129.177ZM372.083 129.177H377.789L378.531 113.55H372.825L372.083 129.177ZM362.572 129.177H368.279L369.021 113.55H363.315L362.572 129.177ZM353.062 129.177H358.768L359.511 113.55H353.804L353.062 129.177ZM343.181 129.177H348.887L349.629 113.55H343.923L343.181 129.177ZM380.619 149.282H386.325L387.067 133.656H381.361L380.619 149.282ZM371.108 149.282H376.815L377.557 133.656H371.851L371.108 149.282ZM361.598 149.282H367.304L368.047 133.656H362.34L361.598 149.282ZM352.088 149.282H357.794L358.536 133.656H352.83L352.088 149.282ZM342.207 149.282H347.913L348.655 133.656H342.949L342.207 149.282ZM379.644 169.387H385.351L386.093 153.761H380.387L379.644 169.387ZM370.134 169.387H375.84L376.583 153.761H370.876L370.134 169.387ZM360.624 169.387H366.33L367.072 153.761H361.366L360.624 169.387ZM351.114 169.387H356.82L357.562 153.761H351.856L351.114 169.387ZM341.232 169.387H346.939L347.681 153.761H341.975L341.232 169.387Z" fill="#27E0E3"/>
<path d="M314 39.1562H319.706L319.242 49.4079H313.536L314 39.1562ZM304.025 49.4079H309.732L310.196 39.1562H304.489L304.025 49.4079ZM294.515 49.4079H300.221L300.685 39.1562H294.979L294.515 49.4079ZM285.005 49.4079H290.711L291.175 39.1562H285.469L285.005 49.4079ZM275.17 49.4079H280.876L281.34 39.1562H275.634L275.17 49.4079ZM312.933 62.5956H318.639L319.103 52.344H313.397L312.933 62.5956ZM303.422 62.5956H309.129L309.592 52.344H303.886L303.422 62.5956ZM293.912 62.5956H299.618L300.082 52.344H294.376L293.912 62.5956ZM284.402 62.5956H290.108L290.572 52.344H284.866L284.402 62.5956ZM274.567 62.5956H280.273L280.737 52.344H275.031L274.567 62.5956ZM312.33 75.7337H318.036L318.5 65.482H312.793L312.33 75.7337ZM302.819 75.7337H308.525L308.989 65.482H303.283L302.819 75.7337ZM293.309 75.7337H299.015L299.479 65.482H293.773L293.309 75.7337ZM283.799 75.7337H289.505L289.969 65.482H284.263L283.799 75.7337ZM273.964 75.7337H279.67L280.134 65.482H274.428L273.964 75.7337ZM311.726 88.9214H317.433L317.896 78.6698H312.19L311.726 88.9214ZM302.216 88.9214H307.922L308.386 78.6698H302.68L302.216 88.9214ZM292.706 88.9214H298.412L298.876 78.6698H293.17L292.706 88.9214ZM283.196 88.9214H288.902L289.366 78.6698H283.66L283.196 88.9214ZM273.314 88.9214H279.067L279.531 78.6698H273.825L273.314 88.9214Z" fill="#27E0E3"/>
<path d="M311.402 91.8076H317.108L316.644 102.059H310.938L311.402 91.8076ZM301.428 102.009H307.134L307.598 91.7578H301.892L301.428 102.009ZM291.918 102.009H297.624L298.088 91.7578H292.382L291.918 102.009ZM282.407 102.009H288.114L288.577 91.7578H282.871L282.407 102.009ZM272.526 102.009H278.232L278.696 91.7578H272.99L272.526 102.009ZM310.289 115.197H315.995L316.459 104.946H310.752L310.289 115.197ZM300.778 115.197H306.484L306.948 104.946H301.242L300.778 115.197ZM291.268 115.197H296.974L297.438 104.946H291.732L291.268 115.197ZM281.758 115.197H287.464L287.928 104.946H282.222L281.758 115.197ZM271.923 115.197H277.675L278.139 104.946H272.433L271.923 115.197ZM309.685 128.385H315.392L315.856 118.133H310.149L309.685 128.385ZM300.175 128.385H305.881L306.345 118.133H300.639L300.175 128.385ZM290.665 128.385H296.371L296.835 118.133H291.129L290.665 128.385ZM281.155 128.385H286.861L287.325 118.133H281.619L281.155 128.385ZM271.32 128.385H277.026L277.49 118.133H271.784L271.32 128.385ZM309.082 141.573H314.789L315.252 131.321H309.546L309.082 141.573ZM299.572 141.573H305.278L305.742 131.321H300.036L299.572 141.573ZM290.062 141.573H295.768L296.232 131.321H290.526L290.062 141.573ZM280.552 141.573H286.258L286.722 131.321H281.016L280.552 141.573ZM270.717 141.573H276.423L276.887 131.321H271.181L270.717 141.573Z" fill="#27E0E3"/>
<path d="M145.693 12.3804L141.935 169.39H137.203L141.471 10.5391L145.693 12.3804Z" fill="#27E0E3"/>
<path d="M136.506 7.55303L131.311 169.389H126.068L132.053 5.46289L136.506 7.55303Z" fill="#27E0E3"/>
<path d="M127.274 2.72662L120.686 169.39H114.934L122.681 0.337891L127.274 2.72662Z" fill="#27E0E3"/>
<path d="M118.089 -2.15049L110.017 169.39H103.801L113.265 -4.73828L118.089 -2.15049Z" fill="#27E0E3"/>
<path d="M53.605 16.5621C55.8318 17.4578 56.9452 17.9057 59.2183 18.8513C58.94 25.2212 58.8008 28.3564 58.4761 34.7263C56.2493 33.9799 55.1359 33.5817 52.9091 32.8353C53.1875 26.316 53.3266 23.0315 53.605 16.5621ZM43.6773 29.6503C45.904 30.3968 47.0174 30.7949 49.2442 31.5414C49.5226 24.9226 49.6617 21.5883 49.8937 15.0193C47.6669 14.1236 46.5535 13.6757 44.2803 12.7301C44.0484 19.4982 43.9092 22.8822 43.6773 29.6503ZM34.399 26.5151C36.6258 27.2616 37.7392 27.6597 39.966 28.4062C40.1979 21.5386 40.3371 18.1048 40.569 11.2372C38.3423 10.3414 37.2289 9.89351 34.9557 8.94798C34.7701 15.9649 34.631 19.4982 34.399 26.5151ZM25.1671 23.3799C27.3939 24.1264 28.5073 24.5245 30.7341 25.271C30.9661 18.1545 31.0588 14.5714 31.2908 7.45502C29.064 6.55925 27.9506 6.11136 25.6774 5.16583C25.4919 12.4315 25.3991 16.0644 25.1671 23.3799ZM15.6105 20.0954C17.8373 20.8419 18.9507 21.24 21.1775 21.9865C21.3631 14.5714 21.4558 10.8888 21.6878 3.52357C19.461 2.6278 18.3476 2.17991 16.0744 1.23438C15.8889 8.79868 15.7961 12.5808 15.6105 20.0954ZM52.0277 53.8859C54.2545 54.4334 55.3215 54.732 57.5482 55.2794C57.8266 48.8597 57.9658 45.6747 58.2441 39.3047C56.0173 38.608 54.9039 38.2099 52.6772 37.5132C52.4452 44.0324 52.306 47.3169 52.0277 53.8859ZM42.8422 51.547C45.069 52.0944 46.136 52.393 48.3628 52.9404C48.6411 46.2719 48.7803 42.9376 49.0123 36.3188C46.7855 35.6221 45.6721 35.224 43.4453 34.5273C43.2133 41.3451 43.0742 44.7292 42.8422 51.547ZM33.6567 49.208C35.8835 49.7554 36.9505 50.054 39.1773 50.6014C39.4093 43.6841 39.5484 40.2503 39.7804 33.3329C37.5536 32.6362 36.4402 32.2381 34.2134 31.5414C34.0279 38.608 33.8887 42.1414 33.6567 49.208ZM24.5177 46.8691C26.7444 47.4165 27.8114 47.7151 30.0382 48.2625C30.2702 41.0963 30.363 37.5132 30.5949 30.3968C28.3681 29.7001 27.2547 29.3019 25.028 28.6052C24.796 35.9207 24.7032 39.5536 24.5177 46.8691ZM15.0074 44.4803C17.2342 45.0277 18.3012 45.3263 20.528 45.8738C20.7136 38.4587 20.8063 34.7263 21.0383 27.3113C18.8115 26.6146 17.6981 26.2165 15.4714 25.5198C15.2858 33.0841 15.193 36.8663 15.0074 44.4803ZM51.1463 75.0362C53.3266 75.3845 54.44 75.5836 56.6204 75.9319C56.8988 69.5122 57.0379 66.2775 57.3163 59.8578C55.0895 59.3601 54.0225 59.0615 51.7957 58.5639C51.5638 65.1827 51.4246 68.4672 51.1463 75.0362ZM42.0536 73.5432C44.234 73.8916 45.3473 74.0906 47.5277 74.439C47.8061 67.7704 47.8989 64.3864 48.1772 57.7179C45.9504 57.2202 44.8834 56.9216 42.6566 56.424C42.4247 63.2916 42.2855 66.6756 42.0536 73.5432ZM32.9609 72.0005C35.1413 72.3488 36.2546 72.5479 38.435 72.8963C38.667 65.9291 38.8062 62.4953 39.0381 55.578C36.8113 55.0803 35.7444 54.7817 33.5176 54.2841C33.2856 61.3507 33.1464 64.9338 32.9609 72.0005ZM23.8218 70.5075C26.0022 70.8559 27.1156 71.0549 29.296 71.4033C29.5279 64.1873 29.6207 60.6043 29.8526 53.4381C27.6259 52.9404 26.5589 52.6418 24.3321 52.1442C24.1465 59.4596 24.0537 63.1423 23.8218 70.5075ZM14.4044 68.915C16.5847 69.2634 17.6981 69.4624 19.8785 69.8108C20.0641 62.346 20.1569 58.6136 20.3888 51.1986C18.162 50.701 17.0951 50.4024 14.8683 49.9047C14.6827 57.5188 14.5899 61.301 14.4044 68.915ZM50.2648 96.3357C52.4452 96.485 53.5122 96.5845 55.6926 96.7338C55.9709 90.2643 56.1101 87.0296 56.3885 80.6099C54.2081 80.3113 53.0947 80.1122 50.9143 79.8136C50.6823 86.3826 50.5432 89.6671 50.2648 96.3357ZM41.2649 95.5892C43.4453 95.7385 44.5123 95.838 46.6927 96.0371C46.971 89.3188 47.0638 85.9347 47.3422 79.2662C45.1618 78.9676 44.0484 78.7686 41.868 78.47C41.636 85.2878 41.4969 88.7216 41.2649 95.5892ZM32.2186 94.8925C34.399 95.0418 35.466 95.1413 37.6464 95.2906C37.8783 88.3235 38.0175 84.8399 38.2495 77.8728C36.0691 77.5742 34.9557 77.3751 32.7753 77.0765C32.5434 84.2427 32.4506 87.7761 32.2186 94.8925ZM23.1723 94.1958C25.3527 94.3451 26.4197 94.4446 28.6001 94.5939C28.832 87.3779 28.9248 83.7451 29.1568 76.5291C26.9764 76.2305 25.863 76.0315 23.6826 75.7329C23.497 83.1479 23.4043 86.8305 23.1723 94.1958ZM13.8477 93.499C16.028 93.6483 17.0951 93.7479 19.2754 93.8972C19.461 86.3826 19.5538 82.6502 19.7394 75.1855C17.559 74.8869 16.4456 74.6878 14.2652 74.3892C14.0796 82.0033 13.9868 85.8352 13.8477 93.499Z" fill="#27E0E3"/>
</g>
</g>
<g opacity="0.8">
<path fill-rule="evenodd" clip-rule="evenodd" d="M298.286 22.8887H287.93C287.93 29.9994 292.561 32.3802 297.989 34.2069L298.286 22.8887Z" fill="#C3C3C3"/>
<path d="M481.867 36.8672H439.434V99.2013H481.867V36.8672Z" fill="#4F5253"/>
<path fill-rule="evenodd" clip-rule="evenodd" d="M560.711 127.583L305.102 127.746V88.3528L560.711 88.1895L566.421 127.566L560.711 127.583Z" fill="#1B2023"/>
<path fill-rule="evenodd" clip-rule="evenodd" d="M516.844 127.69L479.891 127.746V99.2012V36.8663C484.62 36.809 506.019 37.0993 510.57 38.0041C518.065 38.6186 541.88 75.5857 543.51 76.2521C546.672 77.5454 568.935 82.5215 569.04 90.8722V127.557L559.24 127.586C559.297 126.953 559.327 126.313 559.327 125.665C559.327 113.907 549.796 104.375 538.037 104.375C526.28 104.375 516.748 113.907 516.748 125.665C516.748 126.348 516.781 127.023 516.844 127.69Z" fill="white"/>
<path fill-rule="evenodd" clip-rule="evenodd" d="M488.914 81.0898L497.262 81.1123C498.382 81.1154 499.295 82.0333 499.292 83.1533V83.1541C499.289 84.2733 498.371 85.1874 497.251 85.1843L488.903 85.1619C487.783 85.1588 486.87 84.2408 486.873 83.1208V83.12C486.876 82.0008 487.794 81.0875 488.914 81.0898Z" fill="#EEEEEF"/>
<path fill-rule="evenodd" clip-rule="evenodd" d="M538.587 76.2528C531.709 64.8502 517.128 44.1465 514.196 43.9615L485.217 43.4824L485.16 76.365L538.587 76.2528Z" fill="#485157"/>
<path fill-rule="evenodd" clip-rule="evenodd" d="M536.667 75.1762C534.172 71.0965 516.937 46.0243 514.231 45.6652L486.02 45.1992L485.998 75.2831L536.667 75.1762Z" fill="#80CEF3"/>
<path fill-rule="evenodd" clip-rule="evenodd" d="M296.511 99.2005V20.2285H479.89V99.2005V127.746H355.485C355.552 127.061 355.586 126.368 355.586 125.667C355.586 113.909 346.054 104.377 334.296 104.377C322.539 104.377 313.007 113.909 313.007 125.667C313.007 126.368 313.042 127.061 313.108 127.746H296.51L296.511 99.2005Z" fill="white"/>
<path fill-rule="evenodd" clip-rule="evenodd" d="M432.765 31.3574H465.836C466.684 31.3574 467.456 31.7042 468.014 32.2638C468.573 32.8234 468.921 33.595 468.921 34.4426V117.048C468.921 118.744 467.532 120.132 465.836 120.132H432.765C431.917 120.132 431.146 119.785 430.587 119.226C430.026 118.665 429.68 117.894 429.68 117.047V34.4418C429.68 33.5943 430.026 32.8234 430.586 32.2638C431.146 31.7042 431.917 31.3574 432.765 31.3574ZM465.836 31.8427H432.765C432.05 31.8427 431.4 32.1345 430.93 32.6059C430.458 33.0772 430.166 33.7266 430.166 34.4418V117.047C430.166 117.762 430.458 118.412 430.928 118.882C431.4 119.353 432.05 119.646 432.765 119.646H465.836C467.265 119.646 468.435 118.477 468.435 117.047V34.4418C468.435 33.7266 468.142 33.0765 467.672 32.6067C467.2 32.1353 466.55 31.8427 465.836 31.8427Z" fill="#8C9798"/>
<path d="M300.29 99.2012H296.512V114.254H300.29V99.2012Z" fill="#EE7C00"/>
<path d="M429.681 59.7148H296.512V85.0842H429.681V59.7148Z" fill="#E50013"/>
<path d="M468.435 59.7148H430.166V85.085H468.435V59.7148Z" fill="#E50013"/>
<path fill-rule="evenodd" clip-rule="evenodd" d="M430.998 77.5961V69.2485C430.998 68.1285 431.914 67.2129 433.034 67.2129H433.034C434.154 67.2129 435.07 68.1285 435.07 69.2485V77.5961C435.07 78.7161 434.154 79.6317 433.034 79.6317H433.034C431.914 79.6317 430.998 78.7161 430.998 77.5961Z" fill="#CE131C"/>
<path d="M479.891 59.7148H468.92V85.0842H479.891V59.7148Z" fill="#E50013"/>
<path d="M426.024 34.9785H389.629V53.3804H426.024V34.9785Z" fill="#485157"/>
<path d="M384.549 34.9785H348.154V53.3804H384.549V34.9785Z" fill="#485157"/>
<path d="M343.075 34.9785H306.68V53.3804H343.075V34.9785Z" fill="#485157"/>
<path d="M467.499 34.9785H431.104V53.3804H467.499V34.9785Z" fill="#485157"/>
<path d="M466.346 36.1309H432.254V52.23H466.346V36.1309Z" fill="#80CEF3"/>
<path d="M341.924 36.1309H307.832V52.23H341.924V36.1309Z" fill="#80CEF3"/>
<path d="M383.399 36.1309H349.307V52.23H383.399V36.1309Z" fill="#80CEF3"/>
<path d="M424.874 36.1309H390.781V52.23H424.874V36.1309Z" fill="#80CEF3"/>
<path fill-rule="evenodd" clip-rule="evenodd" d="M450.099 82.3482C455.837 82.3482 460.516 77.6686 460.516 71.9309C460.516 66.1933 455.837 61.5137 450.099 61.5137C444.361 61.5137 439.682 66.1933 439.682 71.9309C439.682 77.6686 444.362 82.3482 450.099 82.3482Z" fill="white"/>
<path fill-rule="evenodd" clip-rule="evenodd" d="M442.051 74.6255V69.2346H447.405V63.8809H452.795V69.2346H458.149V74.6255H452.795V79.9793H447.405V74.6255H442.051Z" fill="#E50013"/>
<path fill-rule="evenodd" clip-rule="evenodd" d="M313.685 76.7874L313.084 80.5428H310.52L313.292 64.2378H316.675L319.408 80.5428H316.825L316.251 76.7874H313.685ZM314.968 67.9754L314.057 74.3872H315.88L314.968 67.9754ZM323.929 80.5428H321.474V64.2192H325.006L327.3 75.9716L329.51 64.2192H332.887V80.5428H330.432V70.2897L328.292 80.5428H326.314L323.929 70.3175V80.5428ZM335.083 80.5428V64.2192H338.763C339.734 64.2192 340.61 64.4754 341.389 64.9885C342.058 65.422 342.534 66.0938 342.818 67.004C342.973 67.4893 343.053 68.0667 343.053 68.7355C343.053 69.8284 342.763 70.7045 342.186 71.364C341.942 71.6418 341.658 71.8555 341.328 72.0025C341.874 72.2131 342.336 72.6256 342.717 73.2394C342.968 73.6573 343.154 74.1953 343.273 74.8547C343.334 75.1937 343.364 75.5691 343.364 75.9878C343.364 77.0196 343.169 77.8965 342.778 78.6163C342.476 79.1814 342.048 79.6334 341.493 79.9693C340.87 80.3509 340.25 80.5436 339.634 80.5436H335.083V80.5428ZM337.74 78.1063H338.763C339.59 78.1063 340.165 77.6791 340.485 76.8207C340.598 76.5273 340.653 76.1883 340.653 75.8067C340.653 74.8996 340.479 74.2371 340.134 73.8222C339.825 73.4406 339.367 73.251 338.763 73.251H337.74V78.1063ZM337.74 70.888H338.763C339.523 70.888 340.033 70.5126 340.29 69.7641C340.384 69.4863 340.434 69.1441 340.434 68.7355C340.434 68.0543 340.269 67.542 339.942 67.1937C339.64 66.8732 339.246 66.7115 338.764 66.7115H337.74L337.74 70.888ZM349.363 80.7263C348.279 80.7263 347.36 80.3478 346.607 79.5932C345.852 78.8385 345.476 77.9228 345.476 76.8478V64.237H347.877V76.8261C347.877 77.217 348.014 77.5498 348.292 77.8246C348.57 78.0962 348.903 78.234 349.294 78.234C349.685 78.234 350.014 78.097 350.289 77.8246C350.561 77.5498 350.699 77.217 350.699 76.8261V64.237H353.264V76.8478C353.264 77.9406 352.882 78.8602 352.119 79.6048C351.358 80.354 350.439 80.7263 349.363 80.7263ZM362.161 80.5428H355.459V64.2378H357.914V78.0877H362.162L362.161 80.5428ZM367.018 76.7874L366.417 80.5428H363.852L366.624 64.2378H370.008L372.741 80.5428H370.157L369.583 76.7874H367.018ZM368.301 67.9754L367.391 74.3872H369.214L368.301 67.9754ZM377.571 64.22L380.835 75.1759V64.22H383.29V80.5436H380.649L377.263 70.0954V80.5436H374.808V64.22H377.571ZM389.348 80.7448C388.264 80.7448 387.344 80.3664 386.587 79.6063C385.827 78.8493 385.449 77.9298 385.449 76.8555V67.9584C385.449 66.874 385.831 65.9522 386.594 65.1952C387.354 64.4351 388.273 64.0566 389.348 64.0566C390.431 64.0566 391.351 64.4382 392.105 65.2014C392.858 65.9646 393.235 66.8841 393.235 67.9615V69.8245H390.688V67.9096C390.688 67.5218 390.55 67.1859 390.272 66.9081C389.995 66.6302 389.662 66.4932 389.271 66.4932C388.88 66.4932 388.55 66.631 388.276 66.9081C388.004 67.1859 387.866 67.5187 387.866 67.9096V76.8315C387.866 77.2224 388.004 77.5521 388.276 77.8269C388.55 78.0985 388.88 78.2363 389.271 78.2363C389.662 78.2363 389.995 78.0993 390.272 77.8269C390.55 77.5552 390.688 77.2224 390.688 76.8315V74.5846H393.235V76.8594C393.235 77.943 392.853 78.8625 392.09 79.6164C391.33 80.3687 390.413 80.7448 389.348 80.7448ZM395.262 80.5428V64.2192H402.264V66.6921H397.718V71.1442H401.033V73.6171H397.718V78.0691H402.264V80.5421H395.262V80.5428Z" fill="white"/>
<path fill-rule="evenodd" clip-rule="evenodd" d="M363.534 93.2051H418.988C419.434 93.2051 419.84 93.3877 420.134 93.6819C420.428 93.976 420.611 94.3815 420.611 94.8281V117.646C420.611 118.093 420.428 118.499 420.134 118.793C419.84 119.087 419.434 119.27 418.988 119.27H363.534C363.088 119.27 362.682 119.087 362.388 118.793C362.094 118.499 361.912 118.093 361.912 117.646V94.8281C361.912 94.3823 362.095 93.976 362.388 93.6819C362.682 93.3877 363.088 93.2051 363.534 93.2051ZM418.988 93.4806H363.534C363.164 93.4806 362.827 93.6323 362.583 93.8761C362.339 94.1199 362.188 94.4574 362.188 94.8274V117.646C362.188 118.016 362.339 118.353 362.583 118.597C362.828 118.841 363.164 118.992 363.534 118.992H418.988C419.358 118.992 419.695 118.841 419.939 118.597C420.183 118.353 420.334 118.016 420.334 117.646V94.8274C420.334 94.4574 420.183 94.1199 419.939 93.8761C419.695 93.6323 419.358 93.4806 418.988 93.4806Z" fill="#8C9798"/>
<path fill-rule="evenodd" clip-rule="evenodd" d="M386.233 97.7852H396.287C396.868 97.7852 397.343 98.2604 397.343 98.8417C397.343 99.4229 396.867 99.8982 396.287 99.8982H386.233C385.652 99.8982 385.178 99.4229 385.178 98.8417C385.178 98.2604 385.652 97.7852 386.233 97.7852Z" fill="#595857"/>
<path fill-rule="evenodd" clip-rule="evenodd" d="M391.26 104.505C392.132 104.505 392.845 103.793 392.845 102.92C392.845 102.048 392.132 101.336 391.26 101.336C390.387 101.336 389.676 102.047 389.676 102.92C389.676 103.793 390.387 104.505 391.26 104.505Z" fill="#3E3A39"/>
<path fill-rule="evenodd" clip-rule="evenodd" d="M537.863 101.043C524.088 101.043 512.922 112.554 512.922 126.754C512.922 127.364 512.944 127.969 512.985 128.568H517.622C516.896 120.3 520.963 112.011 528.544 107.925C538.575 102.517 550.964 106.52 556.209 116.86C558.106 120.599 558.81 124.656 558.461 128.567H562.742C562.783 127.967 562.805 127.363 562.805 126.753C562.805 112.554 551.638 101.043 537.863 101.043Z" fill="#DBDCDC"/>
<path d="M508.487 106.528C514.24 106.448 518.838 101.719 518.758 95.9663C518.677 90.2136 513.948 85.6154 508.196 85.696C502.443 85.7765 497.845 90.5053 497.925 96.258C498.006 102.011 502.734 106.609 508.487 106.528Z" fill="white"/>
<path fill-rule="evenodd" clip-rule="evenodd" d="M312.329 24.4238H322.236C323.197 24.4238 323.984 25.2102 323.984 26.1723V26.9734C323.984 27.9355 323.198 28.7219 322.236 28.7219H312.329C311.367 28.7219 310.58 27.9355 310.58 26.9734V26.1723C310.58 25.2102 311.366 24.4238 312.329 24.4238Z" fill="#E50728"/>
<path fill-rule="evenodd" clip-rule="evenodd" d="M327.666 24.4238H337.574C338.536 24.4238 339.322 25.2102 339.322 26.1723V26.9734C339.322 27.9355 338.536 28.7219 337.574 28.7219H327.666C326.705 28.7219 325.918 27.9355 325.918 26.9734V26.1723C325.918 25.2102 326.704 24.4238 327.666 24.4238Z" fill="#80CEF3"/>
<path fill-rule="evenodd" clip-rule="evenodd" d="M436.247 24.4238H446.154C447.115 24.4238 447.902 25.2102 447.902 26.1723V26.9734C447.902 27.9355 447.115 28.7219 446.154 28.7219H436.247C435.285 28.7219 434.498 27.9355 434.498 26.9734V26.1723C434.498 25.2102 435.284 24.4238 436.247 24.4238Z" fill="#E50728"/>
<path fill-rule="evenodd" clip-rule="evenodd" d="M451.584 24.4238H461.492C462.453 24.4238 463.24 25.2102 463.24 26.1723V26.9734C463.24 27.9355 462.453 28.7219 461.492 28.7219H451.584C450.623 28.7219 449.836 27.9355 449.836 26.9734V26.1723C449.837 25.2102 450.623 24.4238 451.584 24.4238Z" fill="#80CEF3"/>
<path fill-rule="evenodd" clip-rule="evenodd" d="M330.001 137.861C335.586 140.498 342.253 138.108 344.891 132.523C347.529 126.936 345.139 120.271 339.553 117.633C333.966 114.994 327.301 117.382 324.662 122.97C322.024 128.555 324.412 135.221 330.001 137.861ZM351.569 135.677C347.189 144.951 336.119 148.919 326.846 144.539C317.57 140.159 313.602 129.089 317.982 119.815C322.361 110.542 333.433 106.572 342.708 110.952C351.982 115.333 355.948 126.405 351.569 135.677Z" fill="#343436"/>
<path fill-rule="evenodd" clip-rule="evenodd" d="M533.553 137.861C539.139 140.498 545.806 138.108 548.444 132.523C551.082 126.936 548.691 120.271 543.107 117.633C537.519 114.994 530.854 117.382 528.215 122.97C525.577 128.555 527.965 135.221 533.553 137.861ZM555.122 135.677C550.742 144.951 539.672 148.919 530.399 144.539C521.123 140.159 517.155 129.089 521.535 119.815C525.914 110.542 536.985 106.572 546.261 110.952C555.534 115.333 559.501 126.405 555.122 135.677Z" fill="#343436"/>
<path d="M481.416 18.6387H295.512V22.1356H481.416V18.6387Z" fill="#8AA1C1"/>
<path fill-rule="evenodd" clip-rule="evenodd" d="M322.236 28.7217C323.197 28.7217 323.984 27.9353 323.984 26.9732V26.5723H310.58V26.9732C310.58 27.9345 311.366 28.7217 312.329 28.7217H322.236Z" fill="#C6171F"/>
<path fill-rule="evenodd" clip-rule="evenodd" d="M325.918 26.9732C325.918 27.9345 326.705 28.7217 327.666 28.7217H337.574C338.536 28.7217 339.322 27.9353 339.322 26.9732V26.5723H325.918V26.9732Z" fill="#61B6DB"/>
<path fill-rule="evenodd" clip-rule="evenodd" d="M434.498 26.9732C434.498 27.9345 435.284 28.7217 436.247 28.7217H446.154C447.115 28.7217 447.902 27.9353 447.902 26.9732V26.5723H434.498V26.9732Z" fill="#C6171F"/>
<path fill-rule="evenodd" clip-rule="evenodd" d="M449.836 26.9732C449.836 27.9345 450.622 28.7217 451.584 28.7217H461.492C462.453 28.7217 463.24 27.9353 463.24 26.9732V26.5723H449.836V26.9732Z" fill="#61B6DB"/>
<path fill-rule="evenodd" clip-rule="evenodd" d="M325.987 52.23L335.706 36.1309H324.051L314.332 52.23H325.987Z" fill="#B7E1F8"/>
<path fill-rule="evenodd" clip-rule="evenodd" d="M360.608 36.1309L350.889 52.23H362.544L372.263 36.1309H360.608Z" fill="#B7E1F8"/>
<path fill-rule="evenodd" clip-rule="evenodd" d="M402.217 36.1309L392.498 52.23H404.153L413.872 36.1309H402.217Z" fill="#B7E1F8"/>
<path fill-rule="evenodd" clip-rule="evenodd" d="M420.965 36.1309L411.246 52.23H422.902L424.872 48.9653V36.1309H420.965Z" fill="#B7E1F8"/>
<path fill-rule="evenodd" clip-rule="evenodd" d="M432.254 36.7377V52.23H433.777L439.434 42.86L443.052 36.8669L443.496 36.1309H432.621L432.254 36.7377Z" fill="#B7E1F8"/>
<path fill-rule="evenodd" clip-rule="evenodd" d="M454.706 36.8669L445.432 52.23H452.347L461.622 36.8669L462.066 36.1309H455.15L454.706 36.8669Z" fill="#B7E1F8"/>
<path d="M300.29 106.729H296.512V114.255H300.29V106.729Z" fill="#E50013"/>
<path fill-rule="evenodd" clip-rule="evenodd" d="M487.381 33.8125L501.973 34.15L501.881 37.3156L487.289 36.9782L487.381 33.8125Z" fill="#8AA1C1"/>
<path fill-rule="evenodd" clip-rule="evenodd" d="M495.005 27.3945C498.72 27.4804 501.645 30.4997 501.539 34.1383L488.088 33.8279C488.194 30.1886 491.29 27.3085 495.005 27.3945Z" fill="#E50728"/>
<path fill-rule="evenodd" clip-rule="evenodd" d="M500.94 31.2285C498.766 32.0281 495.879 32.5157 492.711 32.5157C491.174 32.5157 489.702 32.4011 488.346 32.1914C488.194 32.713 488.105 33.2618 488.088 33.8299L501.539 34.1395C501.569 33.1008 501.352 32.1124 500.94 31.2285Z" fill="#C6171F"/>
<path fill-rule="evenodd" clip-rule="evenodd" d="M333.758 100.996C319.983 100.996 308.816 112.507 308.816 126.707C308.816 127.317 308.838 127.922 308.879 128.522H313.516C312.79 120.254 316.857 111.964 324.438 107.879C334.469 102.471 346.859 106.474 352.104 116.814C354.001 120.554 354.705 124.61 354.355 128.522H358.636C358.677 127.922 358.699 127.318 358.699 126.707C358.699 112.507 347.533 100.996 333.758 100.996Z" fill="#DBDCDC"/>
<path fill-rule="evenodd" clip-rule="evenodd" d="M488.763 81.541H497.239C497.787 81.541 498.236 81.9899 498.236 82.5379C498.236 83.0867 497.787 83.5348 497.239 83.5348H488.763C488.215 83.5348 487.766 83.0859 487.766 82.5379C487.766 81.9892 488.214 81.541 488.763 81.541Z" fill="#8C9798"/>
<path fill-rule="evenodd" clip-rule="evenodd" d="M432.018 77.723V69.2469C432.018 68.6989 432.466 68.25 433.014 68.25H433.015C433.563 68.25 434.012 68.6989 434.012 69.2469V77.723C434.012 78.2718 433.563 78.7199 433.015 78.7199H433.014C432.466 78.7199 432.018 78.2718 432.018 77.723Z" fill="#8C9798"/>
<path fill-rule="evenodd" clip-rule="evenodd" d="M525.672 76.4122H538.78C538.78 76.4122 536.546 71.5082 532.092 65.498C529.378 65.498 525.672 72.7295 525.672 76.4122Z" fill="#717171"/>
<path fill-rule="evenodd" clip-rule="evenodd" d="M528.804 64.5879L531.71 64.8503C534.412 65.0941 533.941 79.0346 529.946 78.5594L527.361 78.3264L528.804 64.5879Z" fill="#4F5253"/>
<path fill-rule="evenodd" clip-rule="evenodd" d="M528.804 64.5879L531.147 64.7992L529.704 78.5377L527.361 78.3264L528.804 64.5879Z" fill="#8D8F94"/>
<path fill-rule="evenodd" clip-rule="evenodd" d="M485.161 76.1953H538.758V99.2381L538.573 99.2226C526.84 98.2388 511.396 109.264 511.396 121.741V121.911H484.99V76.1953H485.161ZM538.417 76.5359H485.331V121.57H511.057C511.183 109.035 526.593 97.9888 538.418 98.8689L538.417 76.5359Z" fill="#8C9798"/>
<path fill-rule="evenodd" clip-rule="evenodd" d="M502.229 95.2232V89.833H507.582V84.4785H512.973V89.833H518.328V95.2232H512.973V100.578H507.582V95.2232H502.229Z" fill="#E50013"/>
<path d="M399.594 110.238H382.926V110.914H399.594V110.238Z" fill="#595857"/>
<path fill-rule="evenodd" clip-rule="evenodd" d="M514.23 45.6639L503.376 45.4844L487.672 75.278L501.619 75.2485L516.136 47.1369C515.27 46.2468 514.609 45.7142 514.23 45.6639Z" fill="#B7E1F8"/>
</g>
<path d="M187.553 90.6275L188.332 154.005H178.444L173.32 102.036L169.429 154.005H158.686L159.782 90.4844L187.553 90.6275Z" fill="#43A87C"/>
<path d="M196.913 61.1975C196.913 61.1975 193.749 57.0566 190.318 52.6664C186.763 48.119 181.878 47.2285 177.815 47.2285C177.766 47.4294 177.718 47.6583 177.67 47.8995H169.522C169.475 47.6583 169.427 47.4294 169.377 47.2285C165.315 47.2285 160.429 48.119 156.874 52.6664C153.443 57.0566 150.279 61.1975 150.279 61.1975L157.251 65.5857C157.251 65.5857 158.389 63.9584 161.15 61.0927C160.493 73.5476 159.381 92.953 159.381 92.953L171.767 92.7507H175.425L187.811 92.953C187.811 92.953 186.699 73.5476 186.043 61.0927C188.804 63.9584 189.941 65.5857 189.941 65.5857L196.913 61.1975Z" fill="#5AE2A7"/>
<path d="M169.334 48.0265C169.334 48.0265 169.648 54.0663 173.394 54.0663C177.467 54.0663 177.816 48.0265 177.816 48.0265V39.8457H169.334L169.334 48.0265Z" fill="#F8A486"/>
<path d="M177.816 45.9797C176.711 47.5914 172.182 49.1292 169.333 48.0274C169.322 47.1071 169.333 44.0879 169.333 44.0879H177.815V45.9797H177.816Z" fill="#D98364"/>
<path d="M166.956 37.6537C166.956 39.3118 167.255 40.3662 166.143 40.5567C164.541 40.8316 161.826 39.0554 162.108 35.9458C162.301 33.8246 164.141 33.4616 165.203 33.8531C166.498 34.3312 166.956 35.9955 166.956 37.6537Z" fill="#D98364"/>
<path d="M168.474 27.8027H176.814C179.458 27.8027 181.602 30.1329 181.602 33.007V37.5389C181.602 40.2273 178.676 46.949 171.959 46.949C165.323 46.949 163.686 40.5817 163.686 37.5389V33.007C163.686 30.1329 165.829 27.8027 168.474 27.8027Z" fill="#F8A486"/>
<path d="M180.189 37.6244C180.189 39.2825 179.89 40.3369 181.002 40.5274C182.604 40.8023 185.319 39.0262 185.037 35.9165C184.844 33.7953 183.004 33.4323 181.942 33.8238C180.647 34.3019 180.189 35.9662 180.189 37.6244Z" fill="#F8A486"/>
<path d="M180.957 35.4262C180.677 36.7285 180.464 38.3288 180.464 38.3288C180.464 38.3288 180.26 36.3839 179.071 35.1646C177.881 33.9453 177.387 31.1877 175.268 30.4911C173.149 29.7945 171.545 31.6545 167.864 30.6963C165.609 30.1091 164.328 30.2205 164.169 31.2943C164.012 32.3682 163.686 33.8173 163.686 33.8173L163.104 34.0865C163.104 34.0865 161.01 27.6946 165.389 23.8632C167.943 21.6279 176.82 20.0024 181.877 24.6759C185.713 28.2216 183.881 33.9619 183.881 33.9619C183.881 33.9619 181.451 33.133 180.957 35.4262Z" fill="#1A1009"/>
<path d="M174.18 36.6337C174.18 37.444 174.613 38.1013 175.146 38.1013C175.681 38.1013 176.113 37.444 176.113 36.6337C176.113 35.8233 175.681 35.166 175.146 35.166C174.612 35.166 174.18 35.8228 174.18 36.6337Z" fill="#1A1009"/>
<path d="M166.197 36.6337C166.197 37.444 166.63 38.1013 167.164 38.1013C167.698 38.1013 168.131 37.444 168.131 36.6337C168.131 35.8233 167.698 35.166 167.164 35.166C166.63 35.166 166.197 35.8228 166.197 36.6337Z" fill="#1A1009"/>
<path d="M174.455 40.9961V41.8008C174.455 43.1272 173.366 44.0863 172.04 44.0863H170.472C169.146 44.0863 168.148 43.1272 168.148 41.8008V40.9961H174.455Z" fill="#2E1707"/>
<path d="M168.867 43.4894C169.304 43.0885 169.904 42.8516 170.563 42.8516H172.13C172.766 42.8516 173.325 43.0738 173.736 43.4496C173.299 43.8505 172.699 44.0875 172.04 44.0875H170.473C169.837 44.0875 169.279 43.8652 168.867 43.4894Z" fill="#EB6B46"/>
<path d="M174.3 40.9961V41.5785C174.3 41.7581 174.116 41.923 173.936 41.923H168.667C168.487 41.923 168.303 41.7581 168.303 41.5785V40.9961H174.3Z" fill="white"/>
<path d="M173.779 34.8433C173.882 34.8433 173.983 34.7935 174.044 34.7016C174.062 34.675 174.452 34.1135 175.129 34.1135C175.815 34.1135 176.251 34.7044 176.255 34.7106C176.358 34.8523 176.557 34.8855 176.699 34.7836C176.842 34.6812 176.875 34.4841 176.774 34.3409C176.749 34.3059 176.149 33.4766 175.129 33.4766C174.102 33.4766 173.537 34.3144 173.514 34.3499C173.417 34.4969 173.457 34.6945 173.604 34.7911C173.657 34.8262 173.718 34.8433 173.779 34.8433Z" fill="#1A1009"/>
<path d="M165.796 34.8433C165.899 34.8433 166 34.7935 166.062 34.7016C166.08 34.675 166.469 34.1135 167.147 34.1135C167.832 34.1135 168.268 34.7044 168.273 34.7106C168.375 34.8523 168.574 34.8855 168.717 34.7836C168.859 34.6812 168.893 34.4841 168.791 34.3409C168.766 34.3059 168.167 33.4766 167.147 33.4766C166.12 33.4766 165.554 34.3144 165.531 34.3499C165.434 34.4969 165.475 34.6945 165.622 34.7911C165.675 34.8262 165.736 34.8433 165.796 34.8433Z" fill="#1A1009"/>
<path d="M170.239 37.0325L169.365 39.2451C169.251 39.5333 169.464 39.846 169.774 39.846H170.647C170.89 39.846 171.087 39.6494 171.087 39.4067V37.1941C171.088 36.7089 170.418 36.5814 170.239 37.0325Z" fill="#D98364"/>
<path d="M157.687 77.8199C154.843 74.6884 153.043 72.0067 153.308 70.0931C153.49 68.78 154.689 66.5105 156.331 65.0087L151.396 61.9023C148.673 65.584 147.059 71.4181 149.551 74.7065C150.829 76.3926 152.233 78.2768 154.88 80.642L157.687 77.8199Z" fill="#F8A486"/>
<path d="M157.686 77.8176C157.686 77.8176 158.649 76.0258 160.337 75.9922L160.162 79.1331C160.162 79.1331 166.611 80.0852 165.799 82.5542C164.988 85.0232 160.959 86.5913 154.879 80.6401L157.686 77.8176Z" fill="#F8A486"/>
<path d="M189.504 77.8199C192.348 74.6884 194.148 72.0067 193.883 70.0931C193.701 68.78 192.502 66.5105 190.86 65.0087L195.795 61.9023C198.518 65.584 200.132 71.4181 197.64 74.7065C196.362 76.3926 194.958 78.2768 192.311 80.642L189.504 77.8199Z" fill="#F8A486"/>
<path d="M189.504 77.8176C189.504 77.8176 188.541 76.0258 186.853 75.9922L187.028 79.1331C187.028 79.1331 180.58 80.0852 181.391 82.5542C182.202 85.0232 186.231 86.5913 192.311 80.6401L189.504 77.8176Z" fill="#F8A486"/>
<path d="M144.849 82.9453C144.849 82.9453 147.79 89.5699 143.579 94.3007C142.535 95.4741 141.257 95.7565 140.792 95.1049C140.111 94.1524 143.479 91.5616 143.131 90.1992C142.783 88.8368 141.883 87.7288 141.656 88.6093C141.429 89.4893 140.538 91.9081 139.913 91.419C139.287 90.9299 139.255 89.8969 139.522 88.6761C139.789 87.4554 140.68 83.387 140.68 83.387L144.849 82.9453Z" fill="#FFA675"/>
<path d="M141.606 153.81C141.606 153.81 140.103 133.791 140.103 112.015C140.103 106.252 140.986 101.483 141.196 96.8892C141.381 92.8644 140.333 86.4219 140.333 86.4219H115.916C115.916 86.4219 114.87 92.8644 115.054 96.8892C115.264 101.483 116.147 106.252 116.147 112.015C116.147 133.791 114.645 153.81 114.645 153.81L124.428 153.644C124.428 153.644 123.909 141.077 125.059 122.04C125.792 109.905 127.57 99.4729 128.125 97.5223C128.68 99.4729 130.458 109.905 131.191 122.04C132.342 141.077 131.823 153.644 131.823 153.644L141.606 153.81Z" fill="#43A87C"/>
<path d="M139.523 30.6709C139.523 30.6709 140.442 45.073 140.94 48.7561C141.437 52.4392 131.589 63.2302 121.812 56.2522C112.035 49.2741 118.179 30.3184 118.179 30.3184L139.523 30.6709Z" fill="#1A1009"/>
<path d="M135.251 44.752H123.414V90.8921H135.251V44.752Z" fill="#5AE2A7"/>
<path d="M133.696 44.8812C133.696 44.8812 134.112 51.0944 130.039 51.0944C127.043 51.0944 124.971 44.8812 124.971 44.8812V36.4648H133.696V44.8812Z" fill="#FFA675"/>
<path d="M124.971 42.7759C126.107 44.434 130.766 46.0159 133.696 44.8828C133.709 43.936 133.696 40.8301 133.696 40.8301H124.971V42.7759Z" fill="#D98364"/>
<path d="M135.387 34.2085C135.387 35.9145 135.08 36.9988 136.223 37.195C137.872 37.4779 140.665 35.6506 140.374 32.4513C140.176 30.2695 138.283 29.8956 137.191 30.2984C135.858 30.7903 135.387 32.5025 135.387 34.2085Z" fill="#D98364"/>
<path d="M133.828 24.0781H125.248C122.528 24.0781 120.322 26.4751 120.322 29.4317V34.0939C120.322 36.8595 123.332 43.7745 130.243 43.7745C137.069 43.7745 138.753 37.2244 138.753 34.0939V29.4317C138.754 26.4751 136.548 24.0781 133.828 24.0781Z" fill="#FFA675"/>
<path d="M121.776 34.1792C121.776 35.8852 122.083 36.9695 120.94 37.1657C119.291 37.4486 116.498 35.6213 116.789 32.422C116.987 30.2402 118.88 29.8663 119.972 30.2691C121.305 30.761 121.776 32.4732 121.776 34.1792Z" fill="#FFA675"/>
<path d="M127.956 33.1583C127.956 33.9923 127.511 34.6681 126.961 34.6681C126.412 34.6681 125.967 33.9923 125.967 33.1583C125.967 32.3242 126.412 31.6484 126.961 31.6484C127.511 31.6484 127.956 32.3247 127.956 33.1583Z" fill="#1A1009"/>
<path d="M136.169 33.1583C136.169 33.9923 135.724 34.6681 135.174 34.6681C134.625 34.6681 134.18 33.9923 134.18 33.1583C134.18 32.3242 134.625 31.6484 135.174 31.6484C135.724 31.6484 136.169 32.3247 136.169 33.1583Z" fill="#1A1009"/>
<path d="M127.25 37.8633V38.7476C127.25 40.2053 128.446 41.2592 129.903 41.2592H131.626C133.084 41.2592 134.18 40.2053 134.18 38.7476V37.8633H127.25Z" fill="#2E1707"/>
<path d="M133.391 40.5998C132.91 40.1591 132.251 39.8984 131.527 39.8984H129.804C129.105 39.8984 128.491 40.1425 128.039 40.5557C128.52 40.9964 129.178 41.2571 129.903 41.2571H131.625C132.324 41.2566 132.939 41.0126 133.391 40.5998Z" fill="#EB6B46"/>
<path d="M127.42 37.8633V38.5035C127.42 38.7006 127.622 38.8821 127.82 38.8821H133.611C133.808 38.8821 134.01 38.7011 134.01 38.5035V37.8633H127.42Z" fill="white"/>
<path d="M128.37 31.3167C128.264 31.3167 128.16 31.2655 128.097 31.1707C128.079 31.1432 127.678 30.5655 126.981 30.5655C126.275 30.5655 125.827 31.1736 125.823 31.1797C125.717 31.3257 125.512 31.3593 125.366 31.2551C125.219 31.1494 125.184 30.947 125.289 30.7997C125.315 30.7632 125.931 29.9102 126.981 29.9102C128.037 29.9102 128.619 30.7717 128.643 30.8087C128.742 30.9598 128.701 31.1627 128.55 31.2626C128.495 31.2991 128.432 31.3167 128.37 31.3167Z" fill="#1A1009"/>
<path d="M136.581 31.3167C136.475 31.3167 136.371 31.2655 136.308 31.1707C136.289 31.1432 135.889 30.5655 135.192 30.5655C134.486 30.5655 134.038 31.1736 134.034 31.1797C133.928 31.3257 133.723 31.3593 133.577 31.2551C133.43 31.1494 133.395 30.947 133.5 30.7997C133.526 30.7632 134.142 29.9102 135.192 29.9102C136.248 29.9102 136.83 30.7717 136.854 30.8087C136.953 30.9598 136.912 31.1627 136.761 31.2626C136.706 31.2991 136.643 31.3167 136.581 31.3167Z" fill="#1A1009"/>
<path d="M146.493 84.4425C146.493 84.4425 146.497 63.0069 143.459 51.7406C141.576 44.7592 137.875 44.1607 133.697 44.1607C133.697 44.1607 133.628 43.737 133.697 44.881C133.931 48.783 134.74 62.0042 134.762 66.5142C134.798 73.5316 133.776 93.6081 133.776 93.6081L141.004 91.2353L141.042 84.4359L146.493 84.4425Z" fill="white"/>
<path d="M107.66 84.4362C107.66 84.4362 109.446 62.4172 112.273 51.0955C114.107 43.7482 120.792 44.0605 124.971 44.0605C125.638 46.7465 126.436 60.6458 126.606 63.4081C127.485 77.6453 127.43 93.7103 127.43 93.7103L114.688 91.0991C114.688 91.0991 114.686 88.6027 115.282 83.9495C116.048 77.9723 117.956 68.6219 117.784 67.4718C116.957 61.9571 116.458 61.887 116.507 58.3228C114.642 72.7585 113.798 84.431 113.798 84.431L107.66 84.4362Z" fill="white"/>
<path d="M136.414 24.9073C136.414 24.9073 132.274 28.5497 126.962 28.8046C124.148 28.9397 123.547 29.6723 123.331 31.3182C122.768 35.6078 120.937 37.1764 120.939 37.165C120.939 37.165 121.25 31.4253 120.234 30.7736C118.888 29.9097 118.18 30.3182 118.18 30.3182C118.18 30.3182 116.999 18.6391 129.187 18.6387C141.84 18.6377 139.524 30.6713 139.524 30.6713L138.752 31.7802C138.752 31.7802 137.494 29.9998 137.22 28.8373C136.908 27.5147 136.414 24.9073 136.414 24.9073Z" fill="#1A1009"/>
<path d="M118.244 90.0533C117.865 89.6164 117.317 89.3714 116.762 89.3448C116.088 89.3121 107.908 89.3121 107.233 89.3448C106.678 89.3718 106.13 89.6168 105.752 90.0533C104.655 91.3167 104.839 94.143 104.918 94.9799L107.354 94.7529C107.247 93.5966 107.371 92.2465 107.579 91.765C108.45 91.7328 115.546 91.7328 116.417 91.765C116.625 92.2465 116.749 93.5966 116.643 94.7529L119.078 94.9799C119.157 94.143 119.34 91.3162 118.244 90.0533Z" fill="#E74637"/>
<path d="M107.867 84.4435L107.9 89.3753C107.9 91.2932 109.454 92.8476 111.372 92.8476C112.239 92.8476 113.074 92.5234 113.714 91.9391L113.915 91.7548H113.713C113.042 91.7548 112.498 91.2107 112.498 90.5397C112.498 89.8687 113.042 89.3246 113.713 89.3246H114.514L113.438 84.4336L107.867 84.4435Z" fill="#FFA675"/>
<path d="M125.28 112.642L101.462 112.588C100.347 112.585 99.4449 111.679 99.4473 110.564L99.4814 95.7943C99.4838 94.6787 100.39 93.7769 101.505 93.7793L125.323 93.8338C126.438 93.8362 127.34 94.7427 127.338 95.8578L127.304 110.627C127.301 111.743 126.395 112.645 125.28 112.642Z" fill="#912C23"/>
<path d="M123.28 112.644L99.4623 112.59C98.3467 112.587 97.4449 111.681 97.4473 110.566L97.4814 95.7962C97.4838 94.6807 98.3903 93.7789 99.5054 93.7813L123.323 93.8357C124.438 93.8381 125.34 94.7447 125.338 95.8597L125.304 110.629C125.301 111.744 124.395 112.646 123.28 112.644Z" fill="#E73020"/>
<path d="M116.697 103.143C116.749 106.074 114.416 108.491 111.486 108.543C108.556 108.595 106.139 106.262 106.087 103.332C106.035 100.402 108.368 97.9846 111.298 97.9325C114.228 97.8804 116.645 100.213 116.697 103.143Z" fill="white"/>
<path d="M107.744 101.781L108.805 100.269L110.436 101.414L110.401 99.4448L112.247 99.4121L112.282 101.382L113.872 100.179L114.986 101.652L112.958 103.185L115.039 104.646L113.978 106.157L112.347 105.012L112.383 107.028L110.536 107.06L110.5 105.045L108.911 106.247L107.797 104.775L109.824 103.241L107.744 101.781Z" fill="#D92A1A"/>
<path d="M143.458 51.7391C142.616 48.6152 141.408 46.7717 139.958 45.6855C141.063 51.7784 140.405 57.7456 138.383 67.8182C140.358 74.1291 141.041 84.4339 141.041 84.4339L146.492 84.441C146.492 84.441 146.497 63.0054 143.458 51.7391Z" fill="#E6E7E8"/>
<path d="M131.961 33.4017L132.835 35.6143C132.949 35.9029 132.736 36.2152 132.426 36.2152H131.553C131.31 36.2152 131.113 36.0185 131.113 35.7759V33.5633C131.112 33.078 131.782 32.9505 131.961 33.4017Z" fill="#D98364"/>
</g>
<defs>
<linearGradient id="paint0_linear_22409_34813" x1="274.633" y1="171.924" x2="274.633" y2="-141.478" gradientUnits="userSpaceOnUse">
<stop stop-color="#C3F7DF"/>
<stop offset="0.0635219" stop-color="#9BF6E0"/>
<stop offset="0.161" stop-color="#64F4E1"/>
<stop offset="0.2451" stop-color="#3CF2E2"/>
<stop offset="0.3115" stop-color="#23F1E3"/>
<stop offset="0.352" stop-color="#1AF1E3"/>
<stop offset="0.3837" stop-color="#1AEDE2"/>
<stop offset="0.7919" stop-color="#18C2D6"/>
<stop offset="1" stop-color="#17B2D1"/>
</linearGradient>
<linearGradient id="paint1_linear_22409_34813" x1="274.633" y1="250.817" x2="274.633" y2="-59.592" gradientUnits="userSpaceOnUse">
<stop stop-color="#1AF1E3"/>
<stop offset="0.0489792" stop-color="#1AEDE2"/>
<stop offset="0.6788" stop-color="#18C2D6"/>
<stop offset="1" stop-color="#17B2D1"/>
</linearGradient>
<clipPath id="clip0_22409_34813">
<rect width="550" height="112" fill="white"/>
</clipPath>
</defs>
</svg>
