<svg width="32" height="30" viewBox="0 0 32 30" fill="none" xmlns="http://www.w3.org/2000/svg">
<path d="M19.7543 3.3746L22.3449 0.379637C22.5848 0.104672 23.035 0.22598 23.1051 0.581817L23.8518 4.47176C23.903 4.73325 24.1726 4.8896 24.4233 4.80334L28.165 3.50399C28.5101 3.38538 28.8416 3.71426 28.7203 4.05932L27.421 7.801C27.3347 8.0517 27.4911 8.32397 27.7526 8.37249L31.6425 9.11921C32.001 9.1866 32.1223 9.63949 31.8447 9.87941L28.8497 12.47C28.6475 12.6452 28.6475 12.9552 28.8497 13.1305L31.8447 15.7211C32.1196 15.961 31.9983 16.4112 31.6425 16.4813L27.7526 17.228C27.4911 17.2792 27.3347 17.5488 27.421 17.7995L28.7203 21.5412C28.8389 21.8862 28.5101 22.2178 28.165 22.0965L24.4233 20.7998C24.1726 20.7136 23.9003 20.8699 23.8518 21.1314L23.1051 25.0214C23.0377 25.3799 22.5848 25.5012 22.3449 25.2235L19.7543 22.2259C19.5791 22.0237 19.2691 22.0237 19.0939 22.2259L16.5033 25.2208C16.2633 25.4958 15.8131 25.3745 15.7431 25.0187L14.9963 21.1287C14.9451 20.8672 14.6755 20.7109 14.4248 20.7971L10.6832 22.0965C10.3381 22.2151 10.0065 21.8862 10.1278 21.5412L11.4272 17.7995C11.5134 17.5488 11.3571 17.2765 11.0956 17.228L7.20566 16.4813C6.84713 16.4139 6.72582 15.961 7.00348 15.7211L9.99844 13.1305C10.2006 12.9552 10.2006 12.6452 9.99844 12.47L7.00079 9.87941C6.72582 9.63949 6.84713 9.1893 7.20297 9.11921L11.0929 8.37249C11.3544 8.32127 11.5108 8.0517 11.4245 7.801L10.1251 4.05932C10.0065 3.71426 10.3354 3.38269 10.6805 3.50399L14.4221 4.80334C14.6728 4.8896 14.9451 4.73325 14.9936 4.47176L15.7404 0.581817C15.8078 0.223284 16.2606 0.101976 16.5006 0.379637L19.0912 3.3746C19.2664 3.57678 19.5791 3.57678 19.7543 3.3746Z" fill="#F9A825"/>
<path opacity="0.2" d="M16.3929 1.48768L18.4821 3.90306C18.7193 4.17802 19.0617 4.33437 19.4229 4.33437C19.7841 4.33437 20.1292 4.17802 20.3637 3.90306L22.4556 1.48768L23.0568 4.62551C23.17 5.21049 23.6822 5.63641 24.2806 5.63641C24.4208 5.63641 24.5583 5.61215 24.6904 5.56633L27.7069 4.51768L26.6583 7.53421C26.5396 7.87657 26.5747 8.25128 26.7553 8.56668C26.9359 8.87938 27.2432 9.09774 27.5991 9.16783L30.7369 9.76898L28.3215 11.8582C28.0466 12.0954 27.8902 12.4378 27.8902 12.799C27.8902 13.1602 28.0466 13.5053 28.3215 13.7398L30.7369 15.829L27.5991 16.4301C27.2432 16.4975 26.9359 16.7159 26.7553 17.0313C26.5747 17.344 26.5396 17.7214 26.6583 18.0638L27.7069 21.0803L24.6904 20.0316C24.5583 19.9858 24.4208 19.9615 24.2806 19.9615C23.6849 19.9615 23.17 20.3875 23.0568 20.9725L22.4556 24.113L20.3664 21.6976C20.1292 21.4226 19.7868 21.2663 19.4256 21.2663C19.0644 21.2663 18.7193 21.4226 18.4848 21.6976L16.3929 24.113L15.7918 20.9751C15.6785 20.3902 15.1663 19.9642 14.5679 19.9642C14.4277 19.9642 14.2902 19.9885 14.1581 20.0343L11.1416 21.083L12.1903 18.0665C12.3089 17.7241 12.2738 17.3494 12.0932 17.034C11.9126 16.7213 11.6053 16.5029 11.2494 16.4328L8.11161 15.8317L10.527 13.7425C10.802 13.5053 10.9583 13.1629 10.9583 12.8017C10.9583 12.4405 10.802 12.0954 10.527 11.8609L8.11161 9.77167L11.2494 9.17052C11.6053 9.10313 11.9126 8.88478 12.0932 8.56937C12.2738 8.25667 12.3089 7.87927 12.1903 7.53691L11.1416 4.52038L14.1581 5.56902C14.2902 5.61485 14.4277 5.63911 14.5679 5.63911C15.1637 5.63911 15.6785 5.21318 15.7918 4.62821L16.3929 1.48768ZM22.674 0.226074C22.5554 0.226074 22.4367 0.274597 22.3451 0.377035L19.7545 3.372C19.6682 3.47174 19.5469 3.52296 19.4229 3.52296C19.2989 3.52296 19.1803 3.47174 19.0913 3.372L16.5034 0.379731C16.4145 0.274597 16.2932 0.22877 16.1746 0.22877C15.9778 0.22877 15.7864 0.360861 15.7432 0.584607L14.9965 4.47455C14.9561 4.68752 14.7701 4.83039 14.5679 4.83039C14.5194 4.83039 14.4708 4.8223 14.425 4.80613L10.6833 3.50678C10.6348 3.49061 10.5863 3.48252 10.5378 3.48252C10.252 3.48252 10.0256 3.76827 10.128 4.06211L11.4274 7.80379C11.5136 8.05449 11.3573 8.32676 11.0958 8.37528L7.20584 9.122C6.84731 9.18939 6.726 9.64228 7.00366 9.8822L9.99862 12.4728C10.2008 12.648 10.2008 12.958 9.99862 13.1333L7.00366 15.7239C6.7287 15.9638 6.85 16.414 7.20584 16.4841L11.0958 17.2308C11.3573 17.282 11.5136 17.5516 11.4274 17.8023L10.128 21.5439C10.0256 21.8405 10.2547 22.1235 10.5378 22.1235C10.5863 22.1235 10.6348 22.1154 10.6833 22.0993L14.425 20.7999C14.4735 20.7838 14.5221 20.7757 14.5679 20.7757C14.7701 20.7757 14.9561 20.9185 14.9965 21.1315L15.7432 25.0214C15.7864 25.2452 15.9778 25.3773 16.1746 25.3773C16.2932 25.3773 16.4118 25.3288 16.5034 25.2263L19.094 22.226C19.1803 22.1262 19.3016 22.075 19.4256 22.075C19.5496 22.075 19.6682 22.1262 19.7572 22.226L22.3478 25.2209C22.4367 25.3261 22.5581 25.3719 22.6767 25.3719C22.8735 25.3719 23.0648 25.2398 23.108 25.0161L23.8547 21.1261C23.8951 20.9131 24.0811 20.7703 24.2833 20.7703C24.3318 20.7703 24.3804 20.7784 24.4262 20.7945L28.1679 22.0939C28.2164 22.1101 28.2649 22.1181 28.3134 22.1181C28.5992 22.1181 28.8256 21.8324 28.7232 21.5386L27.4239 17.7969C27.3376 17.5462 27.4939 17.2739 27.7554 17.2254L31.6454 16.4787C32.0039 16.4113 32.1252 15.9584 31.8476 15.7185L28.8526 13.1279C28.6504 12.9526 28.6504 12.6426 28.8526 12.4674L31.8476 9.87681C32.1225 9.63689 32.0012 9.1867 31.6454 9.11661L27.7554 8.36989C27.4939 8.31867 27.3376 8.0491 27.4239 7.79839L28.7232 4.05671C28.8256 3.76018 28.5965 3.47713 28.3134 3.47713C28.2649 3.47713 28.2164 3.48522 28.1679 3.50139L24.4235 4.80343C24.375 4.81961 24.3265 4.82769 24.2806 4.82769C24.0784 4.82769 23.8924 4.68482 23.852 4.47186L23.1053 0.581911C23.0622 0.358165 22.8708 0.226074 22.674 0.226074Z" fill="#424242"/>
<path d="M19.477 20.8027C23.8958 20.8027 27.478 17.2205 27.478 12.8017C27.478 8.38293 23.8958 4.80078 19.477 4.80078C15.0582 4.80078 11.4761 8.38293 11.4761 12.8017C11.4761 17.2205 15.0582 20.8027 19.477 20.8027Z" fill="url(#paint0_radial_93_2223)"/>
<path d="M19.1424 20.3175C19.0157 20.3175 18.889 20.3256 18.7677 20.3418C18.8648 20.0129 18.9187 19.6679 18.9187 19.3093C18.9187 17.3064 17.2958 15.6836 15.2929 15.6836C14.4411 15.6836 13.6593 15.9801 13.0393 16.4734C12.2063 14.8937 10.5484 13.8154 8.63714 13.8154C5.89018 13.8154 3.6635 16.0421 3.6635 18.7891C3.6635 18.8888 3.6662 18.9858 3.67159 19.0829C1.60396 19.3336 0 21.0966 0 23.2343C0 25.523 1.8358 27.3804 4.11369 27.4208C4.87659 28.7471 6.39698 29.6556 8.1546 29.669C9.85291 29.6825 11.3437 28.8522 12.1497 27.6095C12.7994 28.3185 13.7294 28.7687 14.7672 28.7687C16.2553 28.7687 17.525 27.8548 18.056 26.5582C18.3957 26.6795 18.7596 26.7496 19.1424 26.7496C20.9189 26.7496 22.3584 25.31 22.3584 23.5336C22.3584 21.7571 20.9189 20.3175 19.1424 20.3175Z" fill="url(#paint1_radial_93_2223)"/>
<path opacity="0.2" d="M8.63714 14.6212C10.1872 14.6212 11.5997 15.4731 12.3222 16.8479C12.4354 17.0609 12.6349 17.2118 12.8721 17.263C12.9261 17.2738 12.9827 17.2792 13.0393 17.2792C13.2199 17.2792 13.3978 17.2172 13.5434 17.104C14.0475 16.7023 14.654 16.4921 15.2929 16.4921C16.8456 16.4921 18.1099 17.7564 18.1099 19.3091C18.1099 19.5787 18.0695 19.8483 17.9913 20.1124C17.9132 20.3739 17.9725 20.6543 18.1477 20.8618C18.3013 21.0452 18.5305 21.1503 18.7677 21.1503C18.8001 21.1503 18.8297 21.1476 18.8621 21.1449C18.9672 21.1314 19.0588 21.126 19.1451 21.126C20.4714 21.126 21.5524 22.2043 21.5524 23.5333C21.5524 24.8596 20.4741 25.9406 19.1451 25.9406C18.8728 25.9406 18.5979 25.8921 18.331 25.795C18.242 25.7627 18.1477 25.7465 18.0587 25.7465C17.7379 25.7465 17.4387 25.9379 17.3093 26.2506C16.8861 27.2885 15.8887 27.9597 14.7699 27.9597C13.9936 27.9597 13.2738 27.6416 12.7454 27.062C12.5918 26.8922 12.3734 26.7979 12.147 26.7979C12.1254 26.7979 12.1039 26.7979 12.0796 26.8006C11.8289 26.8221 11.6024 27.0108 11.4677 27.2211C10.7937 28.2643 9.53751 28.9652 8.19503 28.9652H8.16269C6.74742 28.9652 5.46695 28.1942 4.81728 27.0674C4.6744 26.8221 4.41561 26.6415 4.12987 26.6361C2.29946 26.6038 0.808721 25.078 0.808721 23.2476C0.808721 21.5439 2.0838 20.099 3.77133 19.8914C4.19456 19.8402 4.50457 19.4628 4.48031 19.0368C4.47492 18.9533 4.47222 18.8697 4.47222 18.7861C4.47222 16.4894 6.34037 14.6212 8.63714 14.6212ZM8.63714 13.8125C5.89018 13.8125 3.6635 16.0392 3.6635 18.7861C3.6635 18.8859 3.6662 18.9856 3.67429 19.0827C1.60396 19.3361 0 21.0964 0 23.2341C0 25.5228 1.8358 27.4314 4.11369 27.4718C4.87658 28.7981 6.39698 29.7739 8.1546 29.7739H8.19234C9.87448 29.7739 11.3463 28.8924 12.1443 27.6605C12.794 28.3722 13.7267 28.7954 14.7645 28.7954C16.2526 28.7954 17.5223 27.8681 18.0533 26.5714C18.393 26.6927 18.7569 26.7574 19.1397 26.7574C20.9162 26.7574 22.3557 25.3152 22.3557 23.5387C22.3557 21.7622 20.9189 20.32 19.1424 20.32C19.0157 20.32 18.889 20.3281 18.7677 20.3443C18.8648 20.0154 18.9187 19.6703 18.9187 19.3118C18.9187 17.3089 17.2958 15.686 15.2929 15.686C14.4411 15.686 13.6593 15.9826 13.0393 16.4759C12.2063 14.8908 10.5484 13.8125 8.63714 13.8125Z" fill="#424242"/>
<defs>
<radialGradient id="paint0_radial_93_2223" cx="0" cy="0" r="1" gradientUnits="userSpaceOnUse" gradientTransform="translate(18.2135 10.9058) scale(7.84728)">
<stop offset="0.2173" stop-color="#FFD54F"/>
<stop offset="0.86" stop-color="#FFC107"/>
</radialGradient>
<radialGradient id="paint1_radial_93_2223" cx="0" cy="0" r="1" gradientUnits="userSpaceOnUse" gradientTransform="translate(8.16296 12.2851) scale(22.5452)">
<stop offset="0.2636" stop-color="#E3F2FD"/>
<stop offset="0.9167" stop-color="#90CAF9"/>
</radialGradient>
</defs>
</svg>
