<svg width="550" height="112" viewBox="0 0 550 112" fill="none" xmlns="http://www.w3.org/2000/svg">
<g clip-path="url(#clip0_22185_132342)">
<rect width="550" height="112" fill="#F6F8F9"/>
<mask id="mask0_22185_132342" style="mask-type:luminance" maskUnits="userSpaceOnUse" x="0" y="-80" width="550" height="209">
<path d="M550 -79.1466H0V128.275H550V-79.1466Z" fill="white"/>
</mask>
<g mask="url(#mask0_22185_132342)">
<path d="M-9.40942 113.204H335.286L329.829 1.19602L308.387 -8.11492L276.375 4.33039V69.8756L270.403 72.9178L264.086 -3.18288L246.168 -10.0048L224.297 0.827261L224.856 55.1257L219.313 55.9553L213.641 26.2249L203.458 22.6757L169.77 28.4835V49.7327L160.489 50.7928V65.9116L155.891 68.4006L152.325 15.6233L115.544 14.1023L116.016 88.3592L112.063 89.1889L110.344 45.0311L72.0593 46.7366L73.0046 88.9584H68.4929V69.8756L56.2897 68.8616L54.0124 6.4507L25.3093 5.34445L24.7507 22.5374H-9.40942V113.204Z" fill="url(#paint0_linear_22185_132342)"/>
<path d="M-1.37452 35.4445H-5.15576V27.9773H-1.37452V35.4445ZM4.89892 27.9773H1.11767V35.4445H4.89892V27.9773ZM11.1723 27.9773H7.3911V35.4445H11.1723V27.9773ZM17.4458 27.9773H13.6645V35.4445H17.4458V27.9773ZM23.977 27.9773H20.1958V35.4445H23.977V27.9773ZM-1.37452 37.6109H-5.15576V45.0781H-1.37452V37.6109ZM4.89892 37.6109H1.11767V45.0781H4.89892V37.6109ZM11.2153 37.6109H7.43407V45.0781H11.2153V37.6109ZM17.4888 37.6109H13.7075V45.0781H17.4888V37.6109ZM23.977 37.6109H20.1958V45.0781H23.977V37.6109ZM-1.37452 47.1984H-5.15576V54.6656H-1.37452V47.1984ZM4.94189 47.1984H1.16064V54.6656H4.94189V47.1984ZM11.2153 47.1984H7.43407V54.6656H11.2153V47.1984ZM17.4888 47.1984H13.7075V54.6656H17.4888V47.1984ZM23.977 47.1984H20.1958V54.6656H23.977V47.1984ZM-1.33155 56.7859H-5.1128V64.2531H-1.33155V56.7859ZM4.94189 56.7859H1.16064V64.2531H4.94189V56.7859ZM11.2153 56.7859H7.43407V64.2531H11.2153V56.7859ZM17.4888 56.7859H13.7075V64.2531H17.4888V56.7859ZM24.02 56.7859H20.2387V64.2531H24.02V56.7859ZM-1.28858 66.5577H-5.06983V74.0249H-1.28858V66.5577ZM4.98485 66.5577H1.2036V74.0249H4.98485V66.5577ZM11.2583 66.5577H7.47704V74.0249H11.2583V66.5577ZM17.5317 66.5577H13.7505V74.0249H17.5317V66.5577ZM24.063 66.5577H20.2817V74.0249H24.063V66.5577ZM-1.28858 76.1452H-5.06983V83.6124H-1.28858V76.1452ZM4.98485 76.1452H1.2036V83.6124H4.98485V76.1452ZM11.2583 76.1452H7.47704V83.6124H11.2583V76.1452ZM17.5317 76.1452H13.7505V83.6124H17.5317V76.1452ZM24.063 76.1452H20.2817V83.6124H24.063V76.1452ZM-1.28858 85.7327H-5.06983V93.1999H-1.28858V85.7327ZM4.98485 85.7327H1.2036V93.1999H4.98485V85.7327ZM11.2583 85.7327H7.47704V93.1999H11.2583V85.7327ZM17.5747 85.7327H13.7934V93.1999H17.5747V85.7327ZM24.063 85.7327H20.2817V93.1999H24.063V85.7327Z" fill="#27E0E3"/>
<path d="M172.219 31.7563L201.782 25.7642V30.6962L172.219 34.5681V31.7563Z" fill="#27E0E3"/>
<path d="M172.219 38.0242L201.782 32.4929V37.4249L172.219 40.8359V38.0242Z" fill="#27E0E3"/>
<path d="M172.219 44.3392L201.782 39.2689V44.201L172.219 47.1509V44.3392Z" fill="#27E0E3"/>
<path d="M172.219 50.6543L201.782 46.0449V50.977L172.219 53.4199V50.6543Z" fill="#27E0E3"/>
<path d="M172.219 56.9233L201.782 52.821V57.753L172.219 59.735V56.9233Z" fill="#27E0E3"/>
<path d="M172.219 63.2384L201.782 59.597V64.529L172.219 66.004V63.2384Z" fill="#27E0E3"/>
<path d="M172.219 69.5062L201.782 66.3257V71.2578L172.219 72.3179V69.5062Z" fill="#27E0E3"/>
<path d="M172.219 75.8213L201.782 73.1017V78.0338L172.219 78.5869V75.8213Z" fill="#27E0E3"/>
<path d="M172.219 82.0903L201.782 79.8777V84.8098L172.219 84.902V82.0903Z" fill="#27E0E3"/>
<path d="M172.219 88.1736L201.782 86.4221V91.3541L172.219 90.9853V88.1736Z" fill="#27E0E3"/>
<path d="M559.281 18.1591H529.289L529.203 86.1473L522.543 89.2817L522.758 -10.6495L493.453 -12.5393V108.825H559.281V18.1591Z" fill="url(#paint1_linear_22185_132342)"/>
<path d="M542.738 22.582H539.258L539.687 38.1617H543.211L542.738 22.582Z" fill="#27E0E3"/>
<path d="M543.942 62.7771H540.418L540.891 78.3568H544.371L543.942 62.7771Z" fill="#27E0E3"/>
<path d="M543.34 42.6808H539.816L540.289 58.2605H543.812L543.34 42.6808Z" fill="#27E0E3"/>
<path d="M541.02 82.8735L541.492 98.4532H544.973L544.5 82.8735H541.02Z" fill="#27E0E3"/>
<path d="M548.539 22.582H545.059L545.531 38.1617H549.012L548.539 22.582Z" fill="#27E0E3"/>
<path d="M537.539 42.6808H534.016L534.488 58.2605H537.969L537.539 42.6808Z" fill="#27E0E3"/>
<path d="M535.219 82.8735L535.649 98.4532H539.172L538.7 82.8735H535.219Z" fill="#27E0E3"/>
<path d="M549.141 42.6808H545.66L546.09 58.2605H549.613L549.141 42.6808Z" fill="#27E0E3"/>
<path d="M536.937 22.582H533.414L533.886 38.1617H537.367L536.937 22.582Z" fill="#27E0E3"/>
<path d="M538.098 62.7771H534.617L535.09 78.3568H538.57L538.098 62.7771Z" fill="#27E0E3"/>
<path d="M546.82 82.8735L547.292 98.4532H550.816L550.343 82.8735H546.82Z" fill="#27E0E3"/>
<path d="M549.741 62.7771H546.218L546.691 78.3568H550.214L549.741 62.7771Z" fill="#27E0E3"/>
<path d="M51.0036 9.67548L51.4333 102.186H49.2849L47.4802 9.67548H51.0036ZM41.2068 9.67548L43.0115 102.186H45.1599L44.7302 9.67548H41.2068ZM34.8904 9.67548L36.6951 102.186H38.8435L38.4138 9.67548H34.8904ZM28.6169 9.67548L30.4216 102.186H32.5701L32.1404 9.67548H28.6169Z" fill="#27E0E3"/>
<path d="M81.4259 62.2703H77.9025L77.4298 52.7289H80.9532L81.4259 62.2703ZM86.754 52.7289H83.2306L83.7032 62.2703H87.2267L86.754 52.7289ZM92.5548 52.7289H89.0314L89.504 62.2703H93.0275L92.5548 52.7289ZM98.3986 52.7289H94.8751L95.3478 62.2703H98.8712L98.3986 52.7289ZM104.414 52.7289H100.891L101.363 62.2703H104.887L104.414 52.7289ZM81.5548 64.9899H78.0314L78.504 74.5313H82.0275L81.5548 64.9899ZM87.3556 64.9899H83.8322L84.3048 74.5313H87.8282L87.3556 64.9899ZM93.1564 64.9899H89.6329L90.1056 74.5313H93.629L93.1564 64.9899ZM99.0001 64.9899H95.4767L95.9493 74.5313H99.4728L99.0001 64.9899ZM105.016 64.9899H101.492L101.965 74.5313H105.488L105.016 64.9899ZM82.1134 77.2969H78.59L79.0626 86.8383H82.5861L82.1134 77.2969ZM87.9571 77.2969H84.4337L84.9064 86.8383H88.4298L87.9571 77.2969ZM93.7579 77.2969H90.2345L90.7072 86.8383H94.2306L93.7579 77.2969ZM99.5587 77.2969H96.0353L96.5079 86.8383H100.031L99.5587 77.2969ZM105.617 77.2969H102.094L102.567 86.8383H106.09L105.617 77.2969ZM82.715 89.6039H79.2345L79.7072 99.1453H83.2306L82.715 89.6039ZM88.5587 89.6039H85.0353L85.5079 99.1453H89.0314L88.5587 89.6039ZM94.3595 89.6039H90.8361L91.3087 99.1453H94.8321L94.3595 89.6039ZM100.16 89.6039H96.6368L97.1095 99.1453H100.633L100.16 89.6039ZM106.176 89.6039H102.652L103.125 99.1453H106.649L106.176 89.6039Z" fill="#27E0E3"/>
<path d="M123.578 25.7631H120.055L119.754 19.4943H123.277L123.578 25.7631ZM129.121 19.4943H125.598L125.899 25.7631H129.422L129.121 19.4943ZM134.922 19.4943H131.399L131.699 25.7631H135.223L134.922 19.4943ZM140.723 19.4943H137.242L137.543 25.7631H141.067L140.723 19.4943ZM146.781 19.4943H143.258L143.559 25.7631H147.082L146.781 19.4943ZM123.664 27.5607H120.141L120.442 33.8295H123.965L123.664 27.5607ZM129.465 27.5607H125.942L126.242 33.8295H129.766L129.465 27.5607ZM135.309 27.5607H131.785L132.086 33.8295H135.609L135.309 27.5607ZM141.109 27.5607H137.586L137.887 33.8295H141.41L141.109 27.5607ZM147.125 27.5607H143.602L143.902 33.8295H147.426L147.125 27.5607ZM124.051 35.6271H120.527L120.828 41.8959H124.352L124.051 35.6271ZM129.852 35.6271H126.328L126.629 41.8959H130.152L129.852 35.6271ZM135.652 35.6271H132.129L132.43 41.8959H135.953L135.652 35.6271ZM141.496 35.6271H137.973L138.274 41.8959H141.797L141.496 35.6271ZM147.512 35.6271H143.988L144.289 41.8959H147.813L147.512 35.6271ZM124.395 43.6935H120.914L121.215 49.9623H124.738L124.395 43.6935ZM130.238 43.6935H126.715L127.016 49.9623H130.539L130.238 43.6935ZM136.039 43.6935H132.516L132.817 49.9623H136.34L136.039 43.6935ZM141.84 43.6935H138.317L138.617 49.9623H142.141L141.84 43.6935ZM147.899 43.6935H144.375L144.676 49.9623H148.199L147.899 43.6935Z" fill="#27E0E3"/>
<path d="M125.211 57.9385H121.688L121.387 51.6697H124.911L125.211 57.9385ZM130.711 51.6697H127.188L127.489 57.9385H131.012L130.711 51.6697ZM136.512 51.6697H132.989L133.29 57.9385H136.813L136.512 51.6697ZM142.356 51.6697H138.833L139.133 57.9385H142.657L142.356 51.6697ZM148.372 51.6697H144.848L145.149 57.9385H148.672L148.372 51.6697ZM125.297 59.7361H121.774L122.075 66.0049H125.598L125.297 59.7361ZM131.098 59.7361H127.575L127.875 66.0049H131.399L131.098 59.7361ZM136.899 59.7361H133.375L133.676 66.0049H137.2L136.899 59.7361ZM142.7 59.7361H139.176L139.477 66.0049H143L142.7 59.7361ZM148.758 59.7361H145.235L145.536 66.0049H149.059L148.758 59.7361ZM125.641 67.8025H122.118L122.418 74.0713H125.942L125.641 67.8025ZM131.442 67.8025H127.918L128.219 74.0713H131.743L131.442 67.8025ZM137.286 67.8025H133.762L134.063 74.0713H137.586L137.286 67.8025ZM143.086 67.8025H139.563L139.864 74.0713H143.387L143.086 67.8025ZM149.102 67.8025H145.579L145.879 74.0713H149.403L149.102 67.8025ZM126.028 75.8689H122.504L122.805 82.1377H126.329L126.028 75.8689ZM131.829 75.8689H128.305L128.606 82.1377H132.129L131.829 75.8689ZM137.629 75.8689H134.106L134.407 82.1377H137.93L137.629 75.8689ZM143.473 75.8689H139.95L140.25 82.1377H143.774L143.473 75.8689ZM149.489 75.8689H145.965L146.266 82.1377H149.79L149.489 75.8689Z" fill="#27E0E3"/>
<path d="M226.188 3.13245L228.465 99.1457H231.387L228.809 1.9801L226.188 3.13245Z" fill="#27E0E3"/>
<path d="M231.816 0.182952L234.995 99.1462H238.175L234.523 -1.10767L231.816 0.182952Z" fill="#27E0E3"/>
<path d="M237.446 -2.76647L241.485 99.1467H245.008L240.282 -4.19537L237.446 -2.76647Z" fill="#27E0E3"/>
<path d="M243.074 -5.76325L248.015 99.146H251.796L246.039 -7.33044L243.074 -5.76325Z" fill="#27E0E3"/>
<path d="M282.95 15.623C281.575 16.0839 280.887 16.3144 279.555 16.7753C279.384 12.8574 279.298 10.9214 279.126 7.04957C280.501 6.49644 281.188 6.21988 282.563 5.66676C282.692 9.63082 282.778 11.6589 282.95 15.623ZM288.192 3.36207C286.817 3.9152 286.13 4.19176 284.755 4.74488C284.926 8.80113 285.012 10.7832 285.141 14.8394C286.516 14.3785 287.204 14.148 288.536 13.6871C288.407 9.53863 288.364 7.51051 288.192 3.36207ZM293.864 1.05739C292.489 1.61051 291.801 1.88707 290.426 2.4402C290.598 6.63472 290.641 8.70895 290.813 12.9496C292.188 12.4886 292.876 12.2582 294.208 11.7972C294.079 7.46442 294.036 5.3441 293.864 1.05739ZM299.579 -1.2473C298.204 -0.694176 297.516 -0.417614 296.141 0.135511C296.27 4.46832 296.356 6.63473 296.485 11.0136C297.86 10.5527 298.548 10.3222 299.88 9.86129C299.751 5.3902 299.708 3.1777 299.579 -1.2473ZM305.466 -3.64417C304.091 -3.09104 303.403 -2.81448 302.028 -2.26135C302.157 2.25583 302.2 4.51442 302.329 9.03161C303.704 8.57067 304.391 8.3402 305.723 7.87926C305.637 3.2238 305.551 0.919113 305.466 -3.64417ZM283.036 18.4808C281.661 18.8957 281.016 19.1261 279.641 19.5871C279.813 23.505 279.899 25.441 280.071 29.3589C281.403 29.0363 282.091 28.8519 283.466 28.4831C283.294 24.473 283.208 22.491 283.036 18.4808ZM288.708 16.6832C287.333 17.098 286.688 17.3285 285.313 17.7894C285.485 21.8457 285.571 23.8738 285.7 27.93C287.032 27.6074 287.719 27.423 289.094 27.0542C288.923 22.9058 288.837 20.8316 288.708 16.6832ZM294.337 14.8855C292.962 15.3003 292.317 15.5308 290.942 15.9917C291.071 20.1863 291.157 22.3066 291.329 26.5472C292.661 26.2246 293.348 26.0402 294.723 25.6714C294.551 21.3386 294.466 19.1722 294.337 14.8855ZM299.966 13.0418C298.591 13.4566 297.946 13.6871 296.571 14.148C296.7 18.5269 296.786 20.6933 296.915 25.0722C298.247 24.7496 298.934 24.5652 300.309 24.1964C300.18 19.7714 300.094 17.5128 299.966 13.0418ZM305.809 11.198C304.434 11.6128 303.79 11.8433 302.415 12.3042C302.544 16.8214 302.587 19.08 302.716 23.6433C304.048 23.3207 304.735 23.1363 306.11 22.7675C305.981 18.1121 305.938 15.8074 305.809 11.198ZM283.594 31.3871C282.262 31.7097 281.575 31.848 280.243 32.1706C280.415 36.0886 280.501 38.0706 280.673 41.9886C282.005 41.7581 282.692 41.666 284.024 41.4355C283.852 37.4253 283.766 35.3972 283.594 31.3871ZM289.18 30.0503C287.848 30.373 287.161 30.5113 285.829 30.8339C286.001 34.8902 286.087 36.9644 286.216 41.0206C287.548 40.7902 288.235 40.698 289.567 40.4675C289.395 36.3191 289.352 34.2449 289.18 30.0503ZM294.766 28.7597C293.434 29.0824 292.747 29.2207 291.415 29.5433C291.544 33.7839 291.63 35.9042 291.802 40.1449C293.134 39.9144 293.821 39.8222 295.153 39.5917C294.981 35.2589 294.938 33.0925 294.766 28.7597ZM300.395 27.423C299.063 27.7457 298.376 27.8839 297.044 28.2066C297.173 32.5855 297.259 34.798 297.387 39.1769C298.719 38.9464 299.407 38.8542 300.739 38.6238C300.567 34.1527 300.524 31.9402 300.395 27.423ZM306.196 26.0863C304.864 26.4089 304.176 26.5472 302.844 26.8699C302.973 31.4331 303.016 33.6917 303.145 38.255C304.477 38.0246 305.165 37.9324 306.497 37.7019C306.368 33.0464 306.282 30.6957 306.196 26.0863ZM284.11 44.3394C282.778 44.5238 282.091 44.6159 280.759 44.8464C280.93 48.7644 281.016 50.7464 281.188 54.7105C282.52 54.6183 283.165 54.5722 284.497 54.4339C284.368 50.3777 284.282 48.3956 284.11 44.3394ZM289.696 43.5097C288.364 43.6941 287.677 43.7863 286.344 44.0167C286.516 48.1191 286.602 50.1472 286.731 54.2956C288.063 54.2034 288.708 54.1573 290.04 54.0191C289.911 49.8245 289.825 47.7042 289.696 43.5097ZM295.239 42.7261C293.907 42.9105 293.219 43.0027 291.887 43.2331C292.016 47.4738 292.102 49.5941 292.231 53.8808C293.563 53.7886 294.208 53.7425 295.54 53.6042C295.454 49.2253 295.368 47.0589 295.239 42.7261ZM300.782 41.8964C299.45 42.0808 298.762 42.173 297.43 42.4035C297.559 46.8284 297.645 48.9949 297.774 53.4198C299.106 53.3277 299.751 53.2816 301.083 53.1433C300.954 48.6261 300.911 46.3675 300.782 41.8964ZM306.54 41.0667C305.208 41.2511 304.52 41.3433 303.188 41.5738C303.317 46.137 303.36 48.4417 303.489 53.005C304.821 52.9128 305.466 52.8667 306.798 52.7284C306.712 48.0269 306.669 45.7222 306.54 41.0667Z" fill="#27E0E3"/>
</g>
<mask id="mask1_22185_132342" style="mask-type:luminance" maskUnits="userSpaceOnUse" x="0" y="-80" width="550" height="209">
<path d="M550 -79.1466H0V128.275H550V-79.1466Z" fill="white"/>
</mask>
<g mask="url(#mask1_22185_132342)">
<path d="M559.324 -84.4922H-9.40967V95.9186H559.324V-84.4922Z" fill="url(#paint2_linear_22185_132342)"/>
<path d="M522.629 -76.6096L522.93 74.7621L512.876 69.9684L512.704 -33.005H460.712L459.895 -59.0479L416.411 -57.3886L412.887 37.1957L394.411 38.7168V67.7098H387.622L389.083 3.6856L331.032 1.15044L328.454 67.9863L322.438 66.7879L323.126 -45.7269L267.438 -43.4683L262.067 36.5043L255.063 32.7707V9.86215L241.012 8.24887V-23.9245L189.966 -32.7284L174.497 -27.3355L165.903 17.652L157.567 16.4075L158.384 -65.8698L125.255 -82.2792L98.1415 -71.9542L88.5595 43.3723L79.5361 38.7168V-60.569L30.9814 -79.4214L-1.45997 -65.2706L-9.40918 97.4402V104.354H559.282V-78.9604L522.629 -76.6096Z" fill="url(#paint3_linear_22185_132342)"/>
<path d="M500.286 -24.709H506V-13.4161H500.286V-24.709ZM490.79 -13.4161H496.504V-24.709H490.79V-13.4161ZM481.25 -13.4161H486.965V-24.709H481.25V-13.4161ZM471.754 -13.4161H477.469V-24.709H471.754V-13.4161ZM461.872 -13.4161H467.586V-24.709H461.872V-13.4161ZM500.286 1.10343H506V-10.1895H500.286V1.10343ZM490.747 1.10343H496.461V-10.1895H490.747V1.10343ZM481.25 1.10343H486.965V-10.1895H481.25V1.10343ZM471.711 1.10343H477.426V-10.1895H471.711V1.10343ZM461.872 1.10343H467.586V-10.1895H461.872V1.10343ZM500.243 15.623H505.957V4.32999H500.243V15.623ZM490.747 15.623H496.461V4.32999H490.747V15.623ZM481.208 15.623H486.922V4.32999H481.208V15.623ZM471.711 15.623H477.426V4.32999H471.711V15.623ZM461.872 15.623H467.586V4.32999H461.872V15.623ZM500.243 30.1886H505.957V18.8956H500.243V30.1886ZM490.747 30.1886H496.461V18.8956H490.747V30.1886ZM481.208 30.1886H486.922V18.8956H481.208V30.1886ZM471.711 30.1886H477.426V18.8956H471.711V30.1886ZM461.829 30.1886H467.543V18.8956H461.829V30.1886ZM500.2 45.0307H505.915V33.7378H500.2V45.0307ZM490.661 45.0307H496.375V33.7378H490.661V45.0307ZM481.165 45.0307H486.879V33.7378H481.165V45.0307ZM471.625 45.0307H477.34V33.7378H471.625V45.0307ZM461.786 45.0307H467.5V33.7378H461.786V45.0307ZM500.157 59.5503H505.872V48.2573H500.157V59.5503ZM490.661 59.5503H496.375V48.2573H490.661V59.5503ZM481.122 59.5503H486.836V48.2573H481.122V59.5503ZM471.625 59.5503H477.34V48.2573H471.625V59.5503ZM461.743 59.5503H467.458V48.2573H461.743V59.5503ZM500.157 74.0698H505.872V62.7768H500.157V74.0698ZM490.618 74.0698H496.332V62.7768H490.618V74.0698ZM481.122 74.0698H486.836V62.7768H481.122V74.0698ZM471.583 74.0698H477.297V62.7768H471.583V74.0698ZM461.743 74.0698H467.458V62.7768H461.743V74.0698Z" fill="#27E0E3"/>
<path d="M237.317 0.0902195L192.458 -7.60742V-0.140249L237.317 4.28475V0.0902195Z" fill="#27E0E3"/>
<path d="M237.317 9.63026L192.458 2.6701V10.1373L237.317 13.8248V9.63026Z" fill="#27E0E3"/>
<path d="M237.317 19.1277L192.458 12.905V20.3722L237.317 23.3683V19.1277Z" fill="#27E0E3"/>
<path d="M237.317 28.6665L192.458 23.1353V30.6024L237.317 32.9071V28.6665Z" fill="#27E0E3"/>
<path d="M237.317 38.2089L192.458 33.4152V40.8823L237.317 42.4034V38.2089Z" fill="#27E0E3"/>
<path d="M237.317 47.7501L192.458 43.6478V51.115L237.317 51.9446V47.7501Z" fill="#27E0E3"/>
<path d="M237.317 57.2924L192.458 53.9276V61.3948L237.317 61.487V57.2924Z" fill="#27E0E3"/>
<path d="M237.317 66.5121L192.458 63.8387V71.3059L237.317 70.7066V66.5121Z" fill="#27E0E3"/>
<path d="M426.25 -52.4586L423.5 87.7124H420.278L420.922 -52.4586H426.25ZM430.461 -52.4586L429.817 87.7124H433.04L435.79 -52.4586H430.461ZM440 -52.4586L439.356 87.7124H442.579L445.329 -52.4586H440ZM449.54 -52.4586L448.895 87.7124H452.118L454.868 -52.4586H449.54Z" fill="#27E0E3"/>
<path d="M375.591 12.7636H380.876L380.188 27.237H374.903L375.591 12.7636ZM366.094 27.1909H371.38L372.067 12.7175H366.782L366.094 27.1909ZM357.286 27.1909H362.571L363.259 12.7175H357.973L357.286 27.1909ZM348.477 27.1909H353.762L354.45 12.7175H349.165L348.477 27.1909ZM339.325 27.1909H344.61L345.298 12.7175H340.012L339.325 27.1909ZM374.001 45.8127H379.286L379.973 31.3393H374.688L374.001 45.8127ZM365.192 45.8127H370.477L371.165 31.3393H365.88L365.192 45.8127ZM356.384 45.8127H361.669L362.356 31.3393H357.071L356.384 45.8127ZM347.575 45.8127H352.86L353.548 31.3393H348.262L347.575 45.8127ZM338.423 45.8127H343.708L344.395 31.3393H339.11L338.423 45.8127ZM373.098 64.4346H378.383L379.071 49.9612H373.786L373.098 64.4346ZM364.29 64.4346H369.575L370.262 49.9612H364.977L364.29 64.4346ZM355.481 64.4346H360.766L361.454 49.9612H356.169L355.481 64.4346ZM346.673 64.4346H351.958L352.645 49.9612H347.36L346.673 64.4346ZM337.52 64.4346H342.805L343.493 49.9612H338.208L337.52 64.4346ZM372.196 83.0565H377.481L378.169 68.583H372.884L372.196 83.0565ZM363.387 83.0565H368.673L369.36 68.583H364.075L363.387 83.0565ZM354.579 83.0565H359.864L360.551 68.583H355.266L354.579 83.0565ZM345.77 83.0565H351.055L351.743 68.583H346.458L345.77 83.0565ZM336.618 83.0565H341.903L342.591 68.583H337.305L336.618 83.0565Z" fill="#27E0E3"/>
<path d="M311.395 -37.5684H316.68L316.251 -28.0731H310.966L311.395 -37.5684ZM302.157 -28.0731H307.442L307.872 -37.5684H302.587L302.157 -28.0731ZM293.348 -28.0731H298.634L299.063 -37.5684H293.778L293.348 -28.0731ZM284.54 -28.0731H289.825L290.255 -37.5684H284.969L284.54 -28.0731ZM275.43 -28.0731H280.716L281.145 -37.5684H275.86L275.43 -28.0731ZM310.407 -15.8582H315.692L316.122 -25.3535H310.837L310.407 -15.8582ZM301.598 -15.8582H306.884L307.313 -25.3535H302.028L301.598 -15.8582ZM292.79 -15.8582H298.075L298.505 -25.3535H293.219L292.79 -15.8582ZM283.981 -15.8582H289.266L289.696 -25.3535H284.411L283.981 -15.8582ZM274.872 -15.8582H280.157L280.587 -25.3535H275.302L274.872 -15.8582ZM309.848 -3.68948H315.134L315.563 -13.1848H310.278L309.848 -3.68948ZM301.04 -3.68948H306.325L306.755 -13.1848H301.469L301.04 -3.68948ZM292.231 -3.68948H297.516L297.946 -13.1848H292.661L292.231 -3.68948ZM283.423 -3.68948H288.708L289.137 -13.1848H283.852L283.423 -3.68948ZM274.313 -3.68948H279.598L280.028 -13.1848H274.743L274.313 -3.68948ZM309.29 8.52535H314.575L315.005 -0.969955H309.719L309.29 8.52535ZM300.481 8.52535H305.766L306.196 -0.969955H300.911L300.481 8.52535ZM291.673 8.52535H296.958L297.387 -0.969955H292.102L291.673 8.52535ZM282.864 8.52535H288.149L288.579 -0.969955H283.294L282.864 8.52535ZM273.712 8.52535H279.04L279.469 -0.969955H274.184L273.712 8.52535Z" fill="#27E0E3"/>
<path d="M308.988 11.1984H314.274L313.844 20.6937H308.559L308.988 11.1984ZM299.75 20.6477H305.035L305.465 11.1523H300.18L299.75 20.6477ZM290.942 20.6477H296.227L296.656 11.1523H291.371L290.942 20.6477ZM282.133 20.6477H287.418L287.848 11.1523H282.563L282.133 20.6477ZM272.981 20.6477H278.266L278.696 11.1523H273.41L272.981 20.6477ZM307.957 32.8625H313.242L313.672 23.3672H308.387L307.957 32.8625ZM299.149 32.8625H304.434L304.863 23.3672H299.578L299.149 32.8625ZM290.34 32.8625H295.625L296.055 23.3672H290.77L290.34 32.8625ZM281.531 32.8625H286.817L287.246 23.3672H281.961L281.531 32.8625ZM272.422 32.8625H277.75L278.18 23.3672H272.895L272.422 32.8625ZM307.399 45.0773H312.684L313.113 35.582H307.828L307.399 45.0773ZM298.59 45.0773H303.875L304.305 35.582H299.02L298.59 45.0773ZM289.781 45.0773H295.067L295.496 35.582H290.211L289.781 45.0773ZM280.973 45.0773H286.258L286.688 35.582H281.403L280.973 45.0773ZM271.864 45.0773H277.149L277.578 35.582H272.293L271.864 45.0773ZM306.84 57.2922H312.125L312.555 47.7968H307.27L306.84 57.2922ZM298.031 57.2922H303.317L303.746 47.7968H298.461L298.031 57.2922ZM289.223 57.2922H294.508L294.938 47.7968H289.653L289.223 57.2922ZM280.414 57.2922H285.699L286.129 47.7968H280.844L280.414 57.2922ZM271.305 57.2922H276.59L277.02 47.7968H271.735L271.305 57.2922Z" fill="#27E0E3"/>
<path d="M155.505 -62.3686L152.025 83.057H147.642L151.595 -64.0741L155.505 -62.3686Z" fill="#27E0E3"/>
<path d="M146.997 -66.8384L142.185 83.0584H137.329L142.872 -68.7743L146.997 -66.8384Z" fill="#27E0E3"/>
<path d="M138.447 -71.3093L132.345 83.0585H127.017L134.193 -73.5218L138.447 -71.3093Z" fill="#27E0E3"/>
<path d="M129.939 -75.8274L122.462 83.0576H116.704L125.47 -78.2243L129.939 -75.8274Z" fill="#27E0E3"/>
<path d="M70.2105 -58.4958C72.273 -57.6661 73.3043 -57.2513 75.4098 -56.3755C75.152 -50.4755 75.023 -47.5716 74.7223 -41.6716C72.6598 -42.363 71.6285 -42.7318 69.566 -43.4232C69.8238 -49.4615 69.9527 -52.5036 70.2105 -58.4958ZM61.0152 -46.3732C63.0777 -45.6818 64.109 -45.313 66.1715 -44.6216C66.4293 -50.7521 66.5582 -53.8404 66.773 -59.9247C64.7106 -60.7544 63.6793 -61.1693 61.5738 -62.045C61.359 -55.7763 61.2301 -52.6419 61.0152 -46.3732ZM52.4215 -49.2771C54.484 -48.5857 55.5152 -48.2169 57.5777 -47.5255C57.7926 -53.8865 57.9215 -57.0669 58.1363 -63.4279C56.0738 -64.2575 55.0426 -64.6724 52.9371 -65.5482C52.7652 -59.049 52.6363 -55.7763 52.4215 -49.2771ZM43.8707 -52.181C45.9332 -51.4896 46.9645 -51.1208 49.027 -50.4294C49.2418 -57.0208 49.3277 -60.3396 49.5426 -66.931C47.4801 -67.7607 46.4488 -68.1755 44.3434 -69.0513C44.1715 -62.3216 44.0856 -58.9568 43.8707 -52.181ZM35.0192 -55.2232C37.0817 -54.5318 38.1129 -54.163 40.1754 -53.4716C40.3473 -60.3396 40.4332 -63.7505 40.6481 -70.5724C38.5856 -71.4021 37.5543 -71.8169 35.4489 -72.6927C35.277 -65.6864 35.191 -62.1833 35.0192 -55.2232ZM68.7496 -23.9255C70.8121 -23.4185 71.8004 -23.1419 73.8629 -22.6349C74.1207 -28.581 74.2496 -31.531 74.5074 -37.431C72.4449 -38.0763 71.4137 -38.4451 69.3512 -39.0904C69.1363 -33.0521 69.0074 -30.0099 68.7496 -23.9255ZM60.2418 -26.0919C62.3043 -25.5849 63.2926 -25.3083 65.3551 -24.8013C65.6129 -30.9779 65.7418 -34.0662 65.9566 -40.1966C63.8941 -40.8419 62.8629 -41.2107 60.8004 -41.856C60.5856 -35.5412 60.4566 -32.4068 60.2418 -26.0919ZM51.734 -28.2583C53.7965 -27.7513 54.7848 -27.4748 56.8473 -26.9677C57.0621 -33.3747 57.191 -36.5552 57.4059 -42.9622C55.3434 -43.6076 54.3121 -43.9763 52.2496 -44.6216C52.0778 -38.0763 51.9488 -34.8037 51.734 -28.2583ZM43.2692 -30.4248C45.3317 -29.9177 46.3199 -29.6412 48.3824 -29.1341C48.5973 -35.7716 48.6832 -39.0904 48.8981 -45.6818C46.8356 -46.3271 45.8043 -46.6958 43.7418 -47.3411C43.527 -40.5654 43.441 -37.2005 43.2692 -30.4248ZM34.4606 -32.6372C36.5231 -32.1302 37.5114 -31.8537 39.5739 -31.3466C39.7457 -38.2146 39.8317 -41.6716 40.0465 -48.5396C37.984 -49.1849 36.9528 -49.5536 34.8903 -50.199C34.7184 -43.1927 34.6324 -39.6896 34.4606 -32.6372ZM67.9332 -4.3357C69.9527 -4.01305 70.984 -3.82867 73.0035 -3.50602C73.2613 -9.45211 73.3902 -12.4482 73.648 -18.3943C71.5855 -18.8552 70.5973 -19.1318 68.5348 -19.5927C68.3199 -13.4623 68.191 -10.4201 67.9332 -4.3357ZM59.5113 -5.71851C61.5309 -5.39586 62.5621 -5.21149 64.5816 -4.88883C64.8395 -11.0654 64.9254 -14.1998 65.1832 -20.3763C63.1207 -20.8373 62.1324 -21.1138 60.0699 -21.5748C59.8551 -15.2138 59.7262 -12.0794 59.5113 -5.71851ZM51.0895 -7.14742C53.109 -6.82477 54.1402 -6.6404 56.1598 -6.31774C56.3746 -12.7709 56.5035 -15.9513 56.7184 -22.3583C54.6559 -22.8193 53.6676 -23.0959 51.6051 -23.5568C51.3903 -17.0115 51.2613 -13.6927 51.0895 -7.14742ZM42.6246 -8.53024C44.6442 -8.20757 45.6754 -8.02321 47.6949 -7.70055C47.9098 -14.3841 47.9957 -17.7029 48.2106 -24.3404C46.1481 -24.8013 45.1598 -25.0779 43.0973 -25.5388C42.9254 -18.763 42.8395 -15.3521 42.6246 -8.53024ZM33.902 -10.0052C35.9215 -9.68258 36.9528 -9.49821 38.9723 -9.17556C39.1442 -16.0896 39.2301 -19.5466 39.4449 -26.4146C37.3824 -26.8755 36.3942 -27.1521 34.3317 -27.613C34.1598 -20.5607 34.0739 -17.0576 33.902 -10.0052ZM67.1168 15.3924C69.1363 15.5307 70.1246 15.6229 72.1441 15.7611C72.402 9.76897 72.5309 6.77287 72.7887 0.82679C70.7691 0.550224 69.7379 0.365845 67.7184 0.0892868C67.5035 6.17365 67.3746 9.21584 67.1168 15.3924ZM58.7809 14.701C60.8004 14.8393 61.7887 14.9315 63.8082 15.1158C64.066 8.89319 64.152 5.75882 64.4098 -0.417732C62.3902 -0.694298 61.359 -0.878677 59.3395 -1.15524C59.1246 5.1596 58.9957 8.34007 58.7809 14.701ZM50.402 14.0557C52.4215 14.194 53.4098 14.2861 55.4293 14.4244C55.6442 7.97131 55.7731 4.74475 55.9879 -1.70837C53.9684 -1.98493 52.9371 -2.16931 50.9176 -2.44587C50.7028 4.19163 50.6168 7.46429 50.402 14.0557ZM42.0231 13.4104C44.0426 13.5487 45.0309 13.6408 47.0504 13.7791C47.2653 7.09554 47.3512 3.7307 47.566 -2.95289C45.5465 -3.22945 44.5153 -3.41383 42.4957 -3.69039C42.3239 3.17757 42.2379 6.58851 42.0231 13.4104ZM33.3864 12.7651C35.4059 12.9033 36.3942 12.9955 38.4137 13.1338C38.5856 6.17366 38.6715 2.71663 38.8434 -4.19743C36.8239 -4.47399 35.7926 -4.65836 33.7731 -4.93493C33.6012 2.11741 33.5153 5.66663 33.3864 12.7651Z" fill="#27E0E3"/>
<path d="M559.281 44.5681C558.766 44.476 558.25 44.4299 557.735 44.476C554.512 44.7525 552.106 48.1174 551.547 51.5283C550.988 54.9392 551.848 58.4424 552.707 61.8072C551.719 61.6228 551.375 61.6228 550.473 61.0697C549.57 60.5166 548.281 60.3783 547.723 61.3002C547.379 61.8994 547.465 62.6369 547.637 63.3283C548.067 65.172 548.668 66.9697 549.399 68.6752C549.098 68.3986 548.539 68.9056 547.809 69.2283C546.906 69.6892 546.391 70.8416 546.348 71.9017C546.305 73.008 546.606 74.0681 546.864 75.0822C547.121 76.1423 547.379 77.2025 547.25 78.3088C546.391 77.1103 546.133 76.6033 545.403 75.3588C544.629 74.1142 543.211 73.0541 541.879 73.5611C541.149 73.8838 540.633 74.5752 540.246 75.3127C538.828 77.8478 537.969 80.7056 537.84 83.6556C538.098 81.7197 537.41 80.0142 536.508 78.3548C536.207 77.8017 535.821 77.2947 535.219 77.1564C535.047 77.1103 534.832 77.1564 534.66 77.2486C537.196 72.7314 539 68.122 539.731 62.8674C539.86 61.9455 539.903 60.8853 539.301 60.24C538.356 59.2259 536.723 60.0556 535.692 61.0236C532.985 63.5588 530.793 66.7392 529.332 70.2884C530.363 62.3142 529.16 54.801 525.68 47.7025C525.035 46.3658 523.961 44.8908 522.586 45.0752C521.383 45.2135 520.61 46.5502 520.18 47.7947C518.805 51.7588 518.633 56.2299 519.793 60.2861C518.117 57.7049 515.453 56.1377 512.918 54.5244C511.242 53.4642 509.094 52.6807 507.461 53.7408C504.668 55.5385 506.516 59.9635 507.418 62.4525C508.621 65.7713 510.34 68.8595 512.059 71.9017C510.082 69.597 507.504 67.9377 504.711 67.0619C503.981 66.8314 502.992 66.7853 502.649 67.5228C502.434 67.9838 502.606 68.5369 502.821 68.9978C504.84 73.9759 507.891 78.4931 511.715 82.1345C510.856 81.3048 507.934 81.3048 506.946 81.6736C505.957 82.0884 504.582 83.1947 504.711 84.4392C504.797 85.2689 505.528 86.0064 506.344 86.2369C503.508 86.4673 500.586 89.0025 499.254 91.6298C517.774 99.2353 538.27 98.9587 557.906 96.1009C558.379 96.0548 558.809 95.9626 559.281 95.9166V44.5681Z" fill="#4C97B0"/>
<path d="M241.097 83.518C241.269 81.4438 241.57 79.2313 242.086 77.2493C242.601 75.2212 244.148 73.5157 244.879 71.4876C245.437 69.9204 246.125 68.7219 247.457 67.6618C247.801 67.3852 248.187 67.1548 248.617 67.0626C249.047 66.9704 249.519 67.1087 249.777 67.4774C250.035 67.8462 250.035 68.3532 249.992 68.8141C249.777 71.9024 249.133 74.9446 248.101 77.8485C248.66 76.604 249.949 76.0047 251.023 75.2672C251.367 75.0368 251.754 74.8524 252.097 74.9907C252.527 75.129 252.742 75.6821 252.656 76.143C252.57 76.604 252.269 77.0188 251.969 77.3415C251.625 77.6641 251.281 77.9868 251.023 78.3555C251.84 78.3094 252.871 79.1391 253.172 79.9688C253.129 79.4618 253.472 79.1852 253.601 78.6782C253.73 78.1711 254.031 77.7102 254.461 77.5258C254.933 77.3415 255.492 77.5258 255.879 77.8946C256.265 78.2633 256.523 78.7243 256.781 79.1852C256.523 76.9266 256.308 74.2071 257.34 72.2251C257.555 71.7641 257.855 71.3493 258.285 71.0727C258.672 70.7962 259.23 70.704 259.66 70.8883C260.176 71.1188 260.433 71.6719 260.691 72.179C261.336 73.5618 261.937 74.9907 262.496 76.4196C262.625 74.8063 263.914 73.3774 265.031 72.3634C265.504 71.9485 266.191 71.6258 266.707 71.9946C267.008 72.2251 267.094 72.686 267.137 73.1009C267.265 74.5298 267.094 75.9587 266.621 77.2954C266.879 76.5579 267.996 76.0048 268.726 76.0508C269.457 76.0969 270.144 76.7423 270.316 77.4798C269.758 74.1149 270.187 71.0266 270.703 67.6618C270.875 66.4633 271.305 65.1266 272.336 64.7579C273.41 64.3891 274.527 65.311 275.215 66.279C276.59 68.261 277.406 71.0266 277.492 73.5157C278.351 71.0266 280.801 69.229 283.336 69.3212C283.765 69.3212 284.281 69.4134 284.496 69.8282C284.754 70.1969 284.625 70.7501 284.496 71.1649C283.98 72.8704 283.25 74.4837 282.304 75.9126C284.453 74.3454 286.773 72.7321 289.351 72.5477C289.867 72.5016 290.554 72.6399 290.726 73.193C290.812 73.5157 290.683 73.8844 290.512 74.2071C288.922 77.1571 286.043 79.3235 282.906 79.9227C285.012 79.3696 287.547 79.9688 289.48 80.9829C288.105 82.1352 286.172 82.504 284.496 81.9508C286.902 82.3657 289.394 84.3016 290.855 86.3758C285.57 87.2055 280.543 87.7586 275.172 87.8047C269.887 87.8969 264.601 87.943 259.359 88.0352C254.203 88.1274 249.047 88.1735 243.89 87.5282C243.117 87.436 242.301 87.2977 241.742 86.6985C241.012 85.8688 241.012 84.6243 241.097 83.518Z" fill="#4C97B0"/>
<path d="M559.281 139.615V91.4469C368.156 80.3384 178.02 78.8634 -9.45264 82.8735V139.569H559.281V139.615Z" fill="white"/>
<path d="M559.281 139.615V91.5389C373.871 85.685 181.457 82.9655 -9.45264 84.9475V139.615H559.281Z" fill="url(#paint4_linear_22185_132342)"/>
<path d="M296.57 139.615L323.554 131.088L391.187 132.655L451.171 107.303L483.699 93.2448H382.335L324.027 113.342L311.222 113.941L223.308 139.615H296.57Z" fill="url(#paint5_linear_22185_132342)"/>
<path d="M159.715 139.615L264.043 110.346L276.203 107.304H260.778L238.692 108.825L221.848 106.705L173.25 115.37L173.938 118.643L94.8324 136.942L88.516 132.886L161.133 116.015L146.739 111.775L67.2895 122.653L43.3129 116.154L-8.93701 122.653L30.4223 134.96L26.684 136.942L-7.4331 129.982L-9.40967 129.383V139.247L-8.59326 139.615H159.715Z" fill="url(#paint6_linear_22185_132342)"/>
<path d="M438.281 139.615L509.18 90.1108L506.129 89.9725L431.621 139.615H438.281Z" fill="url(#paint7_linear_22185_132342)"/>
<path d="M52.0356 89.2349H-9.40967V90.295L64.4965 99.5599L190.739 92.4614L52.0356 89.2349Z" fill="url(#paint8_linear_22185_132342)"/>
<path d="M195.68 89.2349H256.266H330.215L256.266 92.5536L195.68 89.2349Z" fill="url(#paint9_linear_22185_132342)"/>
<path d="M559.281 139.614V91.4464C547.163 91.1237 509.179 90.1097 509.179 90.1097C508.835 90.1097 507.976 90.9394 507.718 91.1237C506.3 92.0917 504.925 93.0597 503.55 94.0276C498.738 97.3925 493.968 100.711 489.156 104.076C485.847 106.381 482.539 108.685 479.273 110.99C478.156 111.774 476.996 112.511 475.835 113.295C474.933 113.894 474.031 114.447 473.171 115.092C471.753 116.06 470.378 117.075 469.132 118.181C469.734 116.337 469.777 114.309 469.218 112.465C468.874 114.124 468.402 115.738 467.757 117.259C467.027 114.539 465.695 111.958 463.976 109.792C464.621 112.05 465.179 114.355 465.523 116.66C464.75 115.692 463.589 115.139 462.386 115.185C463.203 116.383 464.062 117.582 464.878 118.78C463.589 117.904 461.871 117.766 460.453 118.411C460.839 118.227 461.957 119.287 462.257 119.471C462.343 119.564 462.429 119.61 462.515 119.702C463.16 120.301 463.503 121.085 463.976 121.868C462.386 123.021 460.625 123.942 459.035 125.095C458.777 125.279 458.476 125.464 458.218 125.648C456.886 126.57 455.597 127.492 454.265 128.414C452.289 129.796 450.269 131.179 448.293 132.608C447.347 133.253 446.402 133.945 445.457 134.59C444.554 135.235 443.609 135.881 442.707 136.526C441.246 137.54 439.785 138.554 438.324 139.568H559.281V139.614Z" fill="url(#paint10_linear_22185_132342)"/>
<path d="M533.714 82.3667C532.425 84.3487 531.136 86.3308 529.847 88.3128C532.726 86.3769 536.55 86.1925 539.601 87.8519C536.335 88.9581 533.113 90.0644 529.847 91.1706C531.995 91.4933 534.015 92.7378 535.347 94.5815C535.003 94.1206 530.792 94.8581 530.105 94.9042C528.3 94.9964 526.367 95.319 524.605 95.1808C523.359 89.6495 529.46 83.7956 533.714 82.3667Z" fill="url(#paint11_linear_22185_132342)"/>
<path d="M330.215 89.2349V89.9724L256.352 93.245L195.68 89.9724V89.2349L256.266 92.5536L330.215 89.2349Z" fill="#B59090"/>
<path d="M64.4965 99.5589L-9.40967 90.2941V91.4003L64.4965 101.264L190.739 93.2441V92.4605L64.4965 99.5589Z" fill="#B59090"/>
<path d="M186.871 92.367L65.227 98.2209L-9.40967 89.7858V90.2928L64.4965 99.5576L190.739 92.4592L186.871 92.367Z" fill="url(#paint12_linear_22185_132342)"/>
<path d="M518.375 120.348C517.215 119.749 516.097 119.012 515.109 118.136C516.097 117.997 516.871 117.905 517.859 117.905C516.226 116.845 514.679 115.647 513.176 114.356C515.152 113.941 517.086 114.033 518.933 114.863C518.031 112.144 517.129 109.424 516.226 106.705C519.234 108.594 521.468 111.959 521.812 115.693C522.5 113.204 523.832 110.899 525.594 109.147C525.336 111.59 524.734 114.033 524.004 116.384C524.648 115.14 525.508 113.987 526.539 113.112C526.883 115.324 526.195 117.721 524.777 119.334C524.476 119.703 524.218 119.887 523.789 120.072C523.789 119.426 523.617 118.781 523.273 118.274C523.187 118.136 523.058 117.997 522.929 117.997C522.715 117.997 522.586 118.228 522.5 118.458C522.242 119.15 522.027 119.841 521.855 120.579C521.511 119.795 520.996 119.104 520.394 118.551C520.308 118.458 520.136 118.366 520.051 118.412C519.879 118.505 519.922 118.735 519.922 118.919C520.051 119.519 520.136 120.118 520.265 120.717C519.578 120.809 519.062 120.671 518.375 120.348Z" fill="url(#paint13_linear_22185_132342)"/>
<path d="M140.551 116.154C140.551 116.154 159.156 113.803 182.101 110.392C205.004 106.981 223.523 103.847 223.523 103.847C223.523 103.847 204.918 106.197 181.972 109.608C159.07 112.973 140.551 116.154 140.551 116.154Z" fill="#D1B6AE"/>
<path d="M0.043457 110.666C0.043457 110.666 2.27783 111.772 5.1997 112.694C8.12157 113.616 10.5708 113.939 10.5708 113.939C10.5708 113.939 8.33642 112.833 5.41455 111.911C2.49267 110.989 0.043457 110.666 0.043457 110.666Z" fill="#D1B6AE"/>
<path d="M68.1057 115.37C68.1057 115.37 77.301 114.632 88.6018 113.249C99.9026 111.866 109.012 110.345 109.012 110.345C109.012 110.345 99.8166 111.083 88.5159 112.466C77.2151 113.848 68.1057 115.37 68.1057 115.37Z" fill="#D1B6AE"/>
<path d="M559.281 139.615V105.414L554.339 105.875L511.371 139.615H559.281Z" fill="#E6D3D3"/>
<path d="M290.082 103.707L102.309 104.168H69.481L90.5356 113.202L196.668 111.22L290.082 103.707Z" fill="#D4C3C3"/>
</g>
<path d="M533.8 103.294C535.046 103.754 536.679 102.74 536.764 101.311C536.893 99.7443 535.132 98.3615 533.757 98.9607C534.1 98.8224 534.1 95.6881 534.1 95.1349C534.057 93.7521 533.628 92.5076 532.554 91.6318C531.651 90.8943 530.362 90.6177 529.288 91.1248C528.3 91.5857 527.139 92.7381 527.225 93.8904C526.667 88.7279 522.628 84.2568 517.858 83.5654C516.011 83.2888 513.905 83.6576 512.659 85.1787C511.628 86.4693 511.413 88.3591 511.843 89.9724C512.229 91.6318 512.96 93.4295 513.948 94.7662C512.487 94.5818 511.241 96.1029 511.069 97.6701C510.597 102.141 515.409 106.751 518.932 108.041C518.159 107.765 517.343 107.488 516.526 107.672C515.71 107.857 514.979 108.686 515.151 109.516C515.28 110.161 515.839 110.576 516.311 110.945C521.253 114.448 527.913 118.643 533.972 116.476C536.12 115.739 538.097 114.033 538.784 111.729C539.944 107.857 536.764 104.722 533.8 103.294Z" fill="url(#paint14_linear_22185_132342)"/>
<path d="M559.28 17.189C556.272 17.6039 553.35 18.9406 551.073 21.0609C547.421 24.4257 545.702 29.5421 546.089 34.7046C544.413 28.8507 540.632 23.7343 535.647 20.7382C534.616 20.0929 533.413 19.5398 532.253 19.9086C530.448 20.5078 529.932 22.9047 529.932 24.9328C529.975 29.45 531.179 33.7367 533.542 37.3781C530.706 34.2437 526.925 32.0773 522.886 31.432C520.264 31.0171 517.386 31.2937 515.409 33.1375C514.55 33.921 513.948 34.9812 513.518 36.1335C513.132 37.1937 512.874 38.346 512.745 39.4984C511.886 47.6109 516.827 55.6773 523.96 58.5812C520.952 61.3929 520.78 66.6476 522.671 70.3812C524.561 74.1609 528.085 76.6499 531.737 78.4937C533.198 79.2312 534.702 79.7843 536.249 80.2452C539.944 81.2593 543.854 81.5359 547.636 81.4437C550.858 81.3515 555.971 81.4437 559.28 79.4616V17.189Z" fill="url(#paint15_linear_22185_132342)"/>
<path d="M559.28 85.5479C557.734 84.3494 555.886 83.658 553.995 83.6119C550.902 83.5658 547.851 85.3174 546.175 88.1291C545.187 89.7885 544.542 92.2314 545.874 93.6143C542.781 94.0752 540.546 97.4861 540.546 100.851C540.546 104.216 542.351 107.35 544.757 109.47C548.71 113.02 554.382 114.218 559.324 112.605V85.5479H559.28Z" fill="url(#paint16_linear_22185_132342)"/>
<path d="M531.307 113.572C533.37 117.398 536.077 120.809 539.127 123.943C538.784 129.198 538.354 134.406 537.881 139.615H539.772C539.901 138.324 540.03 136.988 540.159 135.697C540.159 135.605 540.159 135.328 540.202 135.236C546.346 126.893 552.749 117.49 556.788 107.303C557.647 107.165 558.506 106.981 559.323 106.842V105.506C558.678 105.644 557.991 105.782 557.346 105.874C558.12 103.754 558.807 101.588 559.323 99.3752V95.2267C557.991 99.79 556.358 104.261 554.424 108.548C552.061 104.492 551.159 100.02 551.288 95.2267C551.288 94.9041 550.858 94.7658 550.772 95.1345C549.999 100.251 551.288 105.321 553.909 109.562C553.221 111.083 552.491 112.604 551.674 114.079C548.323 120.348 544.456 126.202 540.417 131.963C540.846 126.663 541.19 121.316 541.491 116.015C542.049 104.999 542.221 93.9822 543.252 83.0119C543.51 80.2924 543.811 77.5728 544.155 74.8994C549.741 74.5767 555.241 71.3041 559.194 66.833C559.194 66.833 559.237 66.8791 559.28 66.8791V65.2658C558.12 66.4643 556.916 67.5705 555.627 68.5385C555.198 66.6486 554.897 64.851 555.198 62.8228C555.198 62.7307 555.069 62.6846 555.026 62.7767C554.467 64.7588 554.338 67.0174 554.983 68.9994C554.897 69.0455 554.811 69.1377 554.725 69.1838C551.416 71.4885 548.065 72.4564 544.37 73.3783C544.713 71.0736 545.057 68.815 545.53 66.5564C545.959 64.4361 546.432 62.3158 546.948 60.2416C551.116 59.9189 553.995 56.3697 556.057 52.7744C556.1 52.6822 555.971 52.59 555.885 52.6822C553.694 56.0471 550.987 58.8588 547.12 59.5041C547.292 58.9049 547.42 58.3057 547.592 57.7064C548.237 55.3557 549.182 53.051 549.569 50.608C549.612 50.2393 549.139 50.0088 548.967 50.3314C547.077 53.3736 546.174 57.2455 545.272 60.7486C545.1 61.3478 544.971 61.9932 544.799 62.5924C542.694 58.7666 541.362 54.8947 541.405 50.3775C541.405 50.2853 541.276 50.2853 541.233 50.3775C540.631 54.9869 541.577 60.0111 544.542 63.5603C543.768 66.833 543.166 70.1056 542.651 73.4244C541.92 78.126 541.448 82.8736 541.104 87.6213C538.827 82.5049 536.635 77.7572 535.604 72.0416C535.26 70.0135 535.002 67.9853 534.874 65.9111C534.917 65.9572 535.002 66.0033 535.131 65.9572C537.752 65.6346 538.913 62.2697 539.471 59.965C539.514 59.7346 539.213 59.6885 539.127 59.8728C538.655 60.933 538.182 62.1314 537.538 63.0994C536.85 64.1596 536.034 64.6205 534.959 65.2197C534.916 65.2197 534.874 65.2658 534.831 65.3119C534.659 61.5783 534.831 57.8447 535.389 54.1572C535.389 54.065 535.26 54.0189 535.217 54.1111C534.358 59.0432 534.186 64.0213 534.659 68.9533C530.749 65.4041 528.729 60.5182 528.471 55.033C528.471 54.9408 528.299 54.9408 528.299 55.033C528.127 60.7025 530.577 66.0494 534.573 69.6908C534.616 69.7369 534.659 69.7369 534.702 69.7369C534.788 70.6588 534.917 71.5806 535.088 72.5025C535.991 78.126 537.667 84.4408 540.674 89.1884C540.717 89.2806 540.803 89.3267 540.932 89.3728C540.717 92.7377 540.545 96.1025 540.374 99.4673C540.03 107.165 539.643 114.817 539.127 122.468C535.045 118.965 532.124 114.171 530.018 109.009C531.522 108.087 532.639 106.52 533.284 104.86C533.37 104.676 533.069 104.538 532.983 104.722C532.209 106.335 531.092 107.395 529.717 108.363C528.987 106.474 528.342 104.538 527.784 102.602C527.784 102.51 527.655 102.556 527.655 102.648C528.084 106.289 529.159 109.608 530.663 112.65C526.624 110.668 522.971 107.58 522.155 102.556C522.155 102.51 522.069 102.51 522.069 102.556C522.713 108.087 526.967 111.267 531.307 113.572Z" fill="#733A1A"/>
<path d="M559.28 17.189C556.272 17.6039 553.351 18.9406 551.073 21.0609C547.421 24.4257 545.702 29.5421 546.089 34.7046C544.413 28.8507 540.632 23.7343 535.647 20.7382C534.616 20.0929 533.413 19.5398 532.253 19.9086C530.448 20.5078 529.933 22.9047 529.933 24.9328C529.976 29.45 531.179 33.7367 533.542 37.3781C530.706 34.2437 526.925 32.0773 522.886 31.432C520.265 31.0171 517.386 31.2937 515.409 33.1375C514.55 33.921 513.948 34.9812 513.519 36.1335C513.519 37.4242 513.776 38.7609 514.335 39.9132C515.581 42.6328 517.987 44.5687 520.522 45.9515C523.573 47.657 527.097 48.671 530.491 48.0718C533.886 47.4726 537.108 44.9835 538.097 41.4343C539.171 42.7249 540.03 44.2921 541.448 45.0757C542.866 45.8593 544.714 45.9515 545.96 44.8914C547.163 43.8773 547.507 42.1257 547.722 40.5124C548.409 43.6468 551.46 45.7671 554.468 45.9054C556.144 45.9976 557.819 45.5367 559.366 44.7531V17.189H559.28Z" fill="url(#paint17_linear_22185_132342)"/>
<path d="M549.85 113.085C549.635 114.514 549.205 115.897 548.604 117.187C547.83 118.939 546.713 120.506 545.51 121.889C543.319 124.332 540.698 126.222 537.948 127.927C536.787 128.618 535.584 129.31 534.295 129.586C533.006 129.863 531.545 129.725 530.471 128.895C529.526 130.186 528.108 130.785 526.776 131.661C525.444 132.536 523.768 132.951 522.307 132.306C520.373 131.476 519.428 129.079 519.428 126.867C519.428 124.931 519.987 123.087 520.545 121.243C520.03 122.073 518.741 122.58 517.795 122.488C516.592 122.35 515.604 120.967 515.819 119.676L515.174 119.215C514.959 121.75 513.412 123.871 511.479 125.208C510.662 125.807 510.147 125.991 509.116 125.853C508.772 125.807 505.764 124.608 505.764 124.516C503.401 127.097 499.319 127.604 496.483 125.668C494.764 124.516 493.604 122.488 493.26 120.368C493.088 119.354 492.959 118.017 493.303 117.003C493.432 116.68 494.377 114.79 494.979 115.343C490.682 111.379 488.19 105.525 487.846 99.4872C487.674 96.445 488.104 93.3106 489.092 90.4528C489.952 88.0099 491.455 85.5208 493.819 84.9677C495.838 84.5068 497.987 85.6591 499.362 87.3646C500.737 89.07 501.467 91.1903 502.198 93.3107C502.069 92.0661 502.885 91.1903 504.002 90.7755C505.119 90.4067 506.494 90.9599 507.053 92.02C505.764 86.581 506.194 80.9114 507.741 75.5185C508.17 73.9513 508.901 72.2919 510.319 71.6927C511.866 71.0474 513.584 71.9693 514.787 73.1216C516.506 74.7349 517.323 76.5786 518.311 78.6989C519.385 80.9114 520.502 82.7091 520.631 85.2903C522.135 82.2481 524.326 79.5747 526.948 77.6388C527.85 76.9474 528.924 76.3482 530.041 76.3482C532.362 76.3943 533.909 79.0216 534.424 81.4185C535.198 84.9677 534.811 88.7013 533.823 92.2044C533.307 94.002 532.533 95.5692 531.932 97.3208C534.209 95.5692 537.303 95.1083 539.924 96.0763C540.397 96.2607 540.912 96.5372 540.998 97.0442C541.127 97.5052 540.826 97.9661 540.612 98.3349C539.967 99.3489 539.323 100.409 538.721 101.423C541.6 100.04 545.166 101.193 547.358 103.636C549.549 106.125 550.366 109.766 549.85 113.085Z" fill="url(#paint18_linear_22185_132342)"/>
<path d="M506.925 114.652C508.558 119.169 510.964 123.41 514.015 127.097C514.058 127.189 514.144 127.235 514.23 127.281C514.273 129.356 514.359 131.476 514.53 133.55C514.702 136.224 515.003 138.897 515.304 141.571H516.808C516.636 140.049 516.464 138.574 516.335 137.053C522.222 133.366 527.593 127.835 530.901 121.243C533.909 121.059 536.53 119.399 538.034 116.542C538.206 116.219 537.819 115.896 537.605 116.219C536.144 118.432 533.909 119.906 531.417 120.229C532.534 117.786 533.351 115.205 533.823 112.485C533.866 112.117 533.351 111.978 533.222 112.347C531.632 116.634 529.698 120.644 527.378 124.239C526.991 123.41 526.476 122.626 526.175 121.704C525.831 120.598 525.616 119.399 525.444 118.247C525.401 117.971 525.058 118.017 525.015 118.247C524.542 120.414 525.058 123.686 526.648 125.253C526.648 125.253 526.648 125.253 526.691 125.253C523.898 129.264 520.503 132.767 516.249 135.578C516.206 134.979 516.163 134.426 516.12 133.827C515.691 127.65 515.734 121.52 515.819 115.343C517.882 114.698 520.331 112.992 521.921 111.471C523.769 109.674 524.241 106.908 525.401 104.603C525.53 104.327 525.187 104.05 525.015 104.327C523.683 106.355 523.124 109.074 521.277 110.688C519.644 112.163 517.452 112.808 515.819 114.237C515.905 108.752 515.991 103.267 515.691 97.7354C515.691 97.5049 515.304 97.5049 515.304 97.7354C515.132 100.732 514.917 103.728 514.745 106.724C513.929 106.124 513.155 105.571 512.554 104.603C511.651 103.267 511.136 101.746 511.05 100.086C511.05 99.994 510.878 99.994 510.878 100.086C510.792 102.852 512.21 106.355 514.702 107.553C514.359 113.407 514.144 119.215 514.187 125.069C510.577 120.782 507.913 115.758 506.366 110.319C508.128 109.766 509.804 108.429 511.093 107.092C511.222 107 511.05 106.816 510.964 106.908C510.148 107.507 509.288 108.106 508.386 108.567C507.655 108.936 506.925 109.213 506.194 109.535C505.55 107.046 505.077 104.465 504.905 101.838C504.862 101.561 504.476 101.653 504.519 101.93C504.691 105.94 505.378 109.858 506.624 113.592C502.413 112.255 499.534 106.217 498.675 102.068C498.589 101.653 498.03 101.792 498.073 102.16C498.804 107.046 501.984 113.546 506.925 114.652Z" fill="#733A1A"/>
<path d="M549.85 113.085C549.635 114.514 549.206 115.897 548.604 117.187C546.241 117.925 543.577 117.879 541.17 117.233C538.292 116.496 535.456 114.744 534.253 111.84C533.135 109.121 533.866 104.88 536.315 103.728C534.811 104.281 533.307 104.742 531.76 104.604C529.999 104.419 528.237 103.267 527.85 101.423C527.549 99.8559 528.28 97.9661 529.182 96.6755C527.85 97.7356 526.003 97.8739 524.499 97.2286C522.952 96.5833 521.749 95.2005 521.061 93.5872C520.374 91.9739 519.815 89.9919 519.901 88.1942C519.428 90.8677 517.71 93.2646 515.389 94.4169C513.069 95.5692 509.889 95.431 507.655 94.0942C507.526 94.7856 507.354 95.431 507.096 96.0763C506.796 96.6755 506.366 97.2286 505.764 97.4591C505.034 97.7356 504.217 97.5513 503.487 97.2286C501.94 96.4911 500.522 94.9239 499.963 93.2185C499.276 94.7856 498.588 96.3528 497.643 97.7817C496.698 99.2106 495.495 100.409 493.991 101.1C492.487 101.792 490.725 101.838 489.307 100.962C488.749 100.593 488.233 100.086 487.889 99.4872C487.717 96.445 488.147 93.3106 489.135 90.4528C489.995 88.0099 491.499 85.5208 493.862 84.9677C495.881 84.5067 498.03 85.6591 499.405 87.3646C500.78 89.07 501.51 91.1903 502.241 93.3107C502.112 92.0661 502.928 91.1903 504.045 90.7755C505.163 90.4067 506.538 90.9599 507.096 92.02C505.807 86.581 506.237 80.9114 507.784 75.5185C508.213 73.9513 508.944 72.2919 510.362 71.6927C511.909 71.0474 513.628 71.9693 514.831 73.1216C516.549 74.7349 517.366 76.5786 518.354 78.6989C519.428 80.9114 520.545 82.7091 520.674 85.2903C522.178 82.2481 524.37 79.5747 526.991 77.6388C527.893 76.9474 528.967 76.3482 530.085 76.3482C532.405 76.3942 533.952 79.0216 534.467 81.4185C535.241 84.9677 534.854 88.7013 533.866 92.2044C533.35 94.002 532.577 95.5692 531.975 97.3208C534.252 95.5692 537.346 95.1083 539.967 96.0763C540.44 96.2606 540.956 96.5372 541.042 97.0442C541.17 97.5052 540.87 97.9661 540.655 98.3349C540.01 99.3489 539.366 100.409 538.764 101.423C541.643 100.04 545.21 101.193 547.401 103.636C549.549 106.125 550.366 109.766 549.85 113.085Z" fill="url(#paint19_linear_22185_132342)"/>
<path d="M152.013 108.472H-43.779C-44.3725 108.472 -44.8541 108.026 -44.8541 107.475C-44.8541 106.925 -44.3731 106.479 -43.779 106.479H152.013C152.607 106.479 153.089 106.925 153.089 107.475C153.088 108.026 152.607 108.472 152.013 108.472Z" fill="#C5D2D3"/>
<path d="M108.494 100.371C104.262 90.7927 112.625 82.4787 120.234 81.2149C129.27 79.7141 141.394 87.7552 137.753 100.034L108.494 100.371Z" fill="#190C13"/>
<path d="M155.245 92.1535C155.305 94.2599 154.497 96.3105 152.99 97.8903L152.679 98.2194L143.467 99.7739L140.666 100.245L137.4 100.255C137.897 98.7612 138.132 97.1612 138.055 95.5055C137.728 88.194 131.17 82.2749 123.279 82.1433C114.838 82.0066 107.946 88.3155 107.946 96.108C107.946 97.5865 108.198 99.0144 108.656 100.356L104.321 100.371H103.534L102.082 100.336L9.67428 97.9409L3.81519 97.789C3.88618 97.2321 3.9244 96.665 3.9244 96.0877C3.91894 92.6345 2.52106 89.4092 0.200356 86.9332C-2.14765 84.4319 -5.42939 82.6952 -9.16981 82.2597C-14.33 81.6521 -19.0642 83.4749 -22.2258 86.6598C-24.6885 89.1459 -26.1956 92.4624 -26.1956 96.108C-26.1956 96.4118 -26.1847 96.7105 -26.1574 97.0093L-28.3361 96.9536L-32.426 95.9915L-39.5027 94.3257L-45.4164 92.9383L-47.1747 92.5231L-48.4033 82.9635L-47.7208 81.5104C-47.7262 81.4749 -47.7262 81.4445 -47.7317 81.4091C-47.9337 79.1205 -48.0975 76.3812 -48.1303 73.2824C-48.1467 71.8596 -48.1521 68.371 -47.8081 64.0418C-47.7808 63.7076 -47.7535 63.3735 -47.7208 63.0291C-47.5624 61.2519 -46.7543 52.8923 -43.6254 41.8897C-43.2432 40.5428 -42.8446 39.2263 -42.4296 37.9402C-41.7197 35.7174 -40.9716 33.5908 -40.2017 31.5655C-39.8413 30.6035 -39.4754 29.6667 -39.1041 28.7553C-38.6018 27.5249 -37.6353 26.5426 -36.4285 25.9604C-36.0954 25.7933 -35.7459 25.6616 -35.3801 25.5654C-34.976 25.4591 -34.5556 25.3882 -34.1242 25.368C-31.0827 25.211 -28.0194 25.0642 -24.9397 24.9224C-22.1985 24.8009 -19.4464 24.6844 -16.6725 24.5781H-16.667C-12.8556 24.4312 -9.01693 24.2996 -5.13999 24.1831C-2.16949 24.092 0.817387 24.011 3.82611 23.9401C7.50101 23.854 11.2087 23.7781 14.9382 23.7224C15.5334 23.7122 16.1231 23.7072 16.7183 23.6971H16.7238C17.3244 23.6869 17.9251 23.6819 18.5257 23.6717C20.6171 23.6464 22.692 23.6262 24.767 23.611C28.5948 23.5755 32.3953 23.5603 36.1685 23.5654C39.4175 23.5654 42.6446 23.5806 45.8554 23.6059C49.978 23.6363 54.0734 23.6819 58.1251 23.7527C60.757 23.7933 63.378 23.8439 65.9772 23.9046C66.5506 23.9148 67.1185 23.9502 67.6864 24.0009C70.7606 24.2743 73.7584 25.0996 76.4996 26.4363L94.4536 35.1807L124.486 61.0696L126.605 61.1304C130.782 62.2443 135.686 63.8747 140.939 66.3203C145.012 68.214 148.512 70.2343 151.45 72.1432L152.968 82.9332L153.088 83.7889C153.732 84.5028 154.229 85.3129 154.579 86.1737C154.923 87.0294 155.119 87.9459 155.147 88.8725L155.245 92.1535Z" fill="#FCFCFC"/>
<path d="M72.1371 27.2659L68.211 29.828C65.2732 29.7419 62.3191 29.671 59.3432 29.6052L62.5812 27.0786L58.1255 23.752C60.7574 23.7925 63.3785 23.8431 65.9777 23.9039C66.551 23.914 67.1189 23.9494 67.6868 24.0001L72.1371 27.2659Z" fill="#0B7F7C"/>
<path d="M105.128 88.2197L104.32 100.372H103.534L102.081 100.336L9.67375 97.9413L3.81467 97.7894C3.88565 97.2324 3.92388 96.6654 3.92388 96.0881C3.91842 92.6349 2.52053 89.4096 0.199829 86.9336L105.128 88.2197Z" fill="#DB4A47"/>
<path d="M70.7713 36.3204C70.7713 36.3204 43.4689 36.0672 16.8491 36.0672C-5.29859 36.0672 -33.562 37.4698 -42.4298 37.9407C-41.7199 35.7179 -40.9719 33.5913 -40.2019 31.5659C-0.662647 27.7127 70.6348 29.9912 70.6348 29.9912L70.7713 36.3204Z" fill="#DB4A47"/>
<path d="M4.88013 74.3281H1.86377V77.1251H4.88013V74.3281Z" fill="#DB4A47"/>
<path d="M11.4634 74.332H8.44702V77.129H11.4634V74.332Z" fill="#DB4A47"/>
<path d="M18.0466 74.334H15.0303V77.131H18.0466V74.334Z" fill="#DB4A47"/>
<path d="M24.6289 74.3359H21.6125V77.1329H24.6289V74.3359Z" fill="#DB4A47"/>
<path d="M31.2122 74.3379H28.1958V77.1349H31.2122V74.3379Z" fill="#DB4A47"/>
<path d="M37.7954 74.3418H34.7791V77.1388H37.7954V74.3418Z" fill="#DB4A47"/>
<path d="M44.3777 74.3438H41.3613V77.1408H44.3777V74.3438Z" fill="#DB4A47"/>
<path d="M50.962 74.3457H47.9457V77.1427H50.962V74.3457Z" fill="#DB4A47"/>
<path d="M57.5442 74.3496H54.5278V77.1466H57.5442V74.3496Z" fill="#DB4A47"/>
<path d="M64.1265 74.3516H61.1101V77.1485H64.1265V74.3516Z" fill="#DB4A47"/>
<path d="M70.7108 74.3555H67.6945V77.1525H70.7108V74.3555Z" fill="#DB4A47"/>
<path d="M77.293 74.3574H74.2766V77.1544H77.293V74.3574Z" fill="#DB4A47"/>
<path d="M83.8763 74.3594H80.86V77.1564H83.8763V74.3594Z" fill="#DB4A47"/>
<path d="M90.4594 74.3631H87.443V77.1601H90.4594V74.3631Z" fill="#DB4A47"/>
<path d="M97.0428 74.3652H94.0265V77.1622H97.0428V74.3652Z" fill="#DB4A47"/>
<path d="M103.625 74.3672H100.609V77.1642H103.625V74.3672Z" fill="#DB4A47"/>
<path d="M110.208 74.3691H107.192V77.1661H110.208V74.3691Z" fill="#DB4A47"/>
<path d="M1.58887 74.3263H-1.42749V77.1233H1.58887V74.3263Z" fill="#EFEFEF"/>
<path d="M8.17212 74.3302H5.15576V77.1272H8.17212V74.3302Z" fill="#EFEFEF"/>
<path d="M14.7544 74.3322H11.738V77.1291H14.7544V74.3322Z" fill="#EFEFEF"/>
<path d="M21.3377 74.3361H18.3213V77.133H21.3377V74.3361Z" fill="#EFEFEF"/>
<path d="M27.9209 74.338H24.9045V77.135H27.9209V74.338Z" fill="#EFEFEF"/>
<path d="M34.5042 74.34H31.4878V77.137H34.5042V74.34Z" fill="#EFEFEF"/>
<path d="M41.0864 74.3419H38.0701V77.1389H41.0864V74.3419Z" fill="#EFEFEF"/>
<path d="M47.6697 74.3458H44.6533V77.1428H47.6697V74.3458Z" fill="#EFEFEF"/>
<path d="M54.2529 74.3478H51.2366V77.1448H54.2529V74.3478Z" fill="#EFEFEF"/>
<path d="M60.8352 74.3497H57.8188V77.1467H60.8352V74.3497Z" fill="#EFEFEF"/>
<path d="M67.4185 74.3536H64.4021V77.1506H67.4185V74.3536Z" fill="#EFEFEF"/>
<path d="M74.0017 74.3556H70.9854V77.1526H74.0017V74.3556Z" fill="#EFEFEF"/>
<path d="M80.585 74.3595H77.5686V77.1565H80.585V74.3595Z" fill="#EFEFEF"/>
<path d="M87.1675 74.3612H84.1511V77.1582H87.1675V74.3612Z" fill="#EFEFEF"/>
<path d="M93.7505 74.3634H90.7341V77.1604H93.7505V74.3634Z" fill="#EFEFEF"/>
<path d="M100.334 74.3654H97.3174V77.1624H100.334V74.3654Z" fill="#EFEFEF"/>
<path d="M106.916 74.3693H103.9V77.1662H106.916V74.3693Z" fill="#EFEFEF"/>
<path d="M113.5 74.3712H110.484V77.1682H113.5V74.3712Z" fill="#EFEFEF"/>
<path d="M4.88062 80.3401H1.86426V83.1371H4.88062V80.3401Z" fill="#DB4A47"/>
<path d="M11.464 80.344H8.44763V83.141H11.464V80.344Z" fill="#DB4A47"/>
<path d="M18.0473 80.3459H15.0309V83.1429H18.0473V80.3459Z" fill="#DB4A47"/>
<path d="M24.6294 80.3499H21.613V83.1469H24.6294V80.3499Z" fill="#DB4A47"/>
<path d="M31.2128 80.3518H28.1964V83.1488H31.2128V80.3518Z" fill="#DB4A47"/>
<path d="M37.796 80.3538H34.7797V83.1507H37.796V80.3538Z" fill="#DB4A47"/>
<path d="M44.3782 80.3577H41.3618V83.1547H44.3782V80.3577Z" fill="#DB4A47"/>
<path d="M50.9625 80.3596H47.9462V83.1566H50.9625V80.3596Z" fill="#DB4A47"/>
<path d="M57.5448 80.3616H54.5284V83.1586H57.5448V80.3616Z" fill="#DB4A47"/>
<path d="M64.127 80.3655H61.1106V83.1625H64.127V80.3655Z" fill="#DB4A47"/>
<path d="M70.7113 80.3674H67.6949V83.1644H70.7113V80.3674Z" fill="#DB4A47"/>
<path d="M77.2936 80.3694H74.2772V83.1664H77.2936V80.3694Z" fill="#DB4A47"/>
<path d="M83.8768 80.3733H80.8605V83.1703H83.8768V80.3733Z" fill="#DB4A47"/>
<path d="M90.4601 80.3752H87.4437V83.1722H90.4601V80.3752Z" fill="#DB4A47"/>
<path d="M97.0433 80.3772H94.027V83.1742H97.0433V80.3772Z" fill="#DB4A47"/>
<path d="M103.626 80.3811H100.609V83.1781H103.626V80.3811Z" fill="#DB4A47"/>
<path d="M110.209 80.383H107.192V83.18H110.209V80.383Z" fill="#DB4A47"/>
<path d="M1.58936 80.34H-1.427V83.137H1.58936V80.34Z" fill="#EFEFEF"/>
<path d="M8.17261 80.3419H5.15625V83.1389H8.17261V80.3419Z" fill="#EFEFEF"/>
<path d="M14.7549 80.3439H11.7385V83.1409H14.7549V80.3439Z" fill="#EFEFEF"/>
<path d="M21.3381 80.3478H18.3218V83.1448H21.3381V80.3478Z" fill="#EFEFEF"/>
<path d="M27.9214 80.3497H24.905V83.1467H27.9214V80.3497Z" fill="#EFEFEF"/>
<path d="M34.5046 80.3536H31.4883V83.1506H34.5046V80.3536Z" fill="#EFEFEF"/>
<path d="M41.0869 80.3556H38.0706V83.1526H41.0869V80.3556Z" fill="#EFEFEF"/>
<path d="M47.6702 80.3575H44.6538V83.1545H47.6702V80.3575Z" fill="#EFEFEF"/>
<path d="M54.2534 80.3615H51.2371V83.1584H54.2534V80.3615Z" fill="#EFEFEF"/>
<path d="M60.8357 80.3634H57.8193V83.1604H60.8357V80.3634Z" fill="#EFEFEF"/>
<path d="M67.4189 80.3654H64.4026V83.1624H67.4189V80.3654Z" fill="#EFEFEF"/>
<path d="M74.0022 80.3693H70.9858V83.1662H74.0022V80.3693Z" fill="#EFEFEF"/>
<path d="M80.5855 80.3712H77.5691V83.1682H80.5855V80.3712Z" fill="#EFEFEF"/>
<path d="M87.1677 80.3732H84.1514V83.1702H87.1677V80.3732Z" fill="#EFEFEF"/>
<path d="M93.751 80.3771H90.7346V83.1741H93.751V80.3771Z" fill="#EFEFEF"/>
<path d="M100.334 80.3789H97.318V83.1759H100.334V80.3789Z" fill="#EFEFEF"/>
<path d="M106.917 80.381H103.9V83.178H106.917V80.381Z" fill="#EFEFEF"/>
<path d="M113.501 80.3849H110.484V83.1819H113.501V80.3849Z" fill="#EFEFEF"/>
<path d="M1.57324 77.3203H-1.44312V80.1173H1.57324V77.3203Z" fill="#DB4A47"/>
<path d="M8.1565 77.3242H5.14014V80.1212H8.1565V77.3242Z" fill="#DB4A47"/>
<path d="M14.7395 77.3259H11.7231V80.1229H14.7395V77.3259Z" fill="#DB4A47"/>
<path d="M21.322 77.3301H18.3057V80.1271H21.322V77.3301Z" fill="#DB4A47"/>
<path d="M27.9055 77.3318H24.8892V80.1289H27.9055V77.3318Z" fill="#DB4A47"/>
<path d="M34.4885 77.334H31.4722V80.131H34.4885V77.334Z" fill="#DB4A47"/>
<path d="M41.0718 77.3359H38.0554V80.1329H41.0718V77.3359Z" fill="#DB4A47"/>
<path d="M47.6541 77.3398H44.6377V80.1368H47.6541V77.3398Z" fill="#DB4A47"/>
<path d="M54.2384 77.3418H51.222V80.1388H54.2384V77.3418Z" fill="#DB4A47"/>
<path d="M60.8206 77.3457H57.8042V80.1427H60.8206V77.3457Z" fill="#DB4A47"/>
<path d="M67.4028 77.3477H64.3865V80.1447H67.4028V77.3477Z" fill="#DB4A47"/>
<path d="M73.9872 77.3516H70.9708V80.1486H73.9872V77.3516Z" fill="#DB4A47"/>
<path d="M80.5692 77.3536H77.5529V80.1506H80.5692V77.3536Z" fill="#DB4A47"/>
<path d="M87.1527 77.3555H84.1364V80.1525H87.1527V77.3555Z" fill="#DB4A47"/>
<path d="M93.736 77.3594H90.7196V80.1564H93.736V77.3594Z" fill="#DB4A47"/>
<path d="M100.318 77.3613H97.3018V80.1583H100.318V77.3613Z" fill="#DB4A47"/>
<path d="M106.901 77.3633H103.885V80.1603H106.901V77.3633Z" fill="#DB4A47"/>
<path d="M113.485 77.3672H110.468V80.1642H113.485V77.3672Z" fill="#DB4A47"/>
<path d="M4.86536 77.3223H1.849V80.1193H4.86536V77.3223Z" fill="#EFEFEF"/>
<path d="M11.4486 77.3262H8.43225V80.1232H11.4486V77.3262Z" fill="#EFEFEF"/>
<path d="M18.0309 77.3281H15.0145V80.1251H18.0309V77.3281Z" fill="#EFEFEF"/>
<path d="M24.6141 77.3301H21.5978V80.1271H24.6141V77.3301Z" fill="#EFEFEF"/>
<path d="M31.1972 77.3339H28.1808V80.1308H31.1972V77.3339Z" fill="#EFEFEF"/>
<path d="M37.7806 77.3359H34.7643V80.1329H37.7806V77.3359Z" fill="#EFEFEF"/>
<path d="M44.3629 77.3379H41.3466V80.1349H44.3629V77.3379Z" fill="#EFEFEF"/>
<path d="M50.946 77.3417H47.9297V80.1387H50.946V77.3417Z" fill="#EFEFEF"/>
<path d="M57.5294 77.3438H54.5131V80.1408H57.5294V77.3438Z" fill="#EFEFEF"/>
<path d="M64.1117 77.3477H61.0953V80.1446H64.1117V77.3477Z" fill="#EFEFEF"/>
<path d="M70.6949 77.3497H67.6786V80.1467H70.6949V77.3497Z" fill="#EFEFEF"/>
<path d="M77.2782 77.3535H74.2618V80.1505H77.2782V77.3535Z" fill="#EFEFEF"/>
<path d="M83.8605 77.3555H80.8441V80.1525H83.8605V77.3555Z" fill="#EFEFEF"/>
<path d="M90.4439 77.3576H87.4275V80.1546H90.4439V77.3576Z" fill="#EFEFEF"/>
<path d="M97.027 77.3613H94.0106V80.1583H97.027V77.3613Z" fill="#EFEFEF"/>
<path d="M103.61 77.3633H100.594V80.1603H103.61V77.3633Z" fill="#EFEFEF"/>
<path d="M110.193 77.3652H107.176V80.1622H110.193V77.3652Z" fill="#EFEFEF"/>
<path d="M116.776 77.3691H113.759V80.1661H116.776V77.3691Z" fill="#EFEFEF"/>
<path d="M89.5421 74.2955L113.485 77.3669L115.138 73.4727L89.5421 74.2955Z" fill="#FCFCFC"/>
<path d="M-45.7643 68.9783L-45.6731 74.4214L89.2006 74.3369C80.6162 73.4032 67.6929 72.1419 51.8876 71.1723C34.1378 70.0837 20.4281 69.8411 -6.26648 69.4001C-16.0456 69.2386 -29.5538 69.0583 -45.7643 68.9783Z" fill="#DB4A47"/>
<path d="M-26.4934 96.9544C-26.4312 88.2616 -19.4658 80.4509 -10.385 80.815C-1.62259 81.1664 4.60672 89.3968 4.35827 97.7772C-6.53975 97.6086 -15.5954 97.123 -26.4934 96.9544Z" fill="#190C13"/>
<path d="M16.5758 38.0059L15.3909 63.3226L15.3855 63.4441C-4.70308 63.1373 -26.1409 62.8031 -35.9763 62.6492C-38.8665 62.6041 -41.0196 60.1686 -40.5069 57.5306L-37.4829 41.9755C-37.4829 41.9755 -37.39 38.7654 -32.4756 38.5983C-27.5612 38.4312 16.5758 38.0059 16.5758 38.0059Z" stroke="#494949" stroke-width="0.126584" stroke-miterlimit="10"/>
<path d="M66.2668 40.0312V40.0717C66.234 42.2084 63.8096 59.8643 63.8096 59.8643C63.8096 59.8643 63.4437 64.0821 59.534 64.0821C58.7423 64.0821 54.1828 64.0214 47.4063 63.9201H47.4009C44.5287 63.8796 41.2524 63.834 37.6976 63.7834C35.781 63.753 33.7824 63.7226 31.7184 63.6922C28.6114 63.6467 25.3624 63.596 22.0315 63.5454C19.8473 63.5099 17.6249 63.4796 15.3861 63.4441L15.3916 63.3226L16.5765 38.0059L41.8421 38.097L51.9276 38.1375L57.6502 38.1578L63.0834 38.178C63.0834 38.178 66.2668 38.0919 66.2668 40.0312Z" fill="#98D3EA"/>
<path d="M120.691 66.8663C120.691 66.8663 111.823 65.2613 102.53 63.6005H102.524C97.768 62.7448 92.8973 61.8739 89.0476 61.1954C85.3836 60.5473 82.6479 60.0713 81.8289 59.9498C81.3811 59.884 80.9661 59.7726 80.5893 59.6359C78.6181 58.927 77.5642 57.4536 77.2202 56.8865V56.8814C77.1383 56.7396 77.0946 56.6586 77.0946 56.6586L75.2435 45.3319V45.3268L74.6811 41.9091L74.4572 40.5369C74.3644 38.7242 76.8708 38.5977 76.8708 38.5977C76.8708 38.5977 77.8318 38.6736 79.2898 38.7951H79.2952C81.5777 38.9774 85.0942 39.2812 88.1248 39.5951C89.4025 39.7268 90.5929 39.8584 91.5649 39.9901C92.1546 40.0711 92.6898 40.1673 93.1812 40.2787C96.6377 41.0635 97.6206 42.5218 97.6206 42.5218C97.6206 42.5218 98.5379 43.3167 100.007 44.6281C102.207 46.5977 105.658 49.737 109.088 53.0687C114.958 58.7802 120.795 65.0638 121.281 65.8132C122.236 67.2917 120.691 66.8663 120.691 66.8663Z" fill="#44BDE2"/>
<path d="M107.22 59.7383L106.674 63.156L102.53 63.6016H102.524C93.2305 61.9307 83.5109 60.2041 81.829 59.9509C78.4599 59.4446 77.0948 56.6598 77.0948 56.6598L74.6813 41.9102C79.3991 42.3001 91.6197 43.3786 94.2516 44.2951C97.5279 45.4343 107.22 59.7383 107.22 59.7383Z" fill="#98D3EA"/>
<path d="M-11.3408 108.345C-4.14073 108.345 1.69608 102.933 1.69608 96.2567C1.69608 89.5803 -4.14073 84.168 -11.3408 84.168C-18.5409 84.168 -24.3777 89.5803 -24.3777 96.2567C-24.3777 102.933 -18.5409 108.345 -11.3408 108.345Z" fill="#262626"/>
<path d="M-11.3403 107.586C-4.59258 107.586 0.877516 102.514 0.877516 96.2571C0.877516 90.0001 -4.59258 84.9279 -11.3403 84.9279C-18.088 84.9279 -23.5581 90.0001 -23.5581 96.2571C-23.5581 102.514 -18.088 107.586 -11.3403 107.586Z" fill="#3D3D3D"/>
<path d="M9.7508 96.2539C9.7508 96.821 9.7235 97.383 9.67435 97.94L3.81526 97.7881C3.88625 97.2311 3.92447 96.664 3.92447 96.0868C3.91355 89.1348 -1.73258 83.1297 -9.16974 82.2588C-18.3597 81.1803 -26.1955 87.793 -26.1955 96.107C-26.1955 96.4108 -26.1846 96.7096 -26.1573 97.0083L-28.336 96.9526L-32.4259 95.9906C-32.2785 85.312 -22.8974 76.6992 -11.343 76.6992C0.309635 76.6992 9.7508 85.4537 9.7508 96.2539Z" fill="#EFEFEF"/>
<path d="M143.805 96.2539C143.805 97.4539 143.69 98.6336 143.467 99.7729L140.665 100.244L137.4 100.254C137.897 98.7602 138.132 97.1602 138.055 95.5045C137.728 88.193 131.17 82.274 123.279 82.1423C114.837 82.0056 107.946 88.3145 107.946 96.107C107.946 97.5855 108.197 99.0134 108.656 100.355L103.534 100.37L102.082 100.335C101.781 99.0185 101.623 97.6514 101.623 96.2539C101.623 85.4537 111.064 76.6992 122.711 76.6992C134.364 76.6992 143.805 85.4537 143.805 96.2539Z" fill="#EFEFEF"/>
<path d="M-43.8979 68.9785L39.2378 70.7507C50.8598 71.1907 63.0274 71.9249 75.6864 73.0292C89.9639 74.2748 103.542 75.8758 116.367 77.7128" stroke="#494949" stroke-width="0.126584" stroke-miterlimit="10"/>
<path d="M71.4541 24.59H87.6537C88.4203 24.6654 90.0956 24.9328 91.6579 26.109C94.2827 28.0847 94.4585 31.0214 94.4793 31.51L94.4536 35.181L71.4541 24.59Z" fill="#2C0F0E"/>
<path d="M-4.26453 83.7462L3.47133 82.5645L106.219 84.5057L112.954 85.687" stroke="#494949" stroke-width="0.126584" stroke-miterlimit="10"/>
<path d="M133.43 86.0251L139.619 84.9279H146.99L150.449 81.6367" stroke="#494949" stroke-width="0.126584" stroke-miterlimit="10"/>
<path d="M69.543 99.2324L69.816 72.5232C69.816 72.5232 70.7006 29.2316 70.6351 27.0139C70.6023 25.9961 70.717 25.1252 70.848 24.4822" stroke="#494949" stroke-width="0.126584" stroke-miterlimit="10"/>
<path d="M71.9998 36.1934L72.9553 72.6495L74.3205 75.0546C74.3445 78.4885 74.5383 82.2643 75.003 86.3205C75.4732 90.4238 76.1486 94.1925 76.9142 97.5865C85.1502 98.0082 93.3868 98.4305 101.623 98.8523C101.405 97.5586 100.337 90.3798 105.582 84.4218C108.286 81.3493 111.534 79.8921 113.363 79.2318C113.454 74.6748 113.545 70.1178 113.636 65.5608V57.3328L110.906 55.0543L110.769 52.0163L97.8005 40.6238C97.8005 40.6238 93.9782 37.5858 89.2002 37.3326C89.2002 37.3326 85.1557 36.3518 71.9998 36.1934Z" stroke="#494949" stroke-width="0.126584" stroke-miterlimit="10"/>
<path d="M121.417 66.5098L142.258 72.3539" stroke="#494949" stroke-width="0.126584" stroke-miterlimit="10"/>
<path d="M109.746 52.0156L108.176 63.2183L110.428 63.4715C110.428 63.4715 112.135 63.4082 112.612 62.2056C113.09 61.0031 112.408 52.0156 112.408 52.0156H109.746Z" fill="#190C13"/>
<path d="M94.5931 40.0547L97.1186 62.9663L98.6885 63.2195L95.6852 40.4977L94.5931 40.0547Z" fill="#FCFCFC"/>
<path d="M82.17 33.1968H73.5698C72.9287 33.1968 72.4094 32.7153 72.4094 32.1209C72.4094 31.5264 72.9287 31.0449 73.5698 31.0449H82.17C82.8111 31.0449 83.3304 31.5264 83.3304 32.1209C83.3304 32.7153 82.8111 33.1968 82.17 33.1968Z" fill="#2C0F0E"/>
<path d="M-37.7559 31.1297C-19.7636 30.1727 -0.995945 29.5499 18.487 29.3575C25.056 29.2917 31.543 29.2815 37.9482 29.317C41.2026 29.3322 44.4297 29.3626 47.6405 29.4031C51.572 29.4537 55.4763 29.5195 59.3423 29.6056C62.3183 29.6714 65.2724 29.7423 68.2101 29.8284C73.4958 29.9803 78.7161 30.1626 83.8762 30.3702" stroke="#494949" stroke-width="0.126584" stroke-miterlimit="10"/>
<path d="M125.172 74.5488H121.418C120.966 74.5488 120.599 74.2085 120.599 73.7893V73.2829C120.599 72.8637 120.966 72.5234 121.418 72.5234H125.172C125.624 72.5234 125.991 72.8637 125.991 73.2829V73.7893C125.991 74.2085 125.624 74.5488 125.172 74.5488Z" fill="#FFC708"/>
<path d="M80.1456 69.7163C81.3896 69.7163 82.3981 68.7812 82.3981 67.6277C82.3981 66.4742 81.3896 65.5391 80.1456 65.5391C78.9016 65.5391 77.8932 66.4742 77.8932 67.6277C77.8932 68.7812 78.9016 69.7163 80.1456 69.7163Z" fill="#EFEFEF"/>
<path d="M15.9375 98.0058C15.9375 98.0058 14.212 86.3601 14.212 85.2664C14.212 84.1676 14.9383 82.7347 14.9383 82.7347L15.1185 70.2434L15.386 63.4434" stroke="#494949" stroke-width="0.126584" stroke-miterlimit="10"/>
<path d="M16.5764 38.0062C16.5764 38.0062 16.8986 33.6163 17.2262 29.915C17.2535 29.6162 17.2808 29.3226 17.3027 29.034C17.4774 27.1909 17.6467 25.6415 17.7613 25.0947C17.7941 24.9529 17.8269 24.8162 17.876 24.6947C18.0344 24.2187 18.2801 23.8947 18.5258 23.6719" stroke="#494949" stroke-width="0.126584" stroke-miterlimit="10"/>
<path d="M4.90216 29.5648L8.17845 27.2053L3.82645 23.9395C0.817728 24.0103 -2.16915 24.0914 -5.13965 24.1825L-1.2354 27.2053L-4.66458 29.7927" fill="#0B7F7C"/>
<path d="M16.9205 29.3734L17.3028 29.0342L20.0603 26.5734L17.8761 24.6949L16.724 23.6974H16.7185L18.5259 23.6721C20.6173 23.6468 22.6923 23.6265 24.7672 23.6113L29.0701 26.8266L25.6464 29.3076L16.9205 29.3734Z" fill="#0B7F7C"/>
<path d="M50.6385 27.0804L47.6407 29.4044C44.4299 29.3639 41.2028 29.3336 37.9483 29.3184L41.1482 26.9538L36.1682 23.5664C39.4172 23.5664 42.6443 23.5816 45.8551 23.6069L50.6385 27.0804Z" fill="#0B7F7C"/>
<path d="M122.964 108.345C130.164 108.345 136.001 102.933 136.001 96.2567C136.001 89.5803 130.164 84.168 122.964 84.168C115.764 84.168 109.927 89.5803 109.927 96.2567C109.927 102.933 115.764 108.345 122.964 108.345Z" fill="#262626"/>
<path d="M122.964 107.586C129.712 107.586 135.182 102.514 135.182 96.2571C135.182 90.0001 129.712 84.9279 122.964 84.9279C116.217 84.9279 110.747 90.0001 110.747 96.2571C110.747 102.514 116.217 107.586 122.964 107.586Z" fill="#3D3D3D"/>
<path d="M122.964 104.233C127.714 104.233 131.565 100.662 131.565 96.258C131.565 91.8536 127.714 88.2832 122.964 88.2832C118.214 88.2832 114.364 91.8536 114.364 96.258C114.364 100.662 118.214 104.233 122.964 104.233Z" fill="#FCFCFC"/>
<path d="M122.964 103.6C127.337 103.6 130.882 100.313 130.882 96.2579C130.882 92.2031 127.337 88.916 122.964 88.916C118.591 88.916 115.046 92.2031 115.046 96.2579C115.046 100.313 118.591 103.6 122.964 103.6Z" fill="#C6C6C6"/>
<path d="M122.964 100.561C125.528 100.561 127.606 98.6341 127.606 96.2572C127.606 93.8802 125.528 91.9533 122.964 91.9533C120.401 91.9533 118.323 93.8802 118.323 96.2572C118.323 98.6341 120.401 100.561 122.964 100.561Z" fill="#FCFCFC"/>
<path d="M124.489 96.2574C124.489 97.0382 123.807 97.6711 122.965 97.6711C122.123 97.6711 121.44 97.0382 121.44 96.2574C121.44 95.4767 122.123 94.8438 122.965 94.8438C123.807 94.8438 124.489 95.4767 124.489 96.2574Z" fill="#3D3D3D"/>
<path d="M128.055 100.045C127.644 99.7226 127.568 99.2091 127.788 98.8385C128.016 98.4729 128.555 98.2871 129.046 98.4501C129.548 98.6162 129.763 99.2061 129.442 99.7261C129.125 100.249 128.447 100.356 128.055 100.045Z" fill="#190C13"/>
<path d="M124.238 102.195C124.189 101.958 124.247 101.717 124.361 101.523C124.477 101.33 124.652 101.192 124.869 101.109C125.092 101.043 125.323 101.047 125.545 101.124C125.767 101.203 125.979 101.355 126.105 101.566C126.235 101.783 126.246 102.023 126.142 102.248C126.041 102.474 125.824 102.682 125.523 102.774C125.229 102.884 124.917 102.851 124.683 102.74C124.448 102.631 124.29 102.438 124.238 102.195Z" fill="#190C13"/>
<path d="M119.824 101.566C119.95 101.355 120.163 101.203 120.384 101.124C120.606 101.047 120.837 101.043 121.06 101.109C121.277 101.192 121.452 101.33 121.568 101.523C121.682 101.717 121.741 101.958 121.691 102.195C121.64 102.438 121.481 102.63 121.246 102.739C121.013 102.85 120.701 102.884 120.407 102.774C120.105 102.681 119.888 102.473 119.787 102.247C119.683 102.023 119.695 101.782 119.824 101.566Z" fill="#190C13"/>
<path d="M116.884 98.4501C117.375 98.2871 117.914 98.4729 118.141 98.8385C118.361 99.2091 118.286 99.7226 117.875 100.045C117.482 100.356 116.805 100.249 116.487 99.7256C116.166 99.2061 116.382 98.6162 116.884 98.4501Z" fill="#190C13"/>
<path d="M116.785 94.3119C117.275 94.48 117.56 94.9438 117.481 95.359C117.393 95.7742 116.98 96.1231 116.442 96.1251C115.925 96.1287 115.48 95.6436 115.599 95.0532C115.713 94.4633 116.286 94.1393 116.785 94.3119Z" fill="#190C13"/>
<path d="M119.58 91.0876C119.717 91.2972 119.749 91.5382 119.707 91.7484C119.673 91.9712 119.566 92.1651 119.383 92.3003C119.034 92.5747 118.466 92.5833 118.059 92.2704C117.654 91.9585 117.662 91.3327 118.154 90.9433C118.399 90.759 118.697 90.6825 118.954 90.7078C119.221 90.7443 119.444 90.878 119.58 91.0876Z" fill="#190C13"/>
<path d="M123.958 90.2795C123.917 90.521 123.774 90.7255 123.597 90.8617C123.416 91.0076 123.199 91.1028 122.965 91.0886C122.731 91.1033 122.514 91.0081 122.333 90.8617C122.156 90.7255 122.013 90.5215 121.972 90.2795C121.931 90.0374 122.009 89.8025 122.189 89.6157C122.367 89.4389 122.649 89.3306 122.965 89.3164C123.28 89.3306 123.562 89.4394 123.741 89.6157C123.92 89.8025 123.998 90.0379 123.958 90.2795Z" fill="#190C13"/>
<path d="M127.869 92.2704C127.463 92.5833 126.894 92.5747 126.546 92.3003C126.363 92.1646 126.256 91.9712 126.221 91.7484C126.18 91.5382 126.212 91.2967 126.348 91.0876C126.485 90.878 126.707 90.7443 126.974 90.7078C127.231 90.6825 127.529 90.759 127.774 90.9433C128.267 91.3327 128.275 91.959 127.869 92.2704Z" fill="#190C13"/>
<path d="M129.488 96.1251C128.951 96.1231 128.538 95.7742 128.449 95.359C128.37 94.9438 128.655 94.48 129.145 94.3119C129.645 94.1393 130.218 94.4633 130.332 95.0532C130.451 95.6436 130.005 96.1287 129.488 96.1251Z" fill="#190C13"/>
<path d="M0.424943 68.3888L-1.02317 68.3792L-1.64239 65.6926H-1.66751C-1.76962 66.1143 -1.85645 66.4354 -1.92907 66.6571L-2.48767 68.369L-3.46619 68.3625L-2.22611 64.5645L-0.783459 64.5741L-0.157691 67.2232H-0.14076C-0.0419254 66.8404 0.04544 66.5331 0.121341 66.3012L0.682136 64.5837L1.66611 64.5903L0.424943 68.3888Z" fill="#0B7F7C"/>
<path d="M5.2566 65.4046C4.99395 65.4026 4.75642 65.5008 4.54346 65.7003C4.33105 65.8998 4.16723 66.1753 4.05256 66.5267C3.81394 67.2573 3.99358 67.6249 4.59205 67.6289C4.77279 67.63 4.95572 67.6077 5.14029 67.5621C5.32485 67.5165 5.51378 67.4613 5.70708 67.397L5.42369 68.2649C5.03708 68.4021 4.62809 68.47 4.1978 68.4669C3.58077 68.4629 3.1625 68.2933 2.9419 67.9586C2.7213 67.6239 2.71365 67.1424 2.91896 66.5135C3.04728 66.1206 3.24004 65.7753 3.49614 65.4785C3.75278 65.1823 4.05693 64.9545 4.40804 64.796C4.75969 64.6375 5.13755 64.5595 5.54218 64.5626C5.98338 64.5656 6.37653 64.6578 6.72109 64.8385L6.11935 65.6441C5.98994 65.5773 5.85724 65.5211 5.72073 65.475C5.58477 65.4289 5.43024 65.4056 5.2566 65.4046Z" fill="#0B7F7C"/>
<path d="M9.74048 68.4504L7.31384 68.4347L8.55337 64.6367L10.98 64.6524L10.7113 65.4757L9.38882 65.4671L9.19334 66.0651L10.4176 66.0732L10.1489 66.8965L8.92468 66.8884L8.69043 67.6054L10.013 67.614L9.74048 68.4504Z" fill="#0B7F7C"/>
<path d="M75.4249 68.2831C74.6015 68.1013 74.5791 66.9661 75.4091 66.8137C75.4752 66.8015 75.5445 66.7949 75.6182 66.7949C76.4034 66.7949 78.2463 66.7949 78.2463 66.7949L78.5532 67.0795L82.3417 67.1747C82.3417 67.1747 84.2387 66.9433 84.2873 67.797C84.3217 68.3985 82.3078 68.282 82.3078 68.282L75.8574 68.3453C75.8574 68.3453 75.6652 68.3362 75.4249 68.2831Z" fill="#190C13"/>
<path opacity="0.55" d="M51.9278 38.1382L31.7186 63.6929C28.6116 63.6473 25.3626 63.5967 22.0317 63.5461L41.8423 38.0977L51.9278 38.1382Z" fill="#FCFCFC"/>
<path opacity="0.55" d="M66.2665 40.0316V40.0721L47.406 63.9205H47.4005C44.5283 63.88 41.252 63.8344 37.6973 63.7838L57.6498 38.1581L63.083 38.1784C63.083 38.1784 66.2665 38.0923 66.2665 40.0316Z" fill="#FCFCFC"/>
<path opacity="0.55" d="M100.007 44.6287L89.0476 61.196C85.3836 60.5479 82.6479 60.0719 81.8289 59.9504C81.3811 59.8846 80.9661 59.7732 80.5894 59.6365L93.1812 40.2793C96.6377 41.0641 97.6206 42.5224 97.6206 42.5224C97.6206 42.5224 98.5379 43.3173 100.007 44.6287Z" fill="#FCFCFC"/>
<path opacity="0.55" d="M88.1247 39.5969L77.2201 56.8832C77.1382 56.7414 77.0945 56.6604 77.0945 56.6604L75.2434 45.3337V45.3286L79.2896 38.7969H79.2951C81.5775 38.9792 85.0941 39.283 88.1247 39.5969Z" fill="#FCFCFC"/>
<path d="M152.968 82.934C152.919 82.9796 152.864 83.0251 152.815 83.0707C151.144 82.291 148.823 80.9796 146.535 78.853C143.86 76.3668 142.353 73.8048 141.528 72.1035C143.002 71.8402 144.854 71.6326 146.989 71.6782C148.692 71.7187 150.199 71.9111 151.45 72.144C151.949 73.4362 152.439 75.0332 152.747 76.8909C153.138 79.2535 153.114 81.3223 152.968 82.934Z" fill="#D6D7D8"/>
<path d="M149.767 77.0374C149.767 78.6688 150.001 79.9909 150.29 79.9909C150.579 79.9909 150.813 78.6683 150.813 77.0374C150.813 75.406 150.579 74.084 150.29 74.084C150.001 74.084 149.767 75.406 149.767 77.0374Z" fill="#FCFCFC"/>
<path d="M147.583 75.9417C147.583 77.5731 147.817 78.8952 148.106 78.8952C148.395 78.8952 148.629 77.5726 148.629 75.9417C148.629 74.3108 148.395 72.9883 148.106 72.9883C147.817 72.9883 147.583 74.3103 147.583 75.9417Z" fill="#FCFCFC"/>
<path d="M145.58 97.6495L150.153 91.3203H154.18C153.362 91.6317 152.487 92.0246 151.586 92.5229C148.704 94.1168 146.783 96.1133 145.58 97.6495Z" fill="#EFEFEF"/>
<path d="M90.3607 32.058C90.9512 32.058 91.4298 30.8111 91.4298 29.2731C91.4298 27.7351 90.9512 26.4883 90.3607 26.4883C89.7702 26.4883 89.2915 27.7351 89.2915 29.2731C89.2915 30.8111 89.7702 32.058 90.3607 32.058Z" fill="white"/>
<path d="M86.1338 27.4179C86.1338 28.5364 85.7854 29.4433 85.3562 29.4433C84.9265 29.4433 84.5786 28.5364 84.5786 27.4179C84.5786 26.2994 84.927 25.3926 85.3562 25.3926C85.7854 25.3926 86.1338 26.2994 86.1338 27.4179Z" fill="white"/>
</g>
<defs>
<linearGradient id="paint0_linear_22185_132342" x1="162.929" y1="148.898" x2="162.929" y2="-40.8667" gradientUnits="userSpaceOnUse">
<stop stop-color="#1AF1E3"/>
<stop offset="0.0489792" stop-color="#1AEDE2"/>
<stop offset="0.6788" stop-color="#18C2D6"/>
<stop offset="1" stop-color="#17B2D1"/>
</linearGradient>
<linearGradient id="paint1_linear_22185_132342" x1="526.371" y1="144.536" x2="526.371" y2="-45.2287" gradientUnits="userSpaceOnUse">
<stop stop-color="#1AF1E3"/>
<stop offset="0.0489792" stop-color="#1AEDE2"/>
<stop offset="0.6788" stop-color="#18C2D6"/>
<stop offset="1" stop-color="#17B2D1"/>
</linearGradient>
<linearGradient id="paint2_linear_22185_132342" x1="274.932" y1="85.4051" x2="274.932" y2="-204.875" gradientUnits="userSpaceOnUse">
<stop stop-color="#C3F7DF"/>
<stop offset="0.0635219" stop-color="#9BF6E0"/>
<stop offset="0.161" stop-color="#64F4E1"/>
<stop offset="0.2451" stop-color="#3CF2E2"/>
<stop offset="0.3115" stop-color="#23F1E3"/>
<stop offset="0.352" stop-color="#1AF1E3"/>
<stop offset="0.3837" stop-color="#1AEDE2"/>
<stop offset="0.7919" stop-color="#18C2D6"/>
<stop offset="1" stop-color="#17B2D1"/>
</linearGradient>
<linearGradient id="paint3_linear_22185_132342" x1="274.932" y1="158.478" x2="274.932" y2="-129.03" gradientUnits="userSpaceOnUse">
<stop stop-color="#1AF1E3"/>
<stop offset="0.0489792" stop-color="#1AEDE2"/>
<stop offset="0.6788" stop-color="#18C2D6"/>
<stop offset="1" stop-color="#17B2D1"/>
</linearGradient>
<linearGradient id="paint4_linear_22185_132342" x1="274.932" y1="70.7598" x2="274.932" y2="242.168" gradientUnits="userSpaceOnUse">
<stop stop-color="#FFE9C4"/>
<stop offset="0.5112" stop-color="#D9BBAB"/>
<stop offset="1" stop-color="#B69D97"/>
</linearGradient>
<linearGradient id="paint5_linear_22185_132342" x1="354.254" y1="76.2945" x2="351.655" y2="197.424" gradientUnits="userSpaceOnUse">
<stop stop-color="#FFE9C4"/>
<stop offset="0.5112" stop-color="#D9BBAB"/>
<stop offset="1" stop-color="#B69D97"/>
</linearGradient>
<linearGradient id="paint6_linear_22185_132342" x1="135.427" y1="65.1229" x2="128.066" y2="232.652" gradientUnits="userSpaceOnUse">
<stop stop-color="#FFE9C4"/>
<stop offset="0.5112" stop-color="#D9BBAB"/>
<stop offset="1" stop-color="#B69D97"/>
</linearGradient>
<linearGradient id="paint7_linear_22185_132342" x1="476.481" y1="109.546" x2="273.973" y2="262.79" gradientUnits="userSpaceOnUse">
<stop stop-color="#FFF3D6"/>
<stop offset="0.503" stop-color="#F9E5B5"/>
<stop offset="1" stop-color="#F2D591"/>
</linearGradient>
<linearGradient id="paint8_linear_22185_132342" x1="91.1922" y1="74.0608" x2="88.999" y2="132.475" gradientUnits="userSpaceOnUse">
<stop stop-color="#F0DA41"/>
<stop offset="1" stop-color="#A29924"/>
</linearGradient>
<linearGradient id="paint9_linear_22185_132342" x1="263.281" y1="79.0868" x2="262.144" y2="109.371" gradientUnits="userSpaceOnUse">
<stop stop-color="#F0DA41"/>
<stop offset="1" stop-color="#A29924"/>
</linearGradient>
<linearGradient id="paint10_linear_22185_132342" x1="497.684" y1="53.1122" x2="501.149" y2="221.886" gradientUnits="userSpaceOnUse">
<stop stop-color="#F0DA41"/>
<stop offset="1" stop-color="#A29924"/>
</linearGradient>
<linearGradient id="paint11_linear_22185_132342" x1="539.505" y1="87.2863" x2="523.668" y2="90.6174" gradientUnits="userSpaceOnUse">
<stop stop-color="#D4C039"/>
<stop offset="1" stop-color="#968E21"/>
</linearGradient>
<linearGradient id="paint12_linear_22185_132342" x1="96.2779" y1="71.9525" x2="68.9289" y2="152.819" gradientUnits="userSpaceOnUse">
<stop stop-color="#FFF3D6"/>
<stop offset="0.503" stop-color="#F9E5B5"/>
<stop offset="1" stop-color="#F2D591"/>
</linearGradient>
<linearGradient id="paint13_linear_22185_132342" x1="518.794" y1="103.64" x2="520.549" y2="117.485" gradientUnits="userSpaceOnUse">
<stop stop-color="#D4C039"/>
<stop offset="1" stop-color="#968E21"/>
</linearGradient>
<linearGradient id="paint14_linear_22185_132342" x1="565.464" y1="19.2827" x2="525.407" y2="88.6588" gradientUnits="userSpaceOnUse">
<stop stop-color="#F0DA41"/>
<stop offset="0.5" stop-color="#A29924"/>
<stop offset="1" stop-color="#717B1A"/>
</linearGradient>
<linearGradient id="paint15_linear_22185_132342" x1="569.685" y1="0.709011" x2="521.468" y2="72.3666" gradientUnits="userSpaceOnUse">
<stop stop-color="#F0DA41"/>
<stop offset="0.5" stop-color="#A29924"/>
<stop offset="1" stop-color="#717B1A"/>
</linearGradient>
<linearGradient id="paint16_linear_22185_132342" x1="585.59" y1="34.6888" x2="545.532" y2="104.067" gradientUnits="userSpaceOnUse">
<stop stop-color="#F0DA41"/>
<stop offset="0.5" stop-color="#A29924"/>
<stop offset="1" stop-color="#717B1A"/>
</linearGradient>
<linearGradient id="paint17_linear_22185_132342" x1="532.916" y1="8.65531" x2="541.5" y2="48.1251" gradientUnits="userSpaceOnUse">
<stop stop-color="#F0DA41"/>
<stop offset="1" stop-color="#A29924"/>
</linearGradient>
<linearGradient id="paint18_linear_22185_132342" x1="515.389" y1="69.5903" x2="521.54" y2="123.022" gradientUnits="userSpaceOnUse">
<stop offset="0.3526" stop-color="#A29924"/>
<stop offset="1" stop-color="#717B1A"/>
</linearGradient>
<linearGradient id="paint19_linear_22185_132342" x1="527.1" y1="71.6903" x2="515.583" y2="111.324" gradientUnits="userSpaceOnUse">
<stop stop-color="#F0DA41"/>
<stop offset="1" stop-color="#A29924"/>
</linearGradient>
<clipPath id="clip0_22185_132342">
<rect width="550" height="112" fill="white"/>
</clipPath>
</defs>
</svg>
