<svg width="108" height="33" viewBox="0 0 108 33" fill="none" xmlns="http://www.w3.org/2000/svg">
<path d="M19.8993 22.8802L16.2232 19.3164L17.7109 17.946L18.2589 17.4417L18.2881 17.4155L18.3427 17.3609C19.717 15.9596 20.485 14.0742 20.481 12.1115C20.481 8.14348 17.3803 4.84928 13.4224 4.61045C12.3822 4.54582 11.34 4.70144 10.364 5.06714C9.42648 5.41752 8.56859 5.95211 7.84097 6.63938C7.08784 7.35094 6.48754 8.20845 6.07667 9.15961C5.6658 10.1108 5.45298 11.1357 5.45117 12.1718V23.9411C5.45115 24.392 5.58248 24.8331 5.82911 25.2106C6.07574 25.5881 6.42699 25.8856 6.83994 26.0667C7.25288 26.2478 7.70964 26.3047 8.15439 26.2304C8.59915 26.1561 9.01263 25.9539 9.34432 25.6484L13.0784 22.2109L16.9281 25.943C17.3254 26.3305 17.8585 26.5471 18.4135 26.5465C18.6989 26.5457 18.9813 26.4881 19.2442 26.377C19.5071 26.2659 19.7452 26.1035 19.9445 25.8992C20.14 25.6981 20.2938 25.4604 20.3973 25.1998C20.5008 24.9392 20.5519 24.6607 20.5477 24.3803C20.5435 24.0999 20.4841 23.8231 20.3728 23.5657C20.2615 23.3083 20.1006 23.0754 19.8993 22.8802ZM9.19309 20.6993V12.1718C9.19096 11.6455 9.29759 11.1244 9.5063 10.6413C9.71501 10.1582 10.0213 9.7234 10.406 9.36421C11.0963 8.70586 12.0136 8.33867 12.9676 8.33889C13.0424 8.33889 13.1187 8.34126 13.1963 8.346C13.9138 8.38971 14.6038 8.63754 15.1852 9.0603C15.7665 9.48307 16.2149 10.0632 16.4776 10.7323C16.7403 11.4014 16.8063 12.1316 16.6679 12.8369C16.5294 13.5423 16.1923 14.1934 15.6961 14.7135L15.4027 14.9842H15.4008L9.19309 20.6993Z" fill="white"/>
<path d="M36.27 12.3434V15.4547H35.031C32.608 15.4547 31.0937 16.7488 31.0937 19.392V26H27.7346V12.426H30.9009L31.0937 14.4084C31.6719 13.0593 32.9659 12.1507 34.7832 12.1507C35.2512 12.1507 35.7193 12.2058 36.27 12.3434ZM43.0701 26.3579C39.0226 26.3579 36.1867 23.4119 36.1867 19.1993C36.1867 14.9316 38.9676 11.9855 42.9599 11.9855C47.0349 11.9855 49.623 14.7113 49.623 18.9515V19.9702L39.3806 19.9977C39.6284 22.3931 40.8949 23.6046 43.1251 23.6046C44.9699 23.6046 46.1813 22.8887 46.5668 21.5947H49.6781C49.0999 24.5683 46.6219 26.3579 43.0701 26.3579ZM42.9875 14.7388C41.0051 14.7388 39.7936 15.8126 39.4632 17.8501H46.2915C46.2915 15.9778 44.9974 14.7388 42.9875 14.7388ZM50.1638 21.87H53.3576C53.3852 23.0539 54.2663 23.7973 55.8081 23.7973C57.3775 23.7973 58.2311 23.1641 58.2311 22.1729C58.2311 21.4845 57.8731 20.9889 56.6617 20.7136L54.2112 20.1354C51.7607 19.5847 50.5768 18.4283 50.5768 16.2532C50.5768 13.5824 52.8345 11.9855 55.9733 11.9855C59.0295 11.9855 61.0945 13.7476 61.1221 16.3908H57.9282C57.9007 15.2344 57.1297 14.491 55.8357 14.491C54.5141 14.491 53.7431 15.0968 53.7431 16.1155C53.7431 16.8864 54.3489 17.382 55.5053 17.6574L57.9557 18.2356C60.241 18.7587 61.3974 19.805 61.3974 21.8975C61.3974 24.6509 59.0571 26.3579 55.698 26.3579C52.3114 26.3579 50.1638 24.5407 50.1638 21.87ZM62.0552 19.0341C62.0552 14.7664 64.5883 11.9855 68.4154 11.9855C70.4804 11.9855 72.2701 12.8941 73.0961 14.4635L73.3163 12.3985H76.4001V32.3051H73.0685V24.1828C72.215 25.5595 70.4253 26.3579 68.4154 26.3579C64.368 26.3579 62.0552 23.2742 62.0552 19.0341ZM65.4143 19.1993C65.4143 21.6222 66.846 23.3293 69.1863 23.3293C71.5267 23.3293 73.041 21.6497 73.041 19.1993C73.041 16.7488 71.5267 15.0417 69.1863 15.0417C66.846 15.0417 65.4143 16.7763 65.4143 19.1993ZM88.023 12.3985H91.3821V26H88.2708L88.023 24.1828C87.197 25.4769 85.4349 26.3579 83.6177 26.3579C80.4789 26.3579 78.6342 24.2379 78.6342 20.9063V12.3985H81.9932V19.7224C81.9932 22.3105 83.012 23.3568 84.8842 23.3568C87.0043 23.3568 88.023 22.1178 88.023 19.5297V12.3985ZM99.5662 26.3579C95.5188 26.3579 92.6829 23.4119 92.6829 19.1993C92.6829 14.9316 95.4637 11.9855 99.4561 11.9855C103.531 11.9855 106.119 14.7113 106.119 18.9515V19.9702L95.8767 19.9977C96.1245 22.3931 97.3911 23.6046 99.6213 23.6046C101.466 23.6046 102.677 22.8887 103.063 21.5947H106.174C105.596 24.5683 103.118 26.3579 99.5662 26.3579ZM99.4836 14.7388C97.5012 14.7388 96.2897 15.8126 95.9593 17.8501H102.788C102.788 15.9778 101.494 14.7388 99.4836 14.7388Z" fill="white"/>
</svg>
