<svg width="26" height="36" viewBox="0 0 26 36" fill="none" xmlns="http://www.w3.org/2000/svg">
<path d="M25.656 -0.40918L21.7253 5.91008L17.7645 12.3503H8.24023L8.27047 12.2898L12.0499 6.21243L16.162 -0.40918H25.656Z" fill="url(#paint0_linear_89_3571)"/>
<path opacity="0.2" d="M24.5675 -0.40918L17.2505 11.3827H9.87296L17.2505 -0.40918H16.1922L12.0499 6.21243L8.24023 12.2898H17.7342L21.7253 5.91008L25.6862 -0.40918H24.5675Z" fill="#424242"/>
<path d="M18.3994 8.66162H7.51456C6.18419 8.66162 5.0957 9.75011 5.0957 11.0805V15.9182C5.0957 16.5834 5.63995 17.1276 6.30513 17.1276C6.97031 17.1276 7.81691 16.5834 7.81691 15.9182V12.8946C7.81691 12.562 8.08903 12.2899 8.42163 12.2899H17.4923C17.8249 12.2899 18.097 12.562 18.097 12.8946V15.8879C18.097 16.4927 18.7925 17.0067 19.3669 17.0974C19.4576 17.0974 19.5181 17.1276 19.6088 17.1276C20.274 17.1276 20.8183 16.5834 20.8183 15.9182V11.0805C20.8183 9.75011 19.7298 8.66162 18.3994 8.66162Z" fill="#BDBDBD"/>
<path opacity="0.2" d="M18.3994 9.26633C19.3972 9.26633 20.2135 10.0827 20.2135 11.0805V15.9182C20.2135 16.2508 19.9414 16.5229 19.6088 16.5229C19.5786 16.5229 19.5181 16.5229 19.4879 16.5229C19.1251 16.4624 18.7018 16.1298 18.7018 15.8879V12.8946C18.7018 12.2294 18.1575 11.6852 17.4923 11.6852H8.42163C7.75644 11.6852 7.2122 12.2294 7.2122 12.8946V15.9182C7.2122 16.1903 6.72843 16.5229 6.30513 16.5229C5.97254 16.5229 5.70042 16.2508 5.70042 15.9182V11.0805C5.70042 10.0827 6.51678 9.26633 7.51456 9.26633H18.3994ZM18.3994 8.66162H7.51456C6.18419 8.66162 5.0957 9.75011 5.0957 11.0805V15.9182C5.0957 16.5834 5.63995 17.1276 6.30513 17.1276C6.97031 17.1276 7.81691 16.5834 7.81691 15.9182V12.8946C7.81691 12.562 8.08903 12.2899 8.42163 12.2899H17.4923C17.8249 12.2899 18.097 12.562 18.097 12.8946V15.8879C18.097 16.4927 18.7925 17.0067 19.3669 17.0974C19.4576 17.0974 19.5181 17.1276 19.6088 17.1276C20.274 17.1276 20.8183 16.5834 20.8183 15.9182V11.0805C20.8183 9.75011 19.7298 8.66162 18.3994 8.66162Z" fill="#424242"/>
<path d="M17.7644 12.3503H8.24014L4.46068 6.21243L0.348633 -0.40918H9.87287L14.1663 6.54502L17.7341 12.2898L17.7644 12.3503Z" fill="url(#paint1_linear_89_3571)"/>
<path opacity="0.2" d="M14.1663 6.54503L9.81236 -0.40918H8.72388L16.1316 11.3827H8.75411L1.37661 -0.40918H0.318359L4.46065 6.21243L8.2401 12.2898H17.7341L14.1663 6.54503Z" fill="#424242"/>
<path d="M12.9564 35.8736C19.3019 35.8736 24.4459 30.7296 24.4459 24.3841C24.4459 18.0386 19.3019 12.8945 12.9564 12.8945C6.61085 12.8945 1.4668 18.0386 1.4668 24.3841C1.4668 30.7296 6.61085 35.8736 12.9564 35.8736Z" fill="url(#paint2_radial_89_3571)"/>
<path opacity="0.2" d="M12.9564 13.8016C18.7918 13.8016 23.5388 18.5486 23.5388 24.3841C23.5388 30.2196 18.7918 34.9666 12.9564 34.9666C7.12087 34.9666 2.37387 30.2196 2.37387 24.3841C2.37387 18.5486 7.12087 13.8016 12.9564 13.8016ZM12.9564 12.8945C6.60686 12.8945 1.4668 18.0346 1.4668 24.3841C1.4668 30.7336 6.60686 35.8736 12.9564 35.8736C19.3058 35.8736 24.4459 30.7336 24.4459 24.3841C24.4459 18.0346 19.3058 12.8945 12.9564 12.8945Z" fill="#424242"/>
<path d="M8.90528 21.9955C8.90528 21.9955 8.87504 18.0044 13.1685 18.0044C17.462 18.0044 17.0387 21.7234 17.0387 21.7234C17.0689 23.9608 13.8035 26.5006 12.2917 28.3148H17.4922V30.3103H9.1774V28.6171C10.538 27.1053 14.6198 23.2654 14.6198 22.0257C14.6198 22.0257 14.9524 19.9697 13.108 19.9697C11.2637 19.9697 11.3544 21.9955 11.3544 21.9955H8.90528Z" fill="#757575"/>
<defs>
<linearGradient id="paint0_linear_89_3571" x1="20.7045" y1="-0.757736" x2="15.473" y2="8.60828" gradientUnits="userSpaceOnUse">
<stop offset="0.1355" stop-color="#1E88E5"/>
<stop offset="0.938" stop-color="#1565C0"/>
</linearGradient>
<linearGradient id="paint1_linear_89_3571" x1="5.82991" y1="-0.0558151" x2="12.4958" y2="12.39" gradientUnits="userSpaceOnUse">
<stop offset="0.1355" stop-color="#64B5F6"/>
<stop offset="0.9462" stop-color="#2196F3"/>
</linearGradient>
<radialGradient id="paint2_radial_89_3571" cx="0" cy="0" r="1" gradientUnits="userSpaceOnUse" gradientTransform="translate(6.60686 17.5054) scale(21.0114)">
<stop offset="0.2835" stop-color="#EEEEEE"/>
<stop offset="1" stop-color="#BDBDBD"/>
</radialGradient>
</defs>
</svg>
