<svg width="26" height="36" viewBox="0 0 26 36" fill="none" xmlns="http://www.w3.org/2000/svg">
<path d="M25.656 -0.20459L21.7253 6.11467L17.7645 12.5549H8.24023L8.27047 12.4944L12.0499 6.41702L16.162 -0.20459H25.656Z" fill="url(#paint0_linear_89_3584)"/>
<path opacity="0.2" d="M24.5675 -0.20459L17.2505 11.5873H9.87296L17.2505 -0.20459H16.1922L12.0499 6.41702L8.24023 12.4944H17.7342L21.7253 6.11467L25.6862 -0.20459H24.5675Z" fill="#424242"/>
<path d="M18.3994 8.86621H7.51456C6.18419 8.86621 5.0957 9.9547 5.0957 11.2851V16.1228C5.0957 16.788 5.63995 17.3322 6.30513 17.3322C6.97031 17.3322 7.81691 16.788 7.81691 16.1228V13.0992C7.81691 12.7666 8.08903 12.4945 8.42163 12.4945H17.4923C17.8249 12.4945 18.097 12.7666 18.097 13.0992V16.0925C18.097 16.6973 18.7925 17.2113 19.3669 17.302C19.4576 17.302 19.5181 17.3322 19.6088 17.3322C20.274 17.3322 20.8183 16.788 20.8183 16.1228V11.2851C20.8183 9.9547 19.7298 8.86621 18.3994 8.86621Z" fill="#FF9800"/>
<path opacity="0.2" d="M18.3994 9.47092C19.3972 9.47092 20.2135 10.2873 20.2135 11.2851V16.1228C20.2135 16.4554 19.9414 16.7275 19.6088 16.7275C19.5786 16.7275 19.5181 16.7275 19.4879 16.7275C19.1251 16.667 18.7018 16.3344 18.7018 16.0925V13.0992C18.7018 12.434 18.1575 11.8898 17.4923 11.8898H8.42163C7.75644 11.8898 7.2122 12.434 7.2122 13.0992V16.1228C7.2122 16.3949 6.72843 16.7275 6.30513 16.7275C5.97254 16.7275 5.70042 16.4554 5.70042 16.1228V11.2851C5.70042 10.2873 6.51678 9.47092 7.51456 9.47092H18.3994ZM18.3994 8.86621H7.51456C6.18419 8.86621 5.0957 9.9547 5.0957 11.2851V16.1228C5.0957 16.788 5.63995 17.3322 6.30513 17.3322C6.97031 17.3322 7.81691 16.788 7.81691 16.1228V13.0992C7.81691 12.7666 8.08903 12.4945 8.42163 12.4945H17.4923C17.8249 12.4945 18.097 12.7666 18.097 13.0992V16.0925C18.097 16.6973 18.7925 17.2113 19.3669 17.302C19.4576 17.302 19.5181 17.3322 19.6088 17.3322C20.274 17.3322 20.8183 16.788 20.8183 16.1228V11.2851C20.8183 9.9547 19.7298 8.86621 18.3994 8.86621Z" fill="#424242"/>
<path d="M12.9866 36.0782C19.3321 36.0782 24.4762 30.9342 24.4762 24.5887C24.4762 18.2432 19.3321 13.0991 12.9866 13.0991C6.64112 13.0991 1.49707 18.2432 1.49707 24.5887C1.49707 30.9342 6.64112 36.0782 12.9866 36.0782Z" fill="url(#paint1_radial_89_3584)"/>
<path d="M17.2809 27.3703C17.2809 24.8607 15.1644 24.377 15.1644 24.377C15.1644 24.377 17.0692 23.5908 17.0692 21.5348C17.0692 21.5348 17.2809 17.9368 12.7757 17.9368C9.87311 17.9368 8.51251 19.7207 8.51251 21.4139H11.0523C11.0523 21.4139 11.0523 19.9928 12.8362 19.9928C14.5899 19.9928 14.5294 21.6558 14.5294 21.6558C14.5294 21.6558 14.6201 23.4397 12.7757 23.4397H11.2337V24.4072V25.4352H12.806C14.7108 25.4352 14.7108 27.2191 14.7108 27.2191C14.7108 27.2191 14.9225 29.0937 12.8664 29.0937C10.9314 29.0937 10.9011 27.5215 10.9011 27.5215H8.36133C8.36133 29.4263 9.7824 31.18 12.806 31.18C17.4018 31.1498 17.2809 27.5517 17.2809 27.3703Z" fill="#D84315"/>
<path d="M17.7644 12.5549H8.24014L0.348633 -0.20459H9.87287L17.7644 12.5549Z" fill="url(#paint2_linear_89_3584)"/>
<path opacity="0.2" d="M9.81236 -0.20459H8.72388L16.1316 11.5873H8.75411L1.37661 -0.20459H0.318359L8.2401 12.4944H17.7341L9.81236 -0.20459Z" fill="#424242"/>
<path opacity="0.2" d="M12.9564 14.0062C18.7918 14.0062 23.5388 18.7532 23.5388 24.5887C23.5388 30.4242 18.7918 35.1712 12.9564 35.1712C7.12087 35.1712 2.37387 30.4242 2.37387 24.5887C2.37387 18.7532 7.12087 14.0062 12.9564 14.0062ZM12.9564 13.0991C6.60686 13.0991 1.4668 18.2392 1.4668 24.5887C1.4668 30.9382 6.60686 36.0782 12.9564 36.0782C19.3058 36.0782 24.4459 30.9382 24.4459 24.5887C24.4459 18.2392 19.3058 13.0991 12.9564 13.0991Z" fill="#424242"/>
<defs>
<linearGradient id="paint0_linear_89_3584" x1="21.8004" y1="-0.544832" x2="14.7548" y2="9.24306" gradientUnits="userSpaceOnUse">
<stop offset="0.1355" stop-color="#1E88E5"/>
<stop offset="0.938" stop-color="#1565C0"/>
</linearGradient>
<radialGradient id="paint1_radial_89_3584" cx="0" cy="0" r="1" gradientUnits="userSpaceOnUse" gradientTransform="translate(7.98362 18.8548) scale(22.3182)">
<stop offset="0.2668" stop-color="#FFA726"/>
<stop offset="1" stop-color="#FB8C00"/>
</radialGradient>
<linearGradient id="paint2_linear_89_3584" x1="6.23915" y1="0.11993" x2="11.8925" y2="12.2704" gradientUnits="userSpaceOnUse">
<stop offset="0.1355" stop-color="#64B5F6"/>
<stop offset="0.9462" stop-color="#2196F3"/>
</linearGradient>
</defs>
</svg>
