<svg width="26" height="36" viewBox="0 0 26 36" fill="none" xmlns="http://www.w3.org/2000/svg">
<path d="M25.656 -0.20459L21.7253 6.11467L17.7645 12.5549H8.24023L8.27047 12.4944L12.0499 6.41702L16.162 -0.20459H25.656Z" fill="url(#paint0_linear_89_3558)"/>
<path opacity="0.2" d="M24.5675 -0.20459L17.2505 11.5873H9.87296L17.2505 -0.20459H16.1922L12.0499 6.41702L8.24023 12.4944H17.7342L21.7253 6.11467L25.6862 -0.20459H24.5675Z" fill="#424242"/>
<path d="M18.3994 8.86621H7.51456C6.18419 8.86621 5.0957 9.9547 5.0957 11.2851V16.1228C5.0957 16.788 5.63995 17.3322 6.30513 17.3322C6.97031 17.3322 7.81691 16.788 7.81691 16.1228V13.0992C7.81691 12.7666 8.08903 12.4945 8.42163 12.4945H17.4923C17.8249 12.4945 18.097 12.7666 18.097 13.0992V16.0925C18.097 16.6973 18.7925 17.2113 19.3669 17.302C19.4576 17.302 19.5181 17.3322 19.6088 17.3322C20.274 17.3322 20.8183 16.788 20.8183 16.1228V11.2851C20.8183 9.9547 19.7298 8.86621 18.3994 8.86621Z" fill="#FDD835"/>
<path opacity="0.2" d="M18.3994 9.47092C19.3972 9.47092 20.2135 10.2873 20.2135 11.2851V16.1228C20.2135 16.4554 19.9414 16.7275 19.6088 16.7275C19.5786 16.7275 19.5181 16.7275 19.4879 16.7275C19.1251 16.667 18.7018 16.3344 18.7018 16.0925V13.0992C18.7018 12.434 18.1575 11.8898 17.4923 11.8898H8.42163C7.75644 11.8898 7.2122 12.434 7.2122 13.0992V16.1228C7.2122 16.3949 6.72843 16.7275 6.30513 16.7275C5.97254 16.7275 5.70042 16.4554 5.70042 16.1228V11.2851C5.70042 10.2873 6.51678 9.47092 7.51456 9.47092H18.3994ZM18.3994 8.86621H7.51456C6.18419 8.86621 5.0957 9.9547 5.0957 11.2851V16.1228C5.0957 16.788 5.63995 17.3322 6.30513 17.3322C6.97031 17.3322 7.81691 16.788 7.81691 16.1228V13.0992C7.81691 12.7666 8.08903 12.4945 8.42163 12.4945H17.4923C17.8249 12.4945 18.097 12.7666 18.097 13.0992V16.0925C18.097 16.6973 18.7925 17.2113 19.3669 17.302C19.4576 17.302 19.5181 17.3322 19.6088 17.3322C20.274 17.3322 20.8183 16.788 20.8183 16.1228V11.2851C20.8183 9.9547 19.7298 8.86621 18.3994 8.86621Z" fill="#424242"/>
<path d="M17.7644 12.5549H8.24014L0.348633 -0.20459H9.87287L17.7644 12.5549Z" fill="url(#paint1_linear_89_3558)"/>
<path opacity="0.2" d="M9.81236 -0.20459H8.72388L16.1316 11.5873H8.75411L1.37661 -0.20459H0.318359L8.2401 12.4944H17.7341L9.81236 -0.20459Z" fill="#424242"/>
<path d="M12.9573 36.0782C19.3028 36.0782 24.4469 30.9342 24.4469 24.5887C24.4469 18.2432 19.3028 13.0991 12.9573 13.0991C6.61182 13.0991 1.46777 18.2432 1.46777 24.5887C1.46777 30.9342 6.61182 36.0782 12.9573 36.0782Z" fill="url(#paint2_radial_89_3558)"/>
<path opacity="0.2" d="M12.9573 14.0062C18.7928 14.0062 23.5398 18.7532 23.5398 24.5887C23.5398 30.4242 18.7928 35.1712 12.9573 35.1712C7.12184 35.1712 2.37484 30.4242 2.37484 24.5887C2.37484 18.7532 7.12184 14.0062 12.9573 14.0062ZM12.9573 13.0991C6.60784 13.0991 1.46777 18.2392 1.46777 24.5887C1.46777 30.9382 6.60784 36.0782 12.9573 36.0782C19.3068 36.0782 24.4469 30.9382 24.4469 24.5887C24.4469 18.2392 19.3068 13.0991 12.9573 13.0991Z" fill="#424242"/>
<path d="M9.4502 20.416V22.4721L12.4133 21.565V30.9683H14.8926V18.481L9.4502 20.416Z" fill="#FFA000"/>
<defs>
<linearGradient id="paint0_linear_89_3558" x1="19.9658" y1="-0.67805" x2="15.4515" y2="9.57393" gradientUnits="userSpaceOnUse">
<stop offset="0.1355" stop-color="#1E88E5"/>
<stop offset="0.938" stop-color="#1565C0"/>
</linearGradient>
<linearGradient id="paint1_linear_89_3558" x1="6.54592" y1="0.566843" x2="11.7774" y2="12.2532" gradientUnits="userSpaceOnUse">
<stop offset="0.1355" stop-color="#64B5F6"/>
<stop offset="0.9462" stop-color="#2196F3"/>
</linearGradient>
<radialGradient id="paint2_radial_89_3558" cx="0" cy="0" r="1" gradientUnits="userSpaceOnUse" gradientTransform="translate(6.60784 15.9715) scale(21.9441)">
<stop offset="0.2972" stop-color="#FFEB3B"/>
<stop offset="0.9544" stop-color="#FBC02D"/>
</radialGradient>
</defs>
</svg>
