<svg width="37" height="36" viewBox="0 0 37 36" fill="none" xmlns="http://www.w3.org/2000/svg">
<mask id="mask0_89_3596" style="mask-type:luminance" maskUnits="userSpaceOnUse" x="0" y="0" width="37" height="18">
<path d="M0 0H36.18V17.52H0V0Z" fill="white"/>
</mask>
<g mask="url(#mask0_89_3596)">
<path d="M13.3496 12.6599H22.7996L31.7996 -1.86011H22.3496L13.3496 12.6599Z" fill="url(#paint0_linear_89_3596)"/>
</g>
<mask id="mask1_89_3596" style="mask-type:luminance" maskUnits="userSpaceOnUse" x="0" y="0" width="37" height="18">
<path d="M0 0H36.18V17.52H0V0Z" fill="white"/>
</mask>
<g mask="url(#mask1_89_3596)">
<path d="M16.6201 12.6601H20.6401L29.6401 -1.88989H25.6201L16.6201 12.6601Z" fill="url(#paint1_linear_89_3596)"/>
</g>
<mask id="mask2_89_3596" style="mask-type:luminance" maskUnits="userSpaceOnUse" x="0" y="0" width="37" height="18">
<path d="M0 0H36.18V17.52H0V0Z" fill="white"/>
</mask>
<g mask="url(#mask2_89_3596)">
<path d="M19.4102 12.6601H22.8002L31.8002 -1.88989H28.4402L19.4102 12.6601Z" fill="url(#paint2_linear_89_3596)"/>
</g>
<mask id="mask3_89_3596" style="mask-type:luminance" maskUnits="userSpaceOnUse" x="0" y="0" width="37" height="18">
<path d="M0 0H36.18V17.52H0V0Z" fill="white"/>
</mask>
<g mask="url(#mask3_89_3596)">
<g opacity="0.2">
<path d="M30.1796 -0.960107L22.2896 11.7599H14.9696L22.8596 -0.960107H30.1796ZM31.7996 -1.86011H22.3496L13.3496 12.6599H22.7696L31.7996 -1.86011Z" fill="#424242"/>
</g>
</g>
<mask id="mask4_89_3596" style="mask-type:luminance" maskUnits="userSpaceOnUse" x="0" y="0" width="37" height="18">
<path d="M0 0H36.18V17.52H0V0Z" fill="white"/>
</mask>
<g mask="url(#mask4_89_3596)">
<path d="M23.4305 9H12.6305C11.3105 9 10.2305 10.08 10.2305 11.4V16.2C10.2305 16.86 10.7705 17.4 11.4305 17.4C12.0905 17.4 12.9305 16.86 12.9305 16.2V13.2C12.9305 12.87 13.2005 12.6 13.5305 12.6H22.5305C22.8605 12.6 23.1305 12.87 23.1305 13.2V16.17C23.1305 16.77 23.8205 17.28 24.3905 17.37C24.4805 17.37 24.5405 17.4 24.6305 17.4C25.2905 17.4 25.8305 16.86 25.8305 16.2V11.4C25.8305 10.08 24.7505 9 23.4305 9Z" fill="#FDD835"/>
</g>
<mask id="mask5_89_3596" style="mask-type:luminance" maskUnits="userSpaceOnUse" x="0" y="0" width="37" height="18">
<path d="M0 0H36.18V17.52H0V0Z" fill="white"/>
</mask>
<g mask="url(#mask5_89_3596)">
<g opacity="0.2">
<path d="M23.4305 9.6C24.4205 9.6 25.2305 10.41 25.2305 11.4V16.2C25.2305 16.53 24.9605 16.8 24.6305 16.8C24.6005 16.8 24.5405 16.8 24.5105 16.8C24.1505 16.74 23.7305 16.41 23.7305 16.17V13.2C23.7305 12.54 23.1905 12 22.5305 12H13.5305C12.8705 12 12.3305 12.54 12.3305 13.2V16.2C12.3305 16.47 11.8505 16.8 11.4305 16.8C11.1005 16.8 10.8305 16.53 10.8305 16.2V11.4C10.8305 10.41 11.6405 9.6 12.6305 9.6H23.4305ZM23.4305 9H12.6305C11.3105 9 10.2305 10.08 10.2305 11.4V16.2C10.2305 16.86 10.7705 17.4 11.4305 17.4C12.0905 17.4 12.9305 16.86 12.9305 16.2V13.2C12.9305 12.87 13.2005 12.6 13.5305 12.6H22.5305C22.8605 12.6 23.1305 12.87 23.1305 13.2V16.17C23.1305 16.77 23.8205 17.28 24.3905 17.37C24.4805 17.37 24.5405 17.4 24.6305 17.4C25.2905 17.4 25.8305 16.86 25.8305 16.2V11.4C25.8305 10.08 24.7505 9 23.4305 9Z" fill="#424242"/>
</g>
</g>
<mask id="mask6_89_3596" style="mask-type:luminance" maskUnits="userSpaceOnUse" x="0" y="0" width="37" height="18">
<path d="M0 0H36.18V17.52H0V0Z" fill="white"/>
</mask>
<g mask="url(#mask6_89_3596)">
<path d="M22.7996 12.6599H13.3496L4.34961 -1.86011H13.7996L22.7996 12.6599Z" fill="url(#paint3_linear_89_3596)"/>
</g>
<mask id="mask7_89_3596" style="mask-type:luminance" maskUnits="userSpaceOnUse" x="0" y="0" width="37" height="18">
<path d="M0 0H36.18V17.52H0V0Z" fill="white"/>
</mask>
<g mask="url(#mask7_89_3596)">
<path d="M20.73 12.6601H16.71L7.70996 -1.88989H11.73L20.73 12.6601Z" fill="url(#paint4_linear_89_3596)"/>
</g>
<mask id="mask8_89_3596" style="mask-type:luminance" maskUnits="userSpaceOnUse" x="0" y="0" width="37" height="18">
<path d="M0 0H36.18V17.52H0V0Z" fill="white"/>
</mask>
<g mask="url(#mask8_89_3596)">
<path d="M22.7702 12.6601H19.4102L10.4102 -1.88989H13.7702L22.7702 12.6601Z" fill="url(#paint5_linear_89_3596)"/>
</g>
<mask id="mask9_89_3596" style="mask-type:luminance" maskUnits="userSpaceOnUse" x="0" y="0" width="37" height="18">
<path d="M0 0H36.18V17.52H0V0Z" fill="white"/>
</mask>
<g mask="url(#mask9_89_3596)">
<g opacity="0.2">
<path d="M13.2896 -0.960107L21.1796 11.7599H13.8596L5.96961 -0.960107H13.2896ZM13.7996 -1.86011H4.34961L13.3496 12.6599H22.7696C22.7996 12.6599 13.7996 -1.86011 13.7996 -1.86011Z" fill="#424242"/>
</g>
</g>
<path d="M18.0299 36C24.3259 36 29.4299 30.896 29.4299 24.6C29.4299 18.3039 24.3259 13.2 18.0299 13.2C11.7338 13.2 6.62988 18.3039 6.62988 24.6C6.62988 30.896 11.7338 36 18.0299 36Z" fill="url(#paint6_radial_89_3596)"/>
<path opacity="0.2" d="M18.0299 14.1C23.8199 14.1 28.5299 18.81 28.5299 24.6C28.5299 30.39 23.8199 35.1 18.0299 35.1C12.2399 35.1 7.52988 30.39 7.52988 24.6C7.52988 18.81 12.2399 14.1 18.0299 14.1ZM18.0299 13.2C11.7299 13.2 6.62988 18.3 6.62988 24.6C6.62988 30.9 11.7299 36 18.0299 36C24.3299 36 29.4299 30.9 29.4299 24.6C29.4299 18.3 24.3299 13.2 18.0299 13.2Z" fill="#424242"/>
<path d="M18.6906 15.96L20.7606 20.13C20.8806 20.34 21.0906 20.49 21.3006 20.52L25.9206 21.18C25.9806 21.18 26.0406 21.21 26.1006 21.24C24.9006 18.21 22.0206 16.02 18.6006 15.78C18.6306 15.87 18.6606 15.9 18.6906 15.96Z" fill="url(#paint7_radial_89_3596)"/>
<path d="M10.14 21.2101L14.76 20.5501C15 20.5201 15.21 20.3701 15.3 20.1601L17.37 15.9901C17.4 15.9301 17.43 15.9001 17.46 15.8401C14.04 16.0501 11.16 18.2401 9.95996 21.2701C10.02 21.2401 10.08 21.2101 10.14 21.2101Z" fill="url(#paint8_radial_89_3596)"/>
<path d="M12.5104 30.9601L13.2904 26.3701C13.3204 26.1301 13.2604 25.8901 13.0804 25.7101L9.75035 22.4701C9.69035 22.4101 9.66035 22.3801 9.63035 22.3201C9.45035 23.0101 9.36035 23.7301 9.36035 24.4801C9.36035 27.1801 10.5904 29.5801 12.5104 31.1701C12.4804 31.1101 12.4804 31.0201 12.5104 30.9601Z" fill="url(#paint9_radial_89_3596)"/>
<path d="M26.4301 22.3201C26.4001 22.3801 26.3701 22.4401 26.3101 22.4701L22.9801 25.7101C22.8001 25.8901 22.7401 26.1301 22.7701 26.3701L23.5501 30.9601C23.5501 31.0201 23.5801 31.1101 23.5501 31.1701C25.4701 29.5801 26.7001 27.1801 26.7001 24.4801C26.7001 23.7301 26.6101 23.0101 26.4301 22.3201Z" fill="url(#paint10_radial_89_3596)"/>
<path d="M22.4999 31.74L18.3899 29.58C18.1799 29.46 17.9099 29.46 17.6999 29.58L13.5899 31.74C13.5299 31.77 13.4399 31.8 13.3799 31.8C14.7299 32.67 16.3199 33.15 18.0599 33.15C19.7999 33.15 21.3899 32.64 22.7399 31.8C22.6199 31.77 22.5599 31.77 22.4999 31.74Z" fill="url(#paint11_radial_89_3596)"/>
<path opacity="0.2" d="M20.2206 17.0101C21.9306 17.5201 23.4306 18.6001 24.4506 20.1001L21.5106 19.6801L20.2206 17.0101ZM18.6006 15.8101C18.6306 15.8701 18.6606 15.9001 18.6906 15.9601L20.7606 20.1301C20.8806 20.3401 21.0906 20.4901 21.3006 20.5201L25.9206 21.1801C25.9806 21.1801 26.0406 21.2101 26.1006 21.2401C24.8706 18.2401 21.9906 16.0201 18.6006 15.8101Z" fill="#424242"/>
<path opacity="0.2" d="M15.84 17.0101L14.52 19.6501L11.61 20.1001C12.63 18.6001 14.13 17.5201 15.84 17.0101ZM17.46 15.8101C14.04 16.0201 11.16 18.2101 9.95996 21.2401C10.02 21.2101 10.08 21.1801 10.14 21.1801L14.76 20.5201C15 20.4901 15.21 20.3401 15.3 20.1301L17.37 15.9601C17.4 15.9001 17.43 15.8701 17.46 15.8101Z" fill="#424242"/>
<path opacity="0.2" d="M10.2604 24.2101L12.3904 26.2801L11.8804 29.2201C10.8304 27.9001 10.2604 26.2201 10.2604 24.4801C10.2604 24.3901 10.2604 24.3001 10.2604 24.2101ZM9.63035 22.3201C9.45035 23.0101 9.36035 23.7301 9.36035 24.4801C9.36035 27.1801 10.5904 29.5801 12.5104 31.1701C12.5104 31.1101 12.5104 31.0201 12.5104 30.9601L13.2904 26.3701C13.3204 26.1301 13.2604 25.8901 13.0804 25.7101L9.75035 22.4701C9.69035 22.4101 9.66035 22.3501 9.63035 22.3201Z" fill="#424242"/>
<path opacity="0.2" d="M25.8001 24.2101V24.4801C25.8001 26.2201 25.2301 27.9001 24.1801 29.2501L23.6701 26.3101L25.8001 24.2101ZM26.4301 22.3201C26.4001 22.3801 26.3701 22.4401 26.3101 22.4701L22.9801 25.7101C22.8001 25.8901 22.7401 26.1301 22.7701 26.3701L23.5501 30.9601C23.5501 31.0201 23.5801 31.1101 23.5501 31.1701C25.4701 29.5801 26.7001 27.1801 26.7001 24.4801C26.7001 23.7301 26.6101 23.0101 26.4301 22.3201Z" fill="#424242"/>
<path opacity="0.2" d="M18.0299 30.3902L20.6999 31.8002C19.8599 32.1002 18.9599 32.2802 18.0299 32.2802C17.0999 32.2802 16.2299 32.1302 15.3599 31.8002L18.0299 30.3902ZM18.0299 29.4602C17.9099 29.4602 17.7899 29.4902 17.6999 29.5502L13.5899 31.7102C13.5299 31.7402 13.4399 31.7702 13.3799 31.7702C14.7299 32.6402 16.3199 33.1202 18.0599 33.1202C19.7999 33.1202 21.3899 32.6102 22.7399 31.7702C22.6799 31.7702 22.6199 31.7402 22.5299 31.7102L18.4199 29.5502C18.2699 29.4902 18.1499 29.4602 18.0299 29.4602Z" fill="#424242"/>
<defs>
<linearGradient id="paint0_linear_89_3596" x1="26.883" y1="-1.47539" x2="17.4831" y2="13.5247" gradientUnits="userSpaceOnUse">
<stop offset="0.1848" stop-color="#1E88E5"/>
<stop offset="0.806" stop-color="#1565C0"/>
</linearGradient>
<linearGradient id="paint1_linear_89_3596" x1="26.2111" y1="0.570168" x2="18.1486" y2="13.1702" gradientUnits="userSpaceOnUse">
<stop offset="0.461" stop-color="#EEEEEE"/>
<stop offset="1" stop-color="#BDBDBD"/>
</linearGradient>
<linearGradient id="paint2_linear_89_3596" x1="28.8988" y1="0.0163975" x2="21.3988" y2="12.2415" gradientUnits="userSpaceOnUse">
<stop offset="0.2565" stop-color="#E53935"/>
<stop offset="0.8859" stop-color="#C62828"/>
</linearGradient>
<linearGradient id="paint3_linear_89_3596" x1="9.26694" y1="-1.47422" x2="18.6668" y2="13.5259" gradientUnits="userSpaceOnUse">
<stop offset="0.1355" stop-color="#64B5F6"/>
<stop offset="0.9462" stop-color="#2196F3"/>
</linearGradient>
<linearGradient id="paint4_linear_89_3596" x1="10.2926" y1="-0.752443" x2="18.3551" y2="11.8474" gradientUnits="userSpaceOnUse">
<stop offset="0.2104" stop-color="#FAFAFA"/>
<stop offset="0.7737" stop-color="#E0E0E0"/>
</linearGradient>
<linearGradient id="paint5_linear_89_3596" x1="13.2996" y1="0.0214374" x2="20.7996" y2="12.2466" gradientUnits="userSpaceOnUse">
<stop offset="0.2579" stop-color="#EF5350"/>
<stop offset="0.89" stop-color="#E53935"/>
</linearGradient>
<radialGradient id="paint6_radial_89_3596" cx="0" cy="0" r="1" gradientUnits="userSpaceOnUse" gradientTransform="translate(11.7299 16.05) scale(21.7731)">
<stop offset="0.2972" stop-color="#FFEB3B"/>
<stop offset="0.9544" stop-color="#FBC02D"/>
</radialGradient>
<radialGradient id="paint7_radial_89_3596" cx="0" cy="0" r="1" gradientUnits="userSpaceOnUse" gradientTransform="translate(13.8366 17.1915) scale(16.3392 16.3392)">
<stop offset="0.0977" stop-color="#FDD835"/>
<stop offset="0.9508" stop-color="#F9A825"/>
</radialGradient>
<radialGradient id="paint8_radial_89_3596" cx="0" cy="0" r="1" gradientUnits="userSpaceOnUse" gradientTransform="translate(13.836 17.1916) scale(16.3392 16.3392)">
<stop offset="0.0977" stop-color="#FDD835"/>
<stop offset="0.9508" stop-color="#F9A825"/>
</radialGradient>
<radialGradient id="paint9_radial_89_3596" cx="0" cy="0" r="1" gradientUnits="userSpaceOnUse" gradientTransform="translate(13.8364 17.1916) scale(16.3392 16.3392)">
<stop offset="0.0977" stop-color="#FDD835"/>
<stop offset="0.9508" stop-color="#F9A825"/>
</radialGradient>
<radialGradient id="paint10_radial_89_3596" cx="0" cy="0" r="1" gradientUnits="userSpaceOnUse" gradientTransform="translate(13.8361 17.1916) scale(16.3392 16.3392)">
<stop offset="0.0977" stop-color="#FDD835"/>
<stop offset="0.9508" stop-color="#F9A825"/>
</radialGradient>
<radialGradient id="paint11_radial_89_3596" cx="0" cy="0" r="1" gradientUnits="userSpaceOnUse" gradientTransform="translate(13.8359 17.1915) scale(16.3392 16.3392)">
<stop offset="0.0977" stop-color="#FDD835"/>
<stop offset="0.9508" stop-color="#F9A825"/>
</radialGradient>
</defs>
</svg>
