<svg width="20" height="28" viewBox="0 0 20 28" fill="none" xmlns="http://www.w3.org/2000/svg">
<path d="M18.4922 23.0835L13.9679 18.6973L15.7988 17.0106L16.4733 16.39L16.5092 16.3577L16.5765 16.2905C18.2679 14.5659 19.2131 12.2453 19.2082 9.82969C19.2082 4.94598 15.392 0.891569 10.5207 0.597625C9.24041 0.518078 7.95775 0.709613 6.75655 1.15971C5.60264 1.59094 4.54678 2.2489 3.65125 3.09477C2.72432 3.97054 1.98549 5.02594 1.47981 6.1966C0.974123 7.36726 0.712183 8.62866 0.709961 9.90387V24.3892C0.709934 24.9441 0.871569 25.4871 1.17511 25.9517C1.47866 26.4163 1.91097 26.7824 2.41921 27.0053C2.92745 27.2282 3.48961 27.2982 4.037 27.2068C4.58439 27.1154 5.0933 26.8665 5.50153 26.4905L10.0973 22.2597L14.8354 26.8531C15.3244 27.3301 15.9806 27.5966 16.6636 27.5958C17.0149 27.5949 17.3624 27.524 17.686 27.3872C18.0095 27.2504 18.3026 27.0506 18.548 26.7992C18.7885 26.5517 18.9778 26.2592 19.1052 25.9384C19.2326 25.6176 19.2955 25.2749 19.2903 24.9298C19.2851 24.5847 19.212 24.244 19.075 23.9272C18.9381 23.6104 18.74 23.3237 18.4922 23.0835ZM5.3154 20.3993V9.90387C5.31277 9.25614 5.44402 8.61486 5.70089 8.02024C5.95777 7.42562 6.33474 6.89049 6.80815 6.44841C7.65779 5.63813 8.78685 5.18621 9.96091 5.18647C10.0531 5.18647 10.1469 5.18939 10.2424 5.19523C11.1255 5.24902 11.9748 5.55404 12.6903 6.07437C13.4058 6.5947 13.9577 7.30866 14.281 8.13217C14.6043 8.95567 14.6855 9.85441 14.5151 10.7225C14.3447 11.5907 13.9298 12.392 13.3192 13.0322L12.958 13.3653H12.9556L5.3154 20.3993Z" fill="#E5E9F0"/>
</svg>
