<svg width="965" height="140" viewBox="0 0 965 140" fill="none" xmlns="http://www.w3.org/2000/svg">
<path opacity="0.68" d="M764 65.6418C854 -81.3582 365 237.642 355 248.642V253.642L668 236.642C670 228.642 692 183.242 764 65.6418Z" stroke="#FFF0EA" stroke-width="32"/>
<path opacity="0.68" d="M42.0023 67.2435C-68.4259 -4.55761 165.119 375.612 173.315 383.479L177.134 383.583L170.64 144.126C164.57 142.432 130.345 124.684 42.0023 67.2435Z" stroke="#FFF0EA" stroke-width="24.4542"/>
<path d="M307.905 66.2859C314.319 176.185 525.567 -73.9071 526.799 -83.3216L453.808 -181.44L232.799 -65.3215C234.668 -60.3974 302.774 -21.6336 307.905 66.2859Z" stroke="#FFF0EA" stroke-width="32"/>
<path d="M945.905 69.2859C952.319 179.185 1163.57 -70.9071 1164.8 -80.3216L1091.81 -178.44L870.799 -62.3215C872.668 -57.3974 940.774 -18.6336 945.905 69.2859Z" stroke="#FFF0EA" stroke-width="32"/>
</svg>
