<svg width="15" height="15" viewBox="0 0 15 15" fill="none" xmlns="http://www.w3.org/2000/svg">
<path d="M13.9334 7.26823H12.2801C11.9887 7.26761 11.7052 7.36243 11.4728 7.53821C11.2405 7.71398 11.0721 7.96103 10.9934 8.24156L9.42676 13.8149C9.41667 13.8495 9.39561 13.8799 9.36676 13.9016C9.33791 13.9232 9.30283 13.9349 9.26676 13.9349C9.2307 13.9349 9.19561 13.9232 9.16676 13.9016C9.13791 13.8799 9.11686 13.8495 9.10676 13.8149L5.42676 0.721563C5.41667 0.686943 5.39561 0.656533 5.36676 0.634896C5.33791 0.613259 5.30283 0.601563 5.26676 0.601562C5.2307 0.601563 5.19561 0.613259 5.16676 0.634896C5.13791 0.656533 5.11686 0.686943 5.10676 0.721563L3.5401 6.2949C3.46174 6.57433 3.29435 6.82057 3.06334 6.99624C2.83233 7.1719 2.55031 7.2674 2.2601 7.26823H0.600098" stroke="#808D97" stroke-width="1.2" stroke-linecap="round" stroke-linejoin="round"/>
</svg>
