<svg width="16" height="16" viewBox="0 0 16 16" fill="none" xmlns="http://www.w3.org/2000/svg">
<path d="M6.66634 6.66602H3.99967M9.33301 11.9993V3.99935C9.33301 3.64573 9.19253 3.30659 8.94248 3.05654C8.69243 2.80649 8.3533 2.66602 7.99967 2.66602H2.66634C2.31272 2.66602 1.97358 2.80649 1.72353 3.05654C1.47348 3.30659 1.33301 3.64573 1.33301 3.99935V11.3327C1.33301 11.5095 1.40325 11.6791 1.52827 11.8041C1.65329 11.9291 1.82286 11.9993 1.99967 11.9993H3.33301M3.33301 11.9993C3.33301 12.7357 3.92996 13.3327 4.66634 13.3327C5.40272 13.3327 5.99967 12.7357 5.99967 11.9993M3.33301 11.9993C3.33301 11.263 3.92996 10.666 4.66634 10.666C5.40272 10.666 5.99967 11.263 5.99967 11.9993M12.6663 11.9993H13.9997C14.1765 11.9993 14.3461 11.9291 14.4711 11.8041C14.5961 11.6791 14.6663 11.5095 14.6663 11.3327V9.14602C14.6662 9.00615 14.6221 8.86987 14.5403 8.75645C14.4585 8.64302 14.343 8.55821 14.2103 8.51402L12.9283 8.08668C12.8453 8.05894 12.7685 8.01511 12.7024 7.95768C12.6363 7.90026 12.5821 7.83037 12.543 7.75202L11.517 5.70135C11.4617 5.59063 11.3766 5.4975 11.2714 5.43238C11.1661 5.36727 11.0448 5.33275 10.921 5.33268H9.33301M12.6663 11.9993C12.6663 12.7357 12.0694 13.3327 11.333 13.3327C10.5966 13.3327 9.99967 12.7357 9.99967 11.9993M12.6663 11.9993C12.6663 11.263 12.0694 10.666 11.333 10.666C10.5966 10.666 9.99967 11.263 9.99967 11.9993M5.33301 5.33268V7.99935M5.99967 11.9993H9.99967" stroke="#808D97" stroke-linecap="round" stroke-linejoin="round"/>
</svg>
