<svg width="48" height="48" viewBox="0 0 48 48" fill="none" xmlns="http://www.w3.org/2000/svg">
<g opacity="0.2">
<path d="M20 20H12M28 36V12C28 10.9391 27.5786 9.92172 26.8284 9.17157C26.0783 8.42143 25.0609 8 24 8H8C6.93913 8 5.92172 8.42143 5.17157 9.17157C4.42143 9.92172 4 10.9391 4 12V34C4 34.5304 4.21071 35.0391 4.58579 35.4142C4.96086 35.7893 5.46957 36 6 36H10M10 36C10 38.2091 11.7909 40 14 40C16.2091 40 18 38.2091 18 36M10 36C10 33.7909 11.7909 32 14 32C16.2091 32 18 33.7909 18 36M38 36H42C42.5304 36 43.0391 35.7893 43.4142 35.4142C43.7893 35.0391 44 34.5304 44 34V27.44C43.9997 27.0204 43.8674 26.6116 43.6219 26.2713C43.3764 25.931 43.0301 25.6766 42.632 25.544L38.786 24.262C38.5368 24.1788 38.3065 24.0473 38.1081 23.875C37.9098 23.7027 37.7473 23.4931 37.63 23.258L34.552 17.106C34.386 16.7738 34.1308 16.4944 33.8151 16.2991C33.4993 16.1038 33.1353 16.0002 32.764 16H28M38 36C38 38.2091 36.2091 40 34 40C31.7909 40 30 38.2091 30 36M38 36C38 33.7909 36.2091 32 34 32C31.7909 32 30 33.7909 30 36M16 16V24M18 36H30" stroke="#808D97" stroke-width="5" stroke-linecap="round" stroke-linejoin="round"/>
</g>
</svg>
