<svg width="16" height="16" viewBox="0 0 16 16" fill="none" xmlns="http://www.w3.org/2000/svg">
<path d="M4.66659 11.9987V7.9987C4.66659 7.11464 5.01777 6.2668 5.6429 5.64168C6.26802 5.01655 7.11586 4.66536 7.99992 4.66536C8.88397 4.66536 9.73182 5.01655 10.3569 5.64168C10.9821 6.2668 11.3333 7.11464 11.3333 7.9987V11.9987M4.66659 11.9987H11.3333M4.66659 11.9987C4.31296 11.9987 3.97382 12.1392 3.72378 12.3892C3.47373 12.6393 3.33325 12.9784 3.33325 13.332V13.9987C3.33325 14.1755 3.40349 14.3451 3.52851 14.4701C3.65354 14.5951 3.82311 14.6654 3.99992 14.6654H11.9999C12.1767 14.6654 12.3463 14.5951 12.4713 14.4701C12.5963 14.3451 12.6666 14.1755 12.6666 13.9987V13.332C12.6666 12.9784 12.5261 12.6393 12.2761 12.3892C12.026 12.1392 11.6869 11.9987 11.3333 11.9987M13.9999 7.9987H14.6666M12.3333 2.9987L11.9999 3.33203M1.33325 7.9987H1.99992M7.99992 1.33203V1.9987M3.28592 3.2847L3.75725 3.75603M7.99992 7.9987V11.9987" stroke="#808D97" stroke-linecap="round" stroke-linejoin="round"/>
</svg>
