<svg width="512" height="512" viewBox="0 0 512 512" fill="none" xmlns="http://www.w3.org/2000/svg">
<g clip-path="url(#clip0_1709_13698)">
<rect width="512" height="512" rx="100" fill="#E86229"/>
<ellipse opacity="0.5" cx="256" cy="420" rx="336" ry="226" fill="#FF6C2D"/>
<path d="M359.289 365.713L304.258 312.364L326.528 291.848L334.733 284.299L335.17 283.907L335.988 283.089C356.56 262.112 368.058 233.886 367.998 204.505C367.998 145.103 321.58 95.7887 262.33 92.2134C246.758 91.2459 231.156 93.5756 216.546 99.0502C202.511 104.295 189.668 112.298 178.775 122.587C167.501 133.239 158.515 146.076 152.364 160.315C146.213 174.554 143.027 189.896 143 205.407V381.594C143 388.345 144.966 394.949 148.658 400.6C152.35 406.251 157.608 410.704 163.79 413.415C169.972 416.126 176.809 416.978 183.467 415.866C190.125 414.754 196.315 411.727 201.281 407.154L257.18 355.693L314.811 411.564C320.758 417.365 328.739 420.608 337.047 420.598C341.32 420.587 345.547 419.724 349.483 418.061C353.418 416.397 356.982 413.966 359.967 410.909C362.892 407.898 365.196 404.34 366.745 400.438C368.294 396.536 369.059 392.368 368.996 388.17C368.933 383.973 368.044 379.829 366.378 375.975C364.712 372.122 362.303 368.635 359.289 365.713ZM199.017 333.064V205.407C198.985 197.529 200.581 189.729 203.706 182.496C206.83 175.264 211.415 168.755 217.174 163.378C227.508 153.522 241.241 148.025 255.521 148.028C256.642 148.028 257.783 148.064 258.945 148.135C269.686 148.789 280.016 152.499 288.719 158.828C297.422 165.157 304.134 173.841 308.067 183.858C311.999 193.874 312.987 204.806 310.915 215.365C308.842 225.924 303.795 235.671 296.368 243.458L291.975 247.509H291.947L199.017 333.064Z" fill="#FFF0EA"/>
</g>
<defs>
<clipPath id="clip0_1709_13698">
<rect width="512" height="512" rx="100" fill="white"/>
</clipPath>
</defs>
</svg>
