<svg width="18" height="18" viewBox="0 0 18 18" fill="none" xmlns="http://www.w3.org/2000/svg">
<path d="M10.5 13.5H15.75M2.25 13.5H3.75M3.75 13.5C3.75 14.5355 4.58947 15.375 5.625 15.375C6.66053 15.375 7.5 14.5355 7.5 13.5C7.5 12.4645 6.66053 11.625 5.625 11.625C4.58947 11.625 3.75 12.4645 3.75 13.5ZM15 9H15.75M2.25 9H7.5M9.75 4.5H15.75M9.75 4.5C9.75 3.46447 8.91053 2.625 7.875 2.625C6.83947 2.625 6 3.46447 6 4.5C6 5.53553 6.83947 6.375 7.875 6.375C8.91053 6.375 9.75 5.53553 9.75 4.5ZM2.25 4.5H3M12.375 10.875C11.3395 10.875 10.5 10.0355 10.5 9C10.5 7.96447 11.3395 7.125 12.375 7.125C13.4105 7.125 14.25 7.96447 14.25 9C14.25 10.0355 13.4105 10.875 12.375 10.875Z" stroke="#667085" stroke-width="1.35" stroke-linecap="round" stroke-linejoin="round"/>
</svg>
