<svg width="15" height="15" viewBox="0 0 15 15" fill="none" xmlns="http://www.w3.org/2000/svg">
<path d="M13.407 9.83058C12.9829 10.8336 12.3196 11.7174 11.475 12.4048C10.6303 13.0922 9.63021 13.5622 8.56199 13.7738C7.49377 13.9853 6.38998 13.932 5.34713 13.6184C4.30428 13.3049 3.35412 12.7406 2.57971 11.975C1.80531 11.2094 1.23024 10.2658 0.90479 9.22655C0.579337 8.18735 0.513407 7.08424 0.712765 6.01367C0.912122 4.9431 1.3707 3.93767 2.0484 3.08527C2.7261 2.23287 3.60229 1.55946 4.60037 1.12392M13.267 7.23725C13.635 7.23725 13.937 6.93792 13.9004 6.57192C13.7467 5.04136 13.0684 3.61105 11.9806 2.52347C10.8928 1.43588 9.46229 0.757942 7.9317 0.604585C7.56503 0.567918 7.26637 0.869918 7.26637 1.23792V6.57125C7.26637 6.74806 7.3366 6.91763 7.46163 7.04266C7.58665 7.16768 7.75622 7.23792 7.93303 7.23792L13.267 7.23725Z" stroke="#DB4A47" stroke-width="1.2" stroke-linecap="round" stroke-linejoin="round"/>
</svg>
