<svg width="15" height="15" viewBox="0 0 15 15" fill="none" xmlns="http://www.w3.org/2000/svg">
<path d="M1.83333 5.16667C1.47971 5.16667 1.14057 5.30714 0.890524 5.55719C0.640476 5.80724 0.5 6.14638 0.5 6.5V7.83333C0.5 8.18695 0.640476 8.52609 0.890524 8.77614C1.14057 9.02619 1.47971 9.16667 1.83333 9.16667H4.5C4.67681 9.16667 4.84638 9.2369 4.9714 9.36193C5.09643 9.48695 5.16667 9.65652 5.16667 9.83333V12.5C5.16667 12.8536 5.30714 13.1928 5.55719 13.4428C5.80724 13.6929 6.14638 13.8333 6.5 13.8333H7.83333C8.18695 13.8333 8.52609 13.6929 8.77614 13.4428C9.02619 13.1928 9.16667 12.8536 9.16667 12.5V9.83333C9.16667 9.65652 9.2369 9.48695 9.36193 9.36193C9.48695 9.2369 9.65652 9.16667 9.83333 9.16667H12.5C12.8536 9.16667 13.1928 9.02619 13.4428 8.77614C13.6929 8.52609 13.8333 8.18695 13.8333 7.83333V6.5C13.8333 6.14638 13.6929 5.80724 13.4428 5.55719C13.1928 5.30714 12.8536 5.16667 12.5 5.16667H9.83333C9.65652 5.16667 9.48695 5.09643 9.36193 4.9714C9.2369 4.84638 9.16667 4.67681 9.16667 4.5V1.83333C9.16667 1.47971 9.02619 1.14057 8.77614 0.890524C8.52609 0.640476 8.18695 0.5 7.83333 0.5H6.5C6.14638 0.5 5.80724 0.640476 5.55719 0.890524C5.30714 1.14057 5.16667 1.47971 5.16667 1.83333V4.5C5.16667 4.67681 5.09643 4.84638 4.9714 4.9714C4.84638 5.09643 4.67681 5.16667 4.5 5.16667H1.83333Z" stroke="#808D97" stroke-linecap="round" stroke-linejoin="round"/>
</svg>
