<svg width="16" height="16" viewBox="0 0 16 16" fill="none" xmlns="http://www.w3.org/2000/svg">
<g clip-path="url(#clip0_23008_37447)">
<path d="M10.118 9.2649H9.70584V8.72819C10.4785 8.18825 10.9849 7.29241 10.9849 6.28037V4.58064C11.388 4.53707 11.752 4.31769 11.9784 3.97441C12.2322 3.58952 12.2753 3.10671 12.0937 2.68297L11.6213 1.58068C11.4055 1.07721 10.9121 0.751892 10.3643 0.751892H5.63645C5.08869 0.751892 4.5953 1.07721 4.37951 1.58071L3.9071 2.68297C3.72547 3.10677 3.76859 3.58955 4.02239 3.97444C4.24873 4.31769 4.61276 4.53707 5.01584 4.58064V6.28037C5.01584 7.29241 5.52227 8.18822 6.29492 8.72817V9.2649H5.88277C3.524 9.2649 1.60498 11.1839 1.60498 13.5427V14.8218C1.60498 15.0573 1.79588 15.2482 2.03134 15.2482H13.9694C14.2049 15.2482 14.3958 15.0573 14.3958 14.8218V13.5427C14.3958 11.1839 12.4768 9.2649 10.118 9.2649ZM4.7343 3.50502C4.63732 3.35798 4.62151 3.18076 4.69089 3.01885L5.1633 1.9166C5.24451 1.72709 5.43026 1.60461 5.63645 1.60461H10.3643C10.5706 1.60461 10.7563 1.72709 10.8375 1.9166L11.3099 3.01888C11.3793 3.18078 11.3635 3.35798 11.2665 3.50505C11.1696 3.65208 11.0129 3.73645 10.8368 3.73645H5.16404C4.9879 3.73642 4.83125 3.65208 4.7343 3.50502ZM10.0654 4.58914C9.89159 5.10094 9.39292 5.44186 8.75363 5.44186H7.24716C6.60784 5.44186 6.10917 5.10094 5.93541 4.58914H10.0654ZM5.86859 6.28037V5.86151C6.25507 6.14192 6.73589 6.29458 7.24716 6.29458H8.75363C9.26489 6.29458 9.74572 6.14192 10.1322 5.86149V6.28037C10.1322 7.45585 9.17587 8.41218 8.00039 8.41218C6.82492 8.41218 5.86859 7.45585 5.86859 6.28037ZM8.00039 9.2649C8.29663 9.2649 8.5828 9.22132 8.85311 9.14057V9.69126C8.85311 10.1063 8.55492 10.4529 8.1615 10.5285L7.14767 9.51466V9.14057C7.41798 9.22129 7.70419 9.2649 8.00039 9.2649ZM6.54471 10.1176L7.69884 11.2717C7.69887 11.2718 7.69893 11.2718 7.69898 11.2719L10.8225 14.3954H9.45607L5.23914 10.1785C5.44769 10.1387 5.6628 10.1176 5.8828 10.1176H6.54471ZM2.4577 13.5427C2.4577 12.2087 3.22433 11.0506 4.34003 10.4853L8.25015 14.3954H2.4577V13.5427ZM13.5431 14.3954H12.0285L8.81957 11.1866C9.22663 10.9627 9.53307 10.5775 9.65186 10.1176H10.118C12.0066 10.1176 13.5431 11.6541 13.5431 13.5427V14.3954Z" fill="#808D97"/>
</g>
<defs>
<clipPath id="clip0_23008_37447">
<rect width="16" height="16" fill="white"/>
</clipPath>
</defs>
</svg>
