<svg width="101" height="29" viewBox="0 0 101 29" fill="none" xmlns="http://www.w3.org/2000/svg">
<path d="M21.5201 22.0382L17.545 18.1846L19.1537 16.7026L19.7463 16.1573L19.7779 16.129L19.837 16.0699C21.323 14.5546 22.1535 12.5157 22.1492 10.3934C22.1492 6.10251 18.7962 2.54028 14.5163 2.28202C13.3914 2.21213 12.2644 2.38041 11.2091 2.77587C10.1952 3.15476 9.26754 3.73284 8.48072 4.47603C7.66632 5.24549 7.01718 6.17277 6.57288 7.20132C6.12858 8.22987 5.89844 9.33815 5.89648 10.4586V23.1854C5.89646 23.673 6.03847 24.1501 6.30517 24.5583C6.57187 24.9665 6.9517 25.2882 7.39824 25.484C7.84479 25.6798 8.33871 25.7414 8.81965 25.661C9.30059 25.5807 9.74772 25.362 10.1064 25.0317L14.1443 21.3145L18.3072 25.3503C18.7368 25.7693 19.3134 26.0036 19.9135 26.0028C20.2221 26.002 20.5275 25.9397 20.8117 25.8196C21.096 25.6994 21.3535 25.5238 21.5691 25.3029C21.7804 25.0855 21.9468 24.8284 22.0587 24.5466C22.1706 24.2648 22.2259 23.9636 22.2213 23.6604C22.2168 23.3572 22.1525 23.0579 22.0322 22.7795C21.9119 22.5012 21.7379 22.2493 21.5201 22.0382ZM9.94286 19.6799V10.4586C9.94055 9.88946 10.0559 9.32602 10.2816 8.80358C10.5072 8.28115 10.8385 7.81098 11.2544 7.42256C12.0009 6.71065 12.9929 6.31358 14.0244 6.31382C14.1054 6.31382 14.1878 6.31638 14.2718 6.32151C15.0476 6.36877 15.7938 6.63677 16.4225 7.09393C17.0511 7.5511 17.536 8.17839 17.8201 8.90193C18.1041 9.62546 18.1755 10.4151 18.0258 11.1778C17.8761 11.9406 17.5115 12.6447 16.975 13.2071L16.6577 13.4998H16.6556L9.94286 19.6799Z" fill="#1D2939"/>
<path d="M37.1385 11.0589V13.7924H36.0499C33.9211 13.7924 32.5906 14.9294 32.5906 17.2518V23.0576H29.6393V11.1314H32.4212L32.5906 12.8732C33.0986 11.6878 34.2356 10.8895 35.8322 10.8895C36.2434 10.8895 36.6547 10.9379 37.1385 11.0589ZM43.1131 23.3721C39.557 23.3721 37.0654 20.7837 37.0654 17.0824C37.0654 13.3328 39.5087 10.7444 43.0164 10.7444C46.5966 10.7444 48.8706 13.1393 48.8706 16.8647V17.7598L39.8715 17.784C40.0892 19.8886 41.202 20.953 43.1615 20.953C44.7823 20.953 45.8467 20.324 46.1854 19.187H48.919C48.411 21.7997 46.2338 23.3721 43.1131 23.3721ZM43.0405 13.1635C41.2988 13.1635 40.2344 14.1069 39.9441 15.8971H45.9435C45.9435 14.2521 44.8065 13.1635 43.0405 13.1635ZM49.3457 19.429H52.1519C52.1761 20.4692 52.9502 21.1223 54.3049 21.1223C55.6838 21.1223 56.4337 20.5659 56.4337 19.6951C56.4337 19.0903 56.1192 18.6548 55.0548 18.4129L52.9018 17.9049C50.7488 17.4211 49.7086 16.4051 49.7086 14.494C49.7086 12.1475 51.6922 10.7444 54.45 10.7444C57.1352 10.7444 58.9496 12.2926 58.9738 14.6149H56.1676C56.1434 13.5989 55.4661 12.9458 54.3291 12.9458C53.1679 12.9458 52.4906 13.478 52.4906 14.373C52.4906 15.0504 53.0228 15.4858 54.0388 15.7277L56.1918 16.2357C58.1996 16.6954 59.2157 17.6146 59.2157 19.4532C59.2157 21.8723 57.1594 23.3721 54.2081 23.3721C51.2326 23.3721 49.3457 21.7755 49.3457 19.429ZM59.7936 16.9373C59.7936 13.1877 62.0192 10.7444 65.3817 10.7444C67.1961 10.7444 68.7685 11.5427 69.4942 12.9216L69.6877 11.1072H72.3971V28.5974H69.47V21.461C68.7201 22.6706 67.1477 23.3721 65.3817 23.3721C61.8257 23.3721 59.7936 20.6627 59.7936 16.9373ZM62.7449 17.0824C62.7449 19.2112 64.0028 20.7111 66.0591 20.7111C68.1153 20.7111 69.4458 19.2354 69.4458 17.0824C69.4458 14.9294 68.1153 13.4296 66.0591 13.4296C64.0028 13.4296 62.7449 14.9536 62.7449 17.0824ZM82.6092 11.1072H85.5605V23.0576H82.8269L82.6092 21.461C81.8834 22.598 80.3352 23.3721 78.7386 23.3721C75.9808 23.3721 74.36 21.5094 74.36 18.5823V11.1072H77.3113V17.5421C77.3113 19.816 78.2064 20.7353 79.8514 20.7353C81.7141 20.7353 82.6092 19.6467 82.6092 17.3727V11.1072ZM92.7511 23.3721C89.195 23.3721 86.7033 20.7837 86.7033 17.0824C86.7033 13.3328 89.1466 10.7444 92.6543 10.7444C96.2346 10.7444 98.5085 13.1393 98.5085 16.8647V17.7598L89.5095 17.784C89.7272 19.8886 90.84 20.953 92.7995 20.953C94.4203 20.953 95.4847 20.324 95.8233 19.187H98.5569C98.0489 21.7997 95.8717 23.3721 92.7511 23.3721ZM92.6785 13.1635C90.9367 13.1635 89.8723 14.1069 89.582 15.8971H95.5814C95.5814 14.2521 94.4444 13.1635 92.6785 13.1635Z" fill="#FF6C2D"/>
</svg>
