<svg width="102" height="32" viewBox="0 0 102 32" fill="none" xmlns="http://www.w3.org/2000/svg">
<path d="M24.4922 25.0835L19.9679 20.6973L21.7988 19.0106L22.4733 18.39L22.5092 18.3577L22.5765 18.2905C24.2679 16.5659 25.2131 14.2453 25.2082 11.8297C25.2082 6.94598 21.392 2.89157 16.5207 2.59762C15.2404 2.51808 13.9577 2.70961 12.7566 3.15971C11.6026 3.59094 10.5468 4.2489 9.65125 5.09477C8.72432 5.97054 7.98549 7.02594 7.47981 8.1966C6.97412 9.36726 6.71218 10.6287 6.70996 11.9039V26.3892C6.70993 26.9441 6.87157 27.4871 7.17511 27.9517C7.47866 28.4163 7.91097 28.7824 8.41921 29.0053C8.92745 29.2282 9.48961 29.2982 10.037 29.2068C10.5844 29.1154 11.0933 28.8665 11.5015 28.4905L16.0973 24.2597L20.8354 28.8531C21.3244 29.3301 21.9806 29.5966 22.6636 29.5958C23.0149 29.5949 23.3624 29.524 23.686 29.3872C24.0095 29.2504 24.3026 29.0506 24.548 28.7992C24.7885 28.5517 24.9778 28.2592 25.1052 27.9384C25.2326 27.6176 25.2955 27.2749 25.2903 26.9298C25.2851 26.5847 25.212 26.244 25.075 25.9272C24.9381 25.6104 24.74 25.3237 24.4922 25.0835ZM11.3154 22.3993V11.9039C11.3128 11.2561 11.444 10.6149 11.7009 10.0202C11.9578 9.42562 12.3347 8.89049 12.8082 8.44841C13.6578 7.63813 14.7869 7.18621 15.9609 7.18647C16.0531 7.18647 16.1469 7.18939 16.2424 7.19523C17.1255 7.24902 17.9748 7.55404 18.6903 8.07437C19.4058 8.5947 19.9577 9.30866 20.281 10.1322C20.6043 10.9557 20.6855 11.8544 20.5151 12.7225C20.3447 13.5907 19.9298 14.392 19.3192 15.0322L18.958 15.3653H18.9556L11.3154 22.3993Z" fill="#E5E9F0"/>
<path d="M37.7545 26.5H34.2302V6.37309H41.912C46.4826 6.37309 49.1533 8.6859 49.1533 12.6507C49.1533 15.349 47.8868 17.2763 45.5189 18.24L49.346 26.5H45.4914L42.0772 18.9834H37.7545V26.5ZM37.7545 9.5119V15.8721H41.912C44.1422 15.8721 45.4638 14.6882 45.4638 12.6507C45.4638 10.6408 44.1422 9.5119 41.912 9.5119H37.7545ZM64.0742 26.5H51.5741V6.37309H64.0742V9.62203H55.0984V14.7983H63.1381V17.9096H55.0984V23.2511H64.0742V26.5ZM65.6374 11.9899C65.6374 8.46563 68.5559 6.01516 72.7961 6.01516C76.871 6.01516 79.4592 8.2729 79.5693 11.9073H76.045C75.9624 10.1727 74.7234 9.15396 72.741 9.15396C70.5659 9.15396 69.1617 10.2002 69.1617 11.8798C69.1617 13.3115 69.9326 14.11 71.6122 14.4954L74.7785 15.1838C78.2202 15.9272 79.8997 17.6893 79.8997 20.6905C79.8997 24.435 76.9812 26.8579 72.5483 26.8579C68.2531 26.8579 65.4447 24.5727 65.3621 20.9658H68.8863C68.9139 22.6729 70.2906 23.6916 72.5483 23.6916C74.8886 23.6916 76.3754 22.6729 76.3754 20.9933C76.3754 19.6442 75.6871 18.8457 74.0351 18.4878L70.8412 17.7719C67.4271 17.0285 65.6374 15.0736 65.6374 11.9899ZM97.7908 28.0143L95.5881 25.5363C94.1564 26.3623 92.4493 26.8304 90.5495 26.8304C84.7951 26.8304 80.8302 22.5627 80.8302 16.4228C80.8302 10.3104 84.8226 6.01516 90.5771 6.01516C96.3315 6.01516 100.351 10.2828 100.351 16.4228C100.351 19.3138 99.4704 21.7918 97.901 23.609L100.049 26.0044L97.7908 28.0143ZM96.6344 16.4228C96.6344 12.1276 94.2665 9.40176 90.5771 9.40176C86.8876 9.40176 84.5197 12.1276 84.5197 16.4228C84.5197 20.718 86.8876 23.4438 90.5771 23.4438C91.5683 23.4438 92.4493 23.2511 93.2478 22.8656L90.5771 19.8645L92.8073 17.8545L95.478 20.8557C96.2214 19.6993 96.6344 18.1849 96.6344 16.4228Z" fill="#E86229"/>
</svg>
