<svg width="16" height="16" viewBox="0 0 16 16" fill="none" xmlns="http://www.w3.org/2000/svg">
<path d="M6.66658 6.66797H3.99992M9.33325 12.0013V4.0013C9.33325 3.64768 9.19278 3.30854 8.94273 3.05849C8.69268 2.80844 8.35354 2.66797 7.99992 2.66797H2.66659C2.31296 2.66797 1.97382 2.80844 1.72378 3.05849C1.47373 3.30854 1.33325 3.64768 1.33325 4.0013V11.3346C1.33325 11.5114 1.40349 11.681 1.52851 11.806C1.65354 11.9311 1.82311 12.0013 1.99992 12.0013H3.33325M3.33325 12.0013C3.33325 12.7377 3.93021 13.3346 4.66659 13.3346C5.40296 13.3346 5.99992 12.7377 5.99992 12.0013M3.33325 12.0013C3.33325 11.2649 3.93021 10.668 4.66659 10.668C5.40296 10.668 5.99992 11.2649 5.99992 12.0013M12.6666 12.0013H13.9999C14.1767 12.0013 14.3463 11.9311 14.4713 11.806C14.5963 11.681 14.6666 11.5114 14.6666 11.3346V9.14797C14.6665 9.00811 14.6224 8.87182 14.5406 8.7584C14.4587 8.64498 14.3433 8.56017 14.2106 8.51597L12.9286 8.08864C12.8455 8.06089 12.7687 8.01706 12.7026 7.95964C12.6365 7.90221 12.5824 7.83233 12.5433 7.75397L11.5173 5.7033C11.4619 5.59258 11.3769 5.49945 11.2716 5.43434C11.1663 5.36922 11.045 5.3347 10.9213 5.33464H9.33325M12.6666 12.0013C12.6666 12.7377 12.0696 13.3346 11.3333 13.3346C10.5969 13.3346 9.99992 12.7377 9.99992 12.0013M12.6666 12.0013C12.6666 11.2649 12.0696 10.668 11.3333 10.668C10.5969 10.668 9.99992 11.2649 9.99992 12.0013M5.33325 5.33464V8.0013M5.99992 12.0013H9.99992" stroke="#808D97" stroke-linecap="round" stroke-linejoin="round"/>
</svg>
