<svg width="16" height="16" viewBox="0 0 16 16" fill="none" xmlns="http://www.w3.org/2000/svg">
<path d="M4.66683 11.9987V7.9987C4.66683 7.11464 5.01802 6.2668 5.64314 5.64168C6.26826 5.01655 7.11611 4.66536 8.00016 4.66536C8.88422 4.66536 9.73206 5.01655 10.3572 5.64168C10.9823 6.2668 11.3335 7.11464 11.3335 7.9987V11.9987M4.66683 11.9987H11.3335M4.66683 11.9987C4.31321 11.9987 3.97407 12.1392 3.72402 12.3892C3.47397 12.6393 3.3335 12.9784 3.3335 13.332V13.9987C3.3335 14.1755 3.40373 14.3451 3.52876 14.4701C3.65378 14.5951 3.82335 14.6654 4.00016 14.6654H12.0002C12.177 14.6654 12.3465 14.5951 12.4716 14.4701C12.5966 14.3451 12.6668 14.1755 12.6668 13.9987V13.332C12.6668 12.9784 12.5264 12.6393 12.2763 12.3892C12.0263 12.1392 11.6871 11.9987 11.3335 11.9987M14.0002 7.9987H14.6668M12.3335 2.9987L12.0002 3.33203M1.3335 7.9987H2.00016M8.00016 1.33203V1.9987M3.28616 3.2847L3.7575 3.75603M8.00016 7.9987V11.9987" stroke="#000A0F" stroke-width="1.5" stroke-linecap="round" stroke-linejoin="round"/>
</svg>
